<svg xmlns="http://www.w3.org/2000/svg" xmlns:xlink="http://www.w3.org/1999/xlink" version="1.1" x="0px" y="0px" viewBox="0 0 100 125" enable-background="new 0 0 100 125" xml:space="preserve"><path fill-rule="evenodd" clip-rule="evenodd" class="icon" d="M11.213,55.256c0.088-0.433,0.315-0.727,0.852-0.71  C12.136,55.138,11.705,55.228,11.213,55.256z M20.02,53.267c-0.185-0.027-0.621-0.393-0.994,0  C19.984,53.477,21.272,53.45,20.02,53.267z M41.186,20.026c-1.306,0.92-2.713,1.737-3.551,3.126  c-0.207-0.301-1.014,0.638-0.427,0.71C38.195,22.985,40.029,21.56,41.186,20.026z M38.487,71.592  c-0.064-0.985-0.672,0.007-0.852-0.568c0.021-0.452,0.322-0.625,0.284-1.137c-0.573,0.09-0.386,0.94-0.426,1.563  C37.675,71.645,38.109,71.59,38.487,71.592z M38.629,40.057c0-0.143,0-0.284,0-0.427c-0.411,0.258-0.647,0.027-0.71,0.427  C38.155,40.057,38.392,40.057,38.629,40.057z M39.765,38.92c-0.234-0.008-1.099-0.226-1.42,0  C38.822,38.808,39.557,39.678,39.765,38.92z M39.339,41.192c0.084-0.131-0.848-0.107-0.71,0.284  C38.897,41.413,39.485,41.67,39.339,41.192z M39.623,61.222c-0.346,0.08-0.73,0.122-0.71,0.568  C39.181,61.632,39.565,61.591,39.623,61.222z M41.328,49.716c0.1-0.649-0.708-0.291-0.995-0.143c0.368,0.241-0.22,0.717-0.71,0.569  c0.273,0.799-1.04,0.751-0.568,1.277C39.768,50.808,40.248,49.961,41.328,49.716z M42.18,30.539c0.06-0.403-0.965-0.44-0.995-0.284  C41.493,30.374,41.67,30.622,42.18,30.539z M43.458,41.051c-0.332,0.035-1.212-0.532-1.136,0  C42.937,40.853,43.263,41.668,43.458,41.051z M44.595,32.527c-0.227-0.116-0.867-0.538-1.137-0.142  C43.935,32.252,44.354,32.896,44.595,32.527z M56.386,47.017c-0.273-0.022-1.186-0.56-1.137,0  C55.628,46.935,56.136,47.437,56.386,47.017z M66.612,40.766c-0.496-0.03-1.225-0.566-1.562-0.283  C65.521,40.538,66.241,41.082,66.612,40.766z M71.442,29.971c0.365-0.099,0.748,0.877,0.711,0.284  c-0.637-1.051-2.276,0.121-3.268,0.567c-1.205,0.544-2.736,0.913-3.408,1.705C67.497,31.706,69.226,30.595,71.442,29.971z   M82.808,58.239c-0.928-0.146-1.658,0.942-2.558,1.278C81.45,59.439,81.918,58.629,82.808,58.239z M84.938,48.438  c-0.392,0.049-0.997-0.408-1.278,0C84.139,48.301,84.63,48.872,84.938,48.438z M5.957,59.233c-0.897,0.997-2.244,2.301-2.415,3.551  c0.23-0.433,0.332-0.994,0.995-0.994C4.509,60.814,5.497,60.137,5.957,59.233z M4.962,64.773c0.973-0.496,1.19-1.746,2.415-1.989  c0.451-1.186,0.148-1.429,0.994-2.272c0.509,1.108,2.005-0.688,1.989-0.994c-0.212,0.085-0.593,0.714-0.71,0.426  c0.297-0.349,0.462-1.977,1.563-1.988c0.542-1.522,1.938-2.478,3.125-3.693c0.346,0.08,0.731,0.121,0.71,0.568  c-1.02,1.963-3.163,2.803-4.403,4.545c1.393-0.928,2.404-2.236,3.835-3.125c-0.322,2.451,2.794,1.174,3.835,1.278  c-2.456,2.564-5.376,5.42-7.245,8.097c4.139-3.674,7.138-9.245,12.785-10.938c-1.416,1.614-2.97,3.092-4.546,4.546  c-0.258-0.13-1.107-0.396-1.278-0.143c0.586,0.252,0.526,0.307,1.136,0.427c-0.142,0-0.284,0-0.426,0  c-0.224,1.877-3.137,3.006-3.551,4.688c1.76-1.365,2.926-3.323,4.83-4.546c0.509,0.347,1.903,0.556,2.415,0.426  c-0.672-0.369-1.9-0.183-2.272-0.852c2.596-2.328,5.087-4.763,7.813-6.961c1.454,0.346,2.873,0.727,4.119,1.279  c-0.458,1.076-1.501,2.099-2.415,2.272c-0.014,1.076-1.545,1.863-2.273,2.699c-0.693-0.258-1.814-0.835-2.415-0.711  c0.715,0.373,1.741,0.438,2.273,0.994c-0.522,0.425-0.84,1.055-1.42,1.421c-0.707-0.62-1.013,0.155-1.705,0.284  c-0.183-0.196-0.617-0.141-0.995-0.143c-1.037-0.073,1.835,0.156,1.705,0.995c-0.111,0.031-0.165,0.118-0.142,0.283  c-0.446-0.16-0.375,0.042-0.71-0.142c-0.106,0.438,0.39,0.273,0.284,0.71c-1.403,1.58-3.307,3.417-3.978,5.256  c0.319-0.514,0.731-0.384,0.994-0.71c-0.544,0.026-0.051-0.116-0.142-0.426c0.353,0.016,0.439,0.266,0.71,0  c-0.028-1.09,0.843-1.223,1.421-2.131c0.084-0.133-0.03-0.536,0-0.567c0.09-0.098,2.314-1.423,0.994-0.854  c0.163-1.086,1.524-0.136,1.988-0.426c-0.479-0.358-0.874,0.041-0.994-0.568c0.583,0.054,1.003-0.628,1.42-1.137  c-0.205-0.08-0.346-0.222-0.426-0.426c2.305-2.099,4.128-4.68,6.677-6.534c0.43,0.043,0.508,0.438,1.136,0.284  c0.086-0.655-1.221,0.084-0.994-0.711c2.652-2.604,5.186-5.326,8.097-7.67c0.248-0.012,0.442,0.031,0.568,0.142  c0.042-0.279-0.192-0.281-0.284-0.426c0.08-0.205,0.222-0.347,0.426-0.427c0.784,0.306,2.121,0.057,2.131,1.136  c-0.804,0.091-1.563-0.609-2.131-0.283c0.388,0.18,0.912,0.225,1.278,0.426c-0.561,0.954-1.713,1.318-2.415,2.131  c1.253-0.405,2.116-1.955,3.41-1.847c0.169,0.65-1.149,0.546-0.71,0.994c0.555-0.25,0.81-0.801,1.421-0.994  c0.607,0.293,1.598,0.201,2.13,0.568c-0.288,0.902-1.595,1.359-1.563,2.131c-0.678-0.254-0.878,1.077-1.705,1.136  c-0.705-0.103-1.635-0.728-2.273-0.426c0.689,0.306,1.909,0.081,2.131,0.854c-1.379,1.576-3.674,2.925-4.545,4.545  c-0.157-0.238-1.407-0.069-1.705-0.285c0.096,0.33,0.645,0.208,0.71,0.568c-0.565,0.855-1.438,1.403-2.273,1.989  c-0.224-0.074-0.761-0.547-0.994-0.142c0.372-0.04,0.611,0.052,0.568,0.426c-1.079,1.032-2.452,3.227-4.262,1.847  c0.771-1.359,2.168-2.094,2.983-3.409c-0.587,0.033-0.443,0.883-1.136,0.426c-0.317,1.389-1.539,1.871-2.131,2.983  c-0.576-0.324-1.36-0.438-1.989-0.71c0.152,0.7,1.464,0.24,1.705,0.853c-0.379,0.79-1.077,1.412-1.989,1.278  c0.086,0.244,0.674-0.011,0.71,0.284c-0.424,0.664-0.977,1.201-1.563,1.705c0.053-0.273-0.98-0.386-0.568-0.144  c0.464,0.294,1.184,0.332,1.42,0.853c-0.667-0.003-0.62,0.706-1.278,0.71c0.042-0.087,0.354-0.546,0-0.567  c-0.248,0.557-0.793,0.816-0.852,1.563c1.246-0.269,1.801-1.229,2.699-1.846c0.34,0.401,0.523,0.139,1.136,0.141  c-0.156,0.726,0.821,0.316,0.853,0.853c-0.447,0.786-1.223,1.995-1.279,2.698c0.597-0.87,1.054-1.881,1.847-2.556  c0.36,0.286,0.826,0.368,1.137,0.283c-0.114-0.453-0.565-0.57-0.71-0.994c1.662-2.007,3.092-4.926,5.256-5.966  c0.035-0.927,1.281-2.422,2.415-2.272c0.058-0.343-0.259-0.31-0.142-0.711c2.743-2.845,5.643-5.531,8.808-7.955  c0.943,0.619,2.694,0.431,3.551,1.137c-1.358,0.968-2.606,2.783-4.119,3.125c0.115,1.092-0.811,0.585-1.278,0.853  c1.294,0.211-0.019,0.637-0.568,1.137c-0.666,0.606-2.183,2.515-3.125,2.983c-0.563,0.279-0.271,0.425-0.568,0.71  c-0.764,0.733-1.89,1.321-2.415,1.847c-0.493,0.012-1.104-0.592-1.42-0.284c0.252,0.269,1.041,0.001,0.995,0.568  c-0.681,1.076-1.887,2.206-2.841,2.557c0.322,0.254-0.5,1.106-0.853,0.711c-0.525,1.218-1.346,2.604-2.983,2.272  c-0.037,0.415,0.321,0.437,0.284,0.852c-1.156,0.881-1.907,2.165-3.268,2.842c-0.068-0.168-0.151-0.323-0.284-0.427  c0,1.279-1.037,1.52-1.42,2.415c0.86-1.146,2.445-0.435,3.41-0.71c-0.712-0.146-0.968-0.29-1.279-0.568  c0.511-0.77,2.075-1.238,2.131-1.988c-0.575,0.516-1.505,1.428-2.131,1.42c1.257-1.069,2.541-2.849,3.978-3.267  c-0.243,0.513-0.643,0.871-0.994,1.278c0.613-0.003,0.523-0.708,1.136-0.71c0.369,0.247,1.003,0.228,1.137,0.71  c-0.342,0.514-1.501,0.956-1.279,1.563c1.05-0.728,1.99-1.91,3.41-1.847c-0.167-0.022-0.403,0.023-0.427-0.143  c0.866-1.329,2.31-2.719,4.12-2.272c-0.369-0.152-0.952-0.09-1.137-0.427c1.455-0.87,2.729-3.959,4.83-2.414  c-0.971,0.79-1.634,2.613-3.551,1.989c-0.199,0.719,0.652,0.39,0.568,0.993c-0.087-0.041-0.547-0.354-0.568,0  c0.152,0.023,0.423-0.024,0.426,0.143c0.021,1.037-2.951,3.032-3.978,2.415c0.208,0.123,0.451,0.212,0.426,0.568  c-0.559,0.216-0.987-0.419-1.137-0.143c0.536,0.209,0.379,0.469,0.143,0.853c0.723-0.038,1.245-1.022,1.847-0.71  c-0.089,0.718-1.007,1.356-0.853,1.847c0.484-0.605,1.036-1.143,1.563-1.706c0.103,0.324,0.81,0.044,0.71,0.569  c-0.943,0.333-1.132,1.862-2.273,1.563c-0.116,0.227-0.539,0.867-0.142,1.137c1.103-0.934,2.536-1.537,3.551-2.558  c0.629,0.318,1.544,0.35,1.847,0.995c-0.905,0.231-1.471,0.802-2.131,1.278c1.329-0.664,2.744-1.842,4.262-1.137  c-0.312-0.352-1.291-0.035-1.278-0.71c1.425-0.563,2.44-1.537,3.693-2.273c0.403,0.401,1.368,0.241,1.563,0.853  c-1.454,0.484-1.993,2.49-3.835,2.131c1.043,0.882-1.048,1.349-1.137,2.415c1.701,0.496,2.641-1.693,4.12-1.421  c-0.088-0.935,1.711-2.055,2.699-1.136c-0.363,0.614-1.056,1.394-1.988,0.994c-0.229,0.559,0.613,0.05,0.568,0.426  c-0.964,0.884-2.063,1.632-2.842,2.699c2.047-0.605,2.479-2.825,5.256-2.699c-0.379-0.094-0.887-0.06-1.137-0.284  c1.078-0.621,1.982-1.869,3.125-1.988c-0.173-0.017-0.336-0.043-0.283-0.284c1.063-0.455,2.1-1.775,3.408-2.415  c-1.347,1.588-2.238,2.769-3.692,4.262c-0.229-0.291-0.684-0.357-0.995-0.568c0.031,0.585,0.885,0.347,0.995,0.853  c-0.253,0.221-0.557,0.391-0.853,0.568c0.159,0.029,0.221,0.157,0.284,0.284c-1.161,1.845-3.899,3.985-2.841,6.676  c0.688-0.086,1.436,0.493,1.988-0.143c-0.509-0.067-0.82-0.23-1.278,0c-0.853-0.744,0.835-2.028,0.427-3.124  c0.188-0.143,0.428-0.234,0.568-0.427c-0.293-1.345,1.28-2.304,1.704-3.267c0.629,0.155,0.706-0.24,1.136-0.284  c0.105-0.484-0.523-0.234-0.568-0.568c0.481-0.467,0.801-1.094,1.279-1.563c0.641,0.31,1.76,0.889,2.414,0.71  c-0.742-0.299-1.674-0.408-2.272-0.853c0.698-1.007,1.608-1.801,2.415-2.698c1.625,0.885,3.767,1.252,4.688,2.841  c-4.017,2.703-7.789,6.035-10.512,8.523c0.205,0.313,0.347-0.18,0.426,0.142c-0.119,0.306-0.732,0.12-0.852,0.427  c0.844,0.02,0.744,0.651,1.42,0.141c-0.492-0.299,2.041-1.285,2.842-1.563c-1.379,2.08-4.104,3.568-4.83,5.825  c0.059-0.463,0.676-0.366,0.994-0.568c0.006-0.195-0.066-0.312-0.143-0.426c0.375,0.356,0.479-0.356,0.854-0.427  c2.365-3.033,4.594-6.202,9.091-7.103c0.134,0.513,1.02,0.175,1.278,0.142c-0.445,0.066-0.4-0.356-0.568-0.568  c0.532-0.638,1.293-1.195,1.421-1.846c2.575-1.158,4.866-2.932,7.103-4.403c1.303-0.858,2.852-1.449,3.551-2.7  c-2.902,1.879-6.029,4.293-8.949,5.683c4.537-4.095,9.123-6.44,14.206-9.802c-2.304,0.887-3.462,2.19-5.54,3.125  c0.45-0.665,0.813-0.449,0.71-1.137c1.765-0.204,2.579-1.563,4.12-2.414c-0.822-0.182-1.796,1.404-2.558,1.278  c4.687-3.554,9.649-6.829,13.495-11.223c-3.524,1.072-6.445,3.262-9.233,5.257c-4.46,3.19-8.419,6.709-13.069,9.659  c4.543-5.402,10.782-9.105,14.632-15.2c-0.269,0.029-1.403-0.095-0.994,0.143c0.206,0.077,0.733-0.166,0.71,0.142  c-4.856,6.034-11.031,10.75-16.336,16.336c-0.763-0.326-1.4-0.776-2.272-0.994c0.615,0.521,1.621,0.651,2.13,1.279  c-0.671,0.432-1.558,1.196-2.414,0.994c0.168,0.068,0.322,0.15,0.426,0.284c-0.372,0.196-0.488,0.647-0.994,0.71  c-0.485-0.841-1.574-1.077-2.273-1.705c0.736-0.068,1.432,0.647,1.989,0.285c-1.507-0.435-3.281-0.603-4.403-1.422  c2.499-2.377,5.533-4.22,8.238-6.392c-0.861,0.18-1.209,0.874-1.988,1.137c-0.142-0.189-0.384-0.279-0.426-0.568  c1.691-1.428,3.512-2.946,5.397-4.83c0.53-0.004,1.237,0.555,1.563,0.284c-0.343-0.226-1.032-0.104-1.136-0.568  c0.607-0.646,1.732,0.116,2.131,0.568c-0.182,0.194-0.672,0.194-0.854,0c-0.031,0.269,0.161,0.313,0.143,0.568  c-1.705,0.994-3.275,2.122-4.83,3.268c2.051-0.887,3.458-2.415,5.398-3.41c0.305,0.311,0.781,0.449,1.421,0.426  c0.226-0.794-0.61-0.526-0.711-0.993c2.737-1.998,5.774-3.696,8.808-5.398c-1.416,0.336-2.342,1.162-3.552,1.704  c-0.453-0.493-1.066-0.827-1.704-1.136c0.509,0.438,1.131,0.762,1.563,1.278c-1.783,1.011-3.385,2.203-5.114,3.268  c-0.329,0.076-0.489-0.72-0.71-0.284c0.154,0.034,0.342,0.234,0.143,0.284c-0.513-0.198-0.943-0.479-1.421-0.71  c3.138-2.896,5.574-5.114,8.808-7.53c0.646,0.209,1.582,0.876,2.131,0.711c-1.086-0.524-2.221-1-3.41-1.42  c-0.076-0.33,0.719-0.49,0.284-0.711c-0.343,0.178-0.325,0.716-0.853,0.711c-0.016-0.27-0.469-0.099-0.426-0.427  c0.5-0.244,1.146-0.659,1.705-0.426c-0.381-0.979-1.547,0.39-2.273,0.426c-1.906-0.625-4.091-1.974-5.824-1.563  c0.795-0.051,2.212,0.679,2.273,0.426c-0.088-0.196-0.547-0.021-0.568-0.283c1.258,0.541,2.574,1.023,3.693,1.704  c-0.502,0.383-1.068,0.327-1.563,0.427c1.043,0.083-0.256,0.403-0.285,0.71c0.841-0.303,1.607-0.869,2.416-0.143  c-1.039,0.621-1.615,1.431-3.125,2.131c-0.356-0.259-0.936-0.295-1.137-0.71c0.586-0.407,1.354-0.635,1.705-1.278  c-0.222-0.108-1.441-0.42-1.137-0.143c0.248,0.13,0.708,0.049,0.852,0.284c-1.87,2.202-4.96-0.51-6.676-0.995  c0.202-0.307,0.689-0.801,1.136-0.426c0.044-0.278-0.19-0.281-0.284-0.426c1.108-0.418,1.429-1.646,2.558-1.988  c0.534,0.086,1.214,0.768,1.704,0.426c-0.565-0.192-1.232-0.282-1.563-0.71c1.635-1.917,3.645-3.458,4.972-5.683  c-2.925,0.793-5.603,2.996-8.239,4.546c-0.268-0.157-0.67-0.181-0.994-0.284c-0.139,0.564,0.795,0.059,0.711,0.568  c-0.563,0.592-1.881,0.165-2.131-0.426c-1.107,0.325-2.555-0.046-3.268-0.568c0.303-0.22,0.529-0.513,0.853-0.71  c0.795,0.209,1.165,0.717,1.989,0.426c-0.67-0.136-1.229-0.382-1.848-0.568c0.09-0.483,1.143-0.744,0.853-1.137  c-0.44,0.827-1.467-0.613-1.847-0.283c0.395,0.315,1.052,0.369,1.278,0.852c-1.185-0.283-3.333-0.954-4.829-0.852  c0.167,0.021,0.402-0.025,0.426,0.142c-1.292,0.361-0.666-1.154-0.711-1.421c0.213-0.322,1.082,0.339,1.279,0  c-0.182-0.243-0.85-0.003-0.853-0.426c1.565-0.795,3.235-1.853,4.688-2.699c0.572-0.333,1.271-0.646,1.563-1.137  c-2.182,0.898-3.99,2.924-6.251,3.268c0.456-0.038,1.323-0.62,0.71-0.853c0.02,0.484-1.002,0.652-1.563,1.278  c-0.699-0.532-2.184-0.278-2.557-1.136c1.175-0.674,2.547-1.743,3.693-1.989c0.412-0.842,2.289-1.323,2.699-1.562  c1.13-0.662,2.352-2.06,4.119-2.273c0.057-0.244-0.211-0.364,0-0.427c0.629-0.202,0.371,0.481,0.852,0.427  c0.295-0.464,1.068-0.448,0.996-1.278c-3.144,1.088-5.848,3.033-8.666,4.545c-2.331,1.251-4.451,3.427-6.393,1.848  c0.439-0.508,0.711-1.185,1.847-0.995c0.108-0.729,0.048-0.865,0.853-0.994c-1.018-0.214-2.006-0.456-2.699-0.994  c0.148-0.104,0.668-0.542,0.426-0.568c-0.263,0.511-0.892,0.523-1.277,0.568c0.162,0.648,0.609-0.034,0.852,0.71  c-0.76-0.028-1.237-0.195-1.846,0.143c0.994,0.604,3.65-0.483,3.551,0.994c-0.392-0.002-0.752-0.256-0.427-0.568  c-0.308,0.505-1.97,0.675-2.13-0.143c-0.877,0.184-1.871,0.094-2.416-0.426c0.479,0.009,1.309,0.277,1.137-0.143  c-2.179,0.115-4.22-0.755-6.25-0.993c0.498,0.124,1.633,0.386,0.71,0.709c0.994,0.196,2.286-0.175,2.84,0.711  c2.016-0.115,3.414,0.755,5.398,0.994c-0.336,0.374-0.564,0.856-1.137,0.995c-0.697-0.202-1.492-0.308-1.988-0.711  c0.136-0.243,0.471-0.286,0.568-0.568c-1.026,0.918-1.958,0.056-3.125,0.284c0.609,0.102,1.188,0.232,1.563,0.568  c-0.859,0.419-1.443,1.114-2.415,1.42c-0.725-0.37-1.562-0.392-1.705-0.142c-0.298-0.039,0.206-0.379-0.143-0.568  c-0.604,0.125-1.26-0.435-1.704,0c0.369-0.085,0.511,0.058,0.426,0.427c-0.8-0.691-1.479-0.873-2.273-1.137  c0.432-1.556,0.717-3.188,2.841-2.982c0.058-0.343-0.259-0.31-0.142-0.711c0.775-0.488,1.774-0.736,2.699-0.71  c-0.415-0.363-0.84,0.022-0.995-0.427c0.869,0.078,1.56,0.335,2.416,0.427c-0.262-0.592-1.432-0.274-1.848-0.711  c0.98-1.103,2.547-1.62,3.268-2.982c-0.808,0.141-1.82,0.827-1.847,1.278c0.258-0.177,0.827-0.771,0.994-0.568  c-0.983,0.815-1.999,1.6-3.125,2.272c-2.75-0.62-7.375-1.427-10.654-1.847c-0.024-0.212,0.051-0.523-0.142-0.567  c-0.08,0.204-0.222,0.346-0.426,0.426c0-0.189,0-0.379,0-0.568c-0.567,0.23-1.077,0.896-1.705,0.284  c-0.003,0.335,0.245,0.419,0.142,0.853c-1.895,1.156-2.574,2.649-4.262,3.978c-0.444-0.314-1.362-0.153-1.705-0.568  c0.98-1.008,2.447-3.756,3.694-3.693c1.011-3.131,4.31-5.015,6.108-7.813c-2.332,2.167-4.324,4.673-6.534,6.961  c-0.067-0.683,0.593-0.638,0.852-0.994c0.481-1.176,1.107-2.208,1.989-2.983c-0.953,0.617-3.074,2.509-4.404,3.693  c-0.099,0.111-0.792,0.316-0.852,0c0.365-0.818,1.243-1.124,1.42-2.131c-1.362,0.544-1.921,2.285-3.551,2.131  c0.565-0.007,0.771,1.17,0.142,1.137c-0.042-0.279,0.192-0.281,0.284-0.426c-0.652,0.035-0.534,0.304-0.426,0.852  c-0.388-0.104-0.286,0.283-0.568,0.284c-0.022-0.167,0.024-0.403-0.142-0.426c-0.143,0.546-0.574,0.264-0.853,0.426  c0.301,0.639-0.547,0.617-0.142,1.421c-2.928,3.228-6.08,6.988-8.95,9.802c0.887-1.908,3.021-3.324,3.694-4.973  c-2.018,2.197-3.763,4.665-5.824,6.819c-0.771,1.976-3.1,3.149-3.551,4.971c0.434-0.37,1.032-0.577,1.42-0.994  c0.024-0.401,0.261-0.592,0.284-0.993c4.11-4.13,7.815-8.664,11.791-12.927c0.188,0.001,0.129,0.248,0.284,0.283  c0.227-0.45,0.897-0.676,0.568-1.278c1.8-0.709,2.222-2.797,3.835-3.693c0.673,0.743-0.843,1.092-0.426,1.563  c0.042-0.126,0.384-0.621,0.426-0.284c-0.009,0.417-0.325,0.527-0.568,0.71c-0.188-0.749-0.305-0.008-0.994-0.142  c0.126,1.042-0.613,0.505-0.71,1.137c0.324,0.195,0.534-0.366,0.568,0c-0.156,0.507-0.487,0.839-0.995,0.994  c0.018-0.278,0.906-0.839,0.284-0.853c-0.572,1.154-2.942,2.552-2.415,3.41c-0.981,0.405-1.426,1.223-2.272,1.42  c-0.024,0.402-0.26,0.592-0.284,0.994c-3.598,3.789-6.113,8.66-9.233,12.927c0.547,0.488-0.583,1.664-0.71,2.416  c0.167,0.021,0.403-0.025,0.426,0.141c-1.248,2.304-4.387,3.473-4.972,5.967c3.412-3.549,6.417-7.504,10.085-10.797  c0.653-1.344,1.766-1.957,2.699-2.982c2.364-2.596,4.599-5.616,7.245-7.387c-3.792,4.493-7.542,9.03-11.791,13.068  c0.189,0.349,0.429-0.255,0.568,0.143c-2.21,2.766-5.03,5.666-6.676,8.523c-0.6-0.075-1.138,1.133-1.563,1.704  c0.422-0.139,0.5-0.404,0.284,0.143c0.599-0.111,0.566-0.854,0.852-1.278c0.274,0.462,0.952-0.942,1.705-1.421  c0.82-0.521,1.692-0.352,1.989-1.137c-0.254,0-0.827,0.383-0.995,0c0.64-0.639,1.036-1.521,1.705-2.131  c0.851,0.097,1.611,0.283,1.989,0.853C10.728,57.754,7.328,60.746,4.962,64.773z M20.304,36.362  c-0.189-0.315-0.635,0.302-0.995,0.284c0.816-1.598,2.313-2.518,3.552-3.692c-0.28,1.072,0.571-0.741,1.136-0.143  c0.188,0.96-0.758,1.636-1.279,2.272c-3.825,4.678-8.144,9.606-11.932,14.489c-0.265-0.073,0.456-1.5,0.994-1.704  c1.846-4.216,4.555-7.567,7.103-11.08C19.387,37.019,19.952,36.688,20.304,36.362z M23.855,34.231  c-0.409,0.729-0.838,1.436-1.278,2.131c0.893-0.434,1.53-2.351,2.415-3.267c0.297,0.224,0.943,0.099,1.278,0.284  c-0.075,0.967-0.615,1.468-1.42,1.704c-0.082,0.392-0.354,0.594-0.426,0.994c-4.728,4.411-8.967,9.312-13.353,14.064  C14.598,44.672,19.407,39.254,23.855,34.231z M40.618,34.8c2.472,0.277,3.131,0.798,5.398,0.995c-0.987,2.028-3.642-0.226-5.824,0  C40.047,35.177,40.485,35.142,40.618,34.8z M39.197,36.221c-0.621,0.1-0.8-0.241-1.42-0.143c-0.1-0.525,0.225-0.627,0.71-0.568  c-0.005-0.663-0.404-0.27-0.852-0.283c0.015-0.602,0.382-0.849,0.852-0.995c0.454,0.399,1.083,0.031,1.705,0.427  c0,0.095,0,0.189,0,0.284C40.153,35.661,39.178,35.443,39.197,36.221z M57.806,36.505c-0.853,1.434-2.572,1.016-4.262,0.568  c0.377,0.618,1.66,0.328,2.273,0.71c-1.279,1.504-3.129,0.396-4.973,0.284c0.288-0.518,0.696-0.914,1.563-0.853  C53.476,35.351,55.831,35.631,57.806,36.505z M62.92,39.062c0.321,0.816-0.993,0.111-1.563,0.143  c0.242,0.279,0.662,0.381,1.137,0.426c-0.224,0.345-0.508,0.628-0.852,0.853c-1.629-0.313-3.062-0.821-4.688-1.137  c-0.041-0.229,0.134-0.244,0.142-0.426c-0.177-0.168-0.663,0.561-1.421,0.284c0.152-0.511,0.418-0.908,0.853-1.137  c0.435-0.103,0.418,0.245,0.853,0.143c-0.075,0.113-0.148,0.23-0.143,0.426C59.104,38.009,61.08,38.9,62.92,39.062z M64.198,41.334  c-1.209,0.504-2.254,1.742-3.551,1.705c0.822-0.245-0.186-0.475-0.711-0.568C60.671,40.849,62.31,40.578,64.198,41.334z   M66.329,41.761c0.075,0.114,0.148,0.23,0.143,0.426c-1.012,0.362-1.391,1.356-2.699,1.421  C64.548,42.916,64.803,41.702,66.329,41.761z M63.914,44.317c-0.093-0.565,0.54-0.406,0.995-0.426  c-0.258-0.925,2.295-1.36,2.699-2.558c0.463,0.295,1.131,0.384,1.562,0.711c-0.335,0.737-1.399-0.063-1.989,0  c0.179,0.39,0.77,0.368,1.279,0.426c-1.106,0.904-2.131,1.905-3.409,1.563c0.364,0.131,1.358,0.546,2.272,0.567  c-0.381,0.619-0.994,0.535-1.705,0.284c0.051-0.187,0.251-0.224,0.285-0.426C65.175,44.863,64.655,44.32,63.914,44.317z   M64.909,44.744c-0.447,0.879-1.598,1.054-2.273,1.704c-0.398-0.17-0.696-0.44-1.279-0.427c0.041-0.349,0.938-0.564,0.568-0.852  C62.877,45.126,63.687,43.811,64.909,44.744z M62.493,44.886c-0.162-0.172,0.374-0.851,0.995-0.71  C63.255,44.511,62.756,44.58,62.493,44.886z M65.335,44.886c0.355,0.118,0.558,0.39,0.994,0.427  c-0.398,0.69-1.141,1.037-1.705,1.563c-0.512-0.057-0.952-0.185-1.42-0.284C63.651,45.76,64.722,45.552,65.335,44.886z   M69.17,42.613c0.219,0.865-1.218,1.222-1.704,1.847c-0.436,0.103-0.418-0.245-0.854-0.143  C67.169,43.453,68.149,43.013,69.17,42.613z M68.602,44.034c-0.274-0.272,1.298-1.298,1.137-0.995  C69.303,43.314,69.025,43.747,68.602,44.034z M75.704,36.931c-1.62,2.073-3.672,3.715-6.107,4.972  c-0.443-0.268-1.25-0.17-1.279-0.852C70.7,39.598,72.923,37.985,75.704,36.931z M66.612,49.147  c-0.809-0.326-1.524-0.747-2.556-0.853c1.399-1.771,3.566,0.25,5.397,0.284c-1.135-0.616-2.707-0.797-3.836-1.421  c0.321-0.626,1.002-0.893,1.422-1.42c1.928,0.438,3.467,1.268,5.113,1.988c-0.701,0.361-1.332,1.321-2.415,0.853  c-0.356,0.061,0.137,0.406,0.427,0.284c-0.338,0.468-0.849,0.763-1.421,0.994c-0.543-0.356-1.306-0.494-1.989-0.71  c0.336,0.47,1.133,0.478,1.705,0.71c0.078,0.315-0.271,0.202-0.284,0.426c0.626-0.169,1.378,0.038,2.131,0.428  c-0.588,0.267-1.121,1.012-1.989,0.567c0.105,0.132,0.258,0.215,0.427,0.283c-0.194,0.326-0.585,0.457-0.853,0.711  c-0.584-0.079-0.919-0.406-1.563-0.426c0.128-0.616,1.104-0.703,1.704-0.427c-0.093-0.189-0.304-0.264-0.567-0.284  c-0.002-0.474,0.57-0.376,0.71-0.71c-1.532,1.004-3.15-0.18-4.972-0.143c1.014,0.455,2.293,0.643,3.551,0.853  c-1.443,1.025-3.192-0.716-4.83-0.853c0.316-0.868,1.302-1.066,1.705-1.846C64.693,48.604,65.552,48.978,66.612,49.147z   M65.618,51.704c-2.284,1.646-4.895,2.965-7.244,4.546c-0.354,0.021-0.439-0.223-0.711-0.284c0.063,0.175,0.183,0.292,0.427,0.284  c-2.729,2.101-6.035,3.624-8.665,5.824c-0.619-0.044-0.953-0.373-1.563-0.427c1.357-1.383,3.584-3.314,5.54-4.829  c1.366-1.058,2.157-1.874,4.12-0.853c-0.42-0.48-1.377-0.423-1.848-0.853c1.751-1.705,3.869-3.045,5.682-4.688  C63.023,50.607,64.083,51.395,65.618,51.704z M54.823,61.506c-0.857-0.002-1.725,1.211-2.699,1.563  c-0.861-0.509-1.506-0.614-2.415-0.854c2.716-2.16,5.835-3.919,8.808-5.823c0.604,0.341,1.233,0.66,1.988,0.852  c-1.574,1.457-3.676,2.386-5.256,3.836c-0.33,0.045-0.545-0.022-0.711-0.143c0.08,0.204,0.223,0.348,0.427,0.427  c1.396-0.48,2.31-1.941,3.693-1.989c-0.968-0.06,1.739-1.603,2.415-1.847c-0.975,1.825-3.285,2.75-4.83,3.978  c-0.724,0.575-1.497,1.725-2.415,2.132c-1.444-0.668-1.635,0.061-0.426-1.279C54.067,62.266,54.312,61.752,54.823,61.506z   M58.8,56.393c0.646-0.697,1.685-1.083,2.699-1.705c0.901-0.553,1.781-1.466,2.558-1.847c0.173-0.086,0.568,0.086,0.71,0  c0.492-0.299,1.444-1.479,2.699-0.426c-2.041,1.795-4.406,3.266-6.677,4.829C60.074,57.012,59.476,56.663,58.8,56.393z   M69.17,50.143c0.345-0.762,1.382-1.3,2.131-0.854c0.175-0.459-0.46-0.108-0.284-0.568c0.503-0.255,0.929-0.586,1.421-0.852  c0.501,0.02,0.635,0.406,1.137,0.426c-0.45,0.586-1.157,1.205-2.132,0.853c0.059,0.273,0.551,0.112,0.427,0.568  c-0.427,0.284-0.957,0.463-1.278,0.852C70.063,50.48,69.698,50.229,69.17,50.143z M76.13,45.738  c0.016-0.659,1.404-0.554,1.279,0.142C76.838,45.979,76.599,45.743,76.13,45.738z M77.409,46.591c0.402,0.147,0.592,0.147,0.994,0  c-1.896,1.892-4.134,3.441-6.107,5.256c0.315-0.869,1.828-1.769,2.414-2.842c0.343-0.058,0.309,0.26,0.71,0.143  c-0.929-0.413,1.056-2.455,1.421-1.989C77.016,47.505,77.234,46.713,77.409,46.591z M74.567,48.721  c-1.027,0.938-1.934,3.477-3.408,2.273c0.346-0.742,1.117-1.062,1.988-1.278C72.622,49.345,73.913,48.808,74.567,48.721z   M74.427,48.579c0.128-0.25,0.522-0.234,0.568-0.568C75.288,48.126,74.938,48.999,74.427,48.579z M64.624,59.943  c-1.178,0.811-2.273,1.703-3.409,2.558c0.28-0.574,1.384-1.551,2.131-2.132C63.282,60.084,64.21,59.338,64.624,59.943z   M57.522,64.916c1.282-2.036,4.26-3.599,6.107-5.541C61.909,61.267,60.115,63.609,57.522,64.916z M54.112,67.614  c0.977-0.965,1.787-2.096,3.268-2.558C56.548,66.167,55.388,66.947,54.112,67.614z M45.164,71.45  c0.503-0.893,1.512-2.229,2.841-1.421C47.177,70.622,46.415,71.281,45.164,71.45z M34.225,65.342  c0.367-1.209,1.538-2.329,2.557-2.416c0.387-1.343,2.177-2.444,3.267-3.551c0.468,0.053,1.085-0.044,0.995,0.568  c0.328-0.287,1.089-0.145,1.278,0.142c-0.196,0.42-0.656,0.576-0.853,0.995c0.783-0.073,0.828-1.308,1.705-0.853  c-1.024,1.343-2.345,2.391-3.835,3.267c0.434-1.256,1.606-1.2,1.989-2.272c-1.077,0.961-2.364,1.709-3.267,2.841  c0.324,0.315,0.597-0.626,1.136-0.568c-0.22,1.154-1.536,1.211-1.989,2.131c-0.513-0.477,0.475-0.653,0.569-0.994  c-0.978-0.003-0.996,1.618-1.989,1.137c-0.366,0.034,0.195,0.244,0,0.568C35.187,66.005,35.426,64.976,34.225,65.342z   M53.402,51.988c-0.211-0.062,0.056-0.182,0-0.427c-0.782,0.64-1.812,1.031-2.415,1.848c-0.887,0.009-1.509-1.014-2.131-0.426  c0.881,0.113,1.338,0.651,2.273,0.71c-2.347,2.39-5.171,4.299-7.671,6.534c-0.162-0.548-1.094-0.327-1.563-0.568  c-0.163-0.447,0.223-0.345,0.284-0.568c-0.463,0.312-1.076,0.339-1.705,0.143c2.072-2.521,4.729-4.457,7.103-6.677  c0.343-0.058,0.31,0.26,0.71,0.142c-0.022-0.166-0.259-0.12-0.426-0.142c1.765-1.596,3.626-4.567,6.108-4.119  c-0.224,0.414-0.374,0.02-0.427,0.71c0.211-0.264,0.734-0.213,0.711-0.71c0.703,0.244,1.506,0.387,2.272,0.567  c-0.044,0.432-0.802,0.577-1.136,0.284c0.039,0.293,0.379,0.284,0.567,0.427c-0.474,0.3-0.979,0.436-0.853,0.995  c-0.166-0.024-0.119-0.26-0.142-0.428c-0.088,0.766-0.839,0.276-1.137,0.995c0.124,0.419,0.213-0.33,0.568-0.143  c-0.22,0.172-0.38,0.628-0.71,0.284C53.495,51.518,53.81,51.853,53.402,51.988z M47.01,47.301c0.401,0.117,0.368-0.2,0.71-0.143  c0.061,0.487-0.425,0.428-0.568,0.711C46.959,47.825,47.034,47.513,47.01,47.301z M44.311,46.021c0.5-0.743,2.282,0.18,2.983,0.569  C45.807,46.765,45.341,46.155,44.311,46.021z M27.833,41.192c0.574,0.051,1.382-0.889,1.988-1.278  c0.48-0.228,0.606,0.604,0.853,0.143c0.498,0.24-0.277,0.364-0.568,0.283c0.038,0.539,0.598,0.454,0.995,0.284  c0.303,0.29-0.04,0.563-0.142,0.853c0.402-0.219,0.605-0.72,1.136-0.426c0.367-0.034-0.195-0.245,0-0.568  c0.333,0.047,0.587,0.17,0.853,0.283c0.024-0.402-0.48-0.276-0.284-0.852c0.979,0.221,0.64-0.875,1.42-0.853  c-0.897-0.326-1.366,0.999-2.131,1.278c-0.003-0.138-0.174-0.11-0.284-0.142c-0.109-0.554,0.47-0.792,0.71-0.568  c0-0.189,0-0.379,0-0.568c-0.394,0.223-0.942,0.289-0.994,0.853c-0.461,0.082-0.661-0.097-0.994-0.142  c1.605-1.479,3.365-3.217,5.824-3.41c0,0.143,0,0.284,0,0.427c0.599-0.478,0.835,0.162,1.563,0.284  c0.308,0.023,0.064-0.504,0.142-0.711c0.342-0.058,0.309,0.26,0.71,0.143c0.138,0.517-0.692,0.065-0.426,0.71  c1.381,0.365,3.372,0.374,4.546,1.278c0.427-0.316,0.496-0.168,1.136-0.142c-0.435,0.752-1.318,1.904-2.272,1.278  c0.112-0.551,0.785-0.541,0.994-0.994c-0.365,0.206-1.622,0.744-1.989,1.421c-0.549-0.091-0.884,0.388-1.136,0  c-0.297,0.385,0.634,0.408,0,0.852c0.28-0.267,1.144-0.457,1.563-0.143c-0.571,0.542-1.359,1.547-2.131,1.421  c-0.255,0.219-0.114,0.833-0.568,0.853c-0.255,0.019-0.3-0.174-0.568-0.142c-0.126-0.519,0.25-0.757,0-0.995  c-0.421,0.101-0.226,0.816-0.71,0.853c0.059,0.319,0.779-0.021,0.71,0.427c-0.394,0.934-1.387-0.303-1.989,0.142  c0.747,0.737,2.265,0.387,3.41,0.994c0.031,0.508-0.738,0.641-0.995,0.427c-1.048,1.366-2.477,2.354-4.403,2.841  c0.075,0.113,0.148,0.23,0.142,0.426c2.468-0.483,3.506-3.536,6.534-2.558c-0.794,1.204-2.049,2.676-3.268,2.984  c0,0.189,0,0.378,0,0.567c-1.762,1.222-3.01,2.956-4.545,4.404c-1.425-0.469-2.882-0.906-4.262-1.421  c0.897-1.423,2.922-1.718,3.978-2.983c-0.494,0.121-0.823,0.408-1.136,0.711c-0.221-0.604,0.806-1.181,1.42-1.421  c0,0.189,0,0.379,0,0.568c0.314-0.303,1.156-0.074,1.137-0.71c-0.188-0.22-0.713,0.509-1.137,0.142  c-0.057-0.577,0.605-0.438,0.71-0.853c-0.482-0.063-0.948,0.429-1.279,0.711c-1.369,1.167-2.72,2.823-4.545,3.551  c0.017-0.599,0.513-0.719,0.71-1.137c-0.544,0.167-0.629,0.792-1.137,0.994c-0.593-0.072-1.5-0.577-1.705-0.567  c0.89-1.62,2.947-3.304,4.546-4.688c-0.198-0.428-0.735,0.295-0.995-0.143c-0.419,0.124,0.33,0.213,0.142,0.568  c-1.471,1.323-2.788,2.799-4.262,4.119c-0.981-0.391-2.144-0.602-3.125-0.994c1.735-2.384,4.403-3.836,6.392-5.966  c-0.967,0.312-1.344,1.213-2.272,1.562c-0.803-0.527-0.976-0.104-1.847-0.426c0.588-1.353,2.027-1.855,2.983-2.841  c0.416-0.036,0.437,0.321,0.853,0.284c0.067,0.446-0.382,0.376-0.426,0.711c0.378-0.521,1.418-0.381,1.563-1.137  c0.187,0.146,0.523,0.14,0.71,0.284c-0.174,0.202-0.542,0.322-0.71,0.142c-0.056,0.512-0.231,0.905-0.71,0.995  c0.72-0.455,2.573-0.693,3.835,0c-0.56,1.05-1.499,1.721-2.273,2.556c1.543-0.488,1.853-3.09,3.835-2.272  c-0.09-0.287-0.664-0.094-0.71-0.426c-0.055-0.528,0.684-0.263,0.71-0.71c-0.344-0.335-0.806,0.417-0.994,0.71  c-1.052-0.037-1.729-0.448-2.699-0.568c0.052-0.516,0.694-0.441,0.71-0.994c-0.505,0.238-2.276,0.382-2.841-0.427  c-0.382,0.063-0.729,0.534-1.137,0.143c0.092-0.429,0.646-0.396,0.853-0.711c0.043-0.288-0.411,0.03-0.426,0.143  c-0.264-0.459,0.441-1.164,1.137-1.136c0.139,0.611-0.534,0.413-0.568,0.852c0.147,0.219,0.563-0.382,0.71-0.284  C28.765,40.622,27.935,40.906,27.833,41.192z M44.311,38.493c0.954,0.277,1.888,0.575,2.841,0.853  c-0.531,1.03-2.005,1.119-2.698,1.988c-0.354,0.022-0.44-0.223-0.71-0.283c-0.299,0.385,0.322,0.354,0,0.852  c-0.715,0.23-0.805,0.453-1.705,0.284c0.092,0.145,0.327,0.147,0.284,0.427c-0.138,0.004-0.11,0.174-0.142,0.284  c-1.105,0.157-1.623-0.272-2.273-0.568c0.573-0.531,1.21-1.544,1.989-1.421C42.372,39.774,43.545,39.338,44.311,38.493z   M23.145,44.886c0.754-1.148,1.797-2.735,3.125-2.841C25.598,43.361,24.384,44.137,23.145,44.886z M25.56,45.738  c-1.636,1.3-2.662,3.209-4.972,3.835c0.099-0.828-0.982,0.05-1.279-0.568c1.694-1.488,2.962-2.321,4.262-3.978  c0.64,0.087,1.048,0.854,1.563,0.285C25.461,45.269,25.292,45.723,25.56,45.738z M24.85,54.403  c-0.562,1.001-1.583,1.542-2.415,2.272C22.611,56.408,23.779,54.72,24.85,54.403z M20.588,55.966  c1.183-1.753,2.813-3.059,4.261-4.546c0.865-0.107,1.2,0.315,1.705,0.568c-0.753,0.903-1.501,1.813-2.983,1.989  C23.222,54.763,21.65,55.433,20.588,55.966z M15.9,48.438c-1.25,0.737-1.948,2.028-3.125,2.841c1.149-1.549,2.292-3.105,3.835-4.262  c0.459,0.468-0.62,0.604-0.568,1.137c1.818-1.074,2.884-3.646,5.54-3.409c0.334-0.003-0.052-0.388-0.284-0.284  c0.746-1.007,2.345-1.159,3.267-1.989c-1.418,2.086-3.983,4.256-5.824,6.393c-0.698-0.06-1.111-0.405-1.847-0.426  c0.622,0.339,0.748,0.664,1.421,0.71c-1.239,1.602-2.725,2.957-4.12,4.404c-1.03-0.06-1.832-0.348-2.415-0.854  c-0.072-0.843,0.593-0.754,0.995-0.994C13.978,50.988,14.767,49.319,15.9,48.438z M25.134,38.777  c0.061,0.534-0.444,0.503-0.568,0.853c0.235,0.271,0.603-0.526,0.853-0.71c0.826,0.073,1.374,0.425,1.989,0.71  c-0.82,1.471-1.923,2.318-3.835,1.421c-0.15-0.529,0.299-0.459,0.426-0.711c-0.408-0.26-0.595,0.916-1.563,0.568  c0.044,0.332,0.279,0.587,0,0.853c0.645-0.896,1.815,0.153,2.557-0.142c-0.684,1.115-2.883,1.946-4.403,2.698  c-0.303,0.066-0.271-0.203-0.284-0.426c-0.382,0.45-0.7,0.415-1.42,0.284c0.376-1.038,1.678-2.008,2.841-3.268  C22.588,39.972,23.615,37.544,25.134,38.777z M26.98,35.652c-0.013-0.819,1.097-2.216,2.415-1.704  C29.395,33.57,29,33.585,28.827,33.38c-0.041-0.752,0.669-0.752,0.853-1.279c0.651,0.155,1.391,0.22,2.131,0.285  c0,0.236,0,0.474,0,0.71c0.111-0.084,1.371-0.234,1.42-0.853c-0.939,0.419-2.03-0.083-2.983-0.427  c0.913-1.407,2.149-2.49,3.268-3.692c0.29,0.041,0.278,0.385,0.568,0.426c0.406-0.191-0.378-0.363-0.284-0.71  c-0.125-0.456,0.468-0.195,0.426-0.568c3.137,0.351,5.153,0.979,8.097,1.421c0,0.142,0,0.283,0,0.426  c0.651-0.191,1.432-0.131,1.847,0.284c-0.305,0.536-0.912,1.406-1.705,0.994c-0.348,0.016-0.03,0.47,0.142,0.426  c-2.707,1.049-7.407-0.809-10.37-1.136c0.299,0.742,1.546,0.537,2.415,0.71c0,0.236,0,0.474,0,0.711  c0.25-0.127,0.234-0.631,0.568-0.285c-0.314,1.676-2.051,1.928-2.557,3.409c-0.552,0.063-0.983-0.448-0.852,0.427  c-0.354,0.021-0.44-0.223-0.71-0.284c-0.106-0.438,0.39-0.272,0.284-0.711c-0.114-0.107-1.79,0.571-1.563,0  c-0.303-0.065-0.27,0.203-0.284,0.427c0.121,0.417,0.358-0.185,0.71,0c-0.274,0.198-0.421,0.525-0.568,0.853  c0.437,0.105,0.273-0.39,0.71-0.284c-0.122,0.595,0.636,0.312,0.852,0.568c0.01,0.625-0.34,0.892-0.71,1.136  c-0.448,0.07-0.501-0.256-0.995-0.142c0.037,0.295,0.625,0.039,0.71,0.284c-0.193,0.943-1.146,1.127-1.42,1.988  c-0.53,0.013-0.405,0.16-0.852,0c-0.42,0.124,0.329,0.213,0.142,0.568c-0.745-0.114-0.283-0.937-1.563-0.71  c-0.162-0.777,0.606-0.625,0.71-1.137c-0.167,0.286-2.154,1.159-1.847,1.137c-0.292,0.418-0.827-0.109-0.994-0.284  C25.055,37.135,25.955,35.718,26.98,35.652z M35.93,30.681c2.081,0.204,3.606,0.925,5.114,0.995  c-1.217,2.062-2.71,1.978-5.398,1.562c0.513,0.292,0.954,0.655,1.847,0.568c0.036,0.747-0.63,0.791-0.995,1.137  c-0.802-0.17-0.919-0.143-1.705-0.284c0.11,0.677,0.642,0.05,0.994,0.426c-0.709,0.603-2.103-0.052-3.125-0.284  C33.512,33.55,34.843,32.104,35.93,30.681z M30.532,30.965c-0.384-0.258,0.248-0.688,0.426-0.853  C31.485,30.513,30.576,30.666,30.532,30.965z M28.259,33.237c0.225-0.484,0.474-0.946,0.994-1.137  C29.061,32.619,28.754,33.022,28.259,33.237z M17.605,54.688c-0.175-0.204-0.489-0.27-0.852-0.284  c0.561-0.904,1.732-2.099,2.699-2.983c0.404-0.369,1.266-1.179,1.705-1.277c1.245-0.281,1.843,1.04,3.409,0.852  c-1.376,1.796-3.086,3.259-4.545,4.972c-0.401,0.117-0.368-0.2-0.71-0.142c0.539,1.356-2.812,2.135-4.403,1.42  c-0.453-1.107,0.463-1.842,0.994-2.414c0.402-0.118,0.368,0.2,0.71,0.141c0.406-0.073-0.229-0.209-0.284-0.283  C16.473,54.127,17.079,54.775,17.605,54.688z M20.588,49.857c-0.974,1.772-2.864,2.63-4.12,4.12  C17.154,52.566,18.942,50.313,20.588,49.857z M16.327,52.272c0.366-0.034-0.195-0.244,0-0.568c0.543,0.178,0.788-1.183,0.994-0.426  c0.131-0.911,1.081-1.003,1.279-1.847c0.377,0.001,0.811-0.054,0.994,0.142c-0.879,1.821-2.806,2.592-3.693,4.404  c-0.593,0.119-0.671-0.276-1.137-0.284C15.073,53.1,15.831,52.207,16.327,52.272z M16.895,46.591  c0.267-0.622,1.219-2.426,2.415-2.131C18.992,45.657,17.681,45.861,16.895,46.591z M23.003,45.027  c0.025,0.499-0.479,0.468-0.568,0.853C21.905,45.751,22.517,45.007,23.003,45.027z M23.998,32.527c-0.039-0.589,0.187-0.554,0-0.994  c0.38-0.298,1.037-0.537,1.563-0.285c-0.013,0.745-0.592,0.924-0.852,1.421C24.543,32.55,24.327,32.482,23.998,32.527z   M24.85,54.262c0.128-0.772,0.958-0.842,1.42-1.278C26.247,53.295,25.576,54.18,24.85,54.262z M25.276,30.681  c0.385-0.807,0.61-1.095,1.42-1.278c0.464,0.603-0.375,0.885-0.426,1.42C25.893,30.821,25.459,30.877,25.276,30.681z M25.418,32.812  c-0.123-0.929,0.707-0.903,0.852-1.563c0.657,0.102,1.111,0.405,1.705,0.568C27.827,33.273,26.475,33.233,25.418,32.812z   M27.549,27.556c-0.444-0.229,0.292-0.45,0.284-0.71C28.299,27.097,27.667,27.421,27.549,27.556z M28.685,27.129  c-0.137,1.046-1.137,1.23-1.42,2.131c-0.271-0.06-0.611-0.051-0.568-0.426c0.175-0.158,0.292-0.123,0.284,0.142  C27.415,28.227,27.604,27.232,28.685,27.129z M27.407,42.187c0.024-0.671,0.562,0.051,0.994-0.142  C28.191,42.648,27.852,41.818,27.407,42.187z M27.691,33.096c0.117-0.404,0.32-0.721,0.71-0.853  C28.18,32.543,28.147,33.03,27.691,33.096z M28.685,39.346c0-0.142,0-0.284,0-0.426c0.408-0.029,0.722,0.036,0.852,0.284  C29.62,39.774,29.117,39.133,28.685,39.346z M29.111,38.636c0.639-1.397,1.949-2.123,2.841-3.268  c0.677,0.017,1.095,0.683,2.131,0.71c0.033,0.71-0.62,0.954-1.136,0.711C32.167,37.819,30.962,39.147,29.111,38.636z M36.924,35.795  c0-0.143,0-0.285,0-0.427c0.189,0,0.378,0,0.568,0C37.635,35.843,37.295,35.834,36.924,35.795z M38.203,43.607  c0.129-0.247,0.498-0.367,0.71-0.142c0-0.237,0-0.474,0-0.711c0.767-0.53,1.641,0.435,1.989,0.284  c0.43,0.174-0.101,0.543-0.143,0.71c-0.464,0.14-1.221-0.578-1.136,0.285c-0.549,0.075-0.693-0.255-1.278-0.143  C38.503,43.717,38.468,43.6,38.203,43.607z M38.913,36.931c0.114-0.495,1.062,0.007,1.42,0.143  C40.176,37.647,39.224,36.758,38.913,36.931z M39.481,44.886c0.216-0.811,1.109-0.078,1.278-0.852  c0.393,0.095-0.395,0.745,0.426,0.567c0,0.189,0,0.379,0,0.568C40.704,45.476,39.873,45.121,39.481,44.886z M39.481,36.362  c-0.041-0.229,0.134-0.244,0.142-0.426c1.934,0.007,3.097,0.786,4.972,0.853C43.348,38.367,41.122,36.546,39.481,36.362z   M39.481,33.806c0-0.143,0-0.284,0-0.426c0.891,0.133,1.08-0.436,1.704-0.568C41.661,34.19,40.144,34.058,39.481,33.806z   M39.765,69.319c-0.231-0.195,0.357-0.772,0.71-0.853C40.532,69.044,39.871,68.903,39.765,69.319z M40.191,67.329  c0.505-1.547,1.804-2.841,3.551-2.698c-0.666,1.181-1.795,1.899-2.699,2.841C40.61,67.575,40.526,67.327,40.191,67.329z   M40.902,68.467c-0.38-0.165-0.013-0.754,0.426-0.568c0.933-1.124,1.907-2.895,3.551-2.842  C43.803,66.443,42.128,67.23,40.902,68.467z M45.305,65.199c0.842,0.247,1.639,0.54,2.273,0.994  c-1.662,0.992-3.059,3.119-5.398,1.847C42.844,66.716,44.364,66.247,45.305,65.199z M40.759,40.34  c0.074-0.21,0.21-0.357,0.285-0.567c0.364,0.015,0.677,0.08,0.852,0.284C41.884,40.641,41.126,40.479,40.759,40.34z M41.044,44.034  c0.512-0.541,2.152-2.136,2.557-0.995c-0.43,0.044-0.507,0.439-1.136,0.284c0.092,0.145,0.327,0.146,0.284,0.426  c-0.38,0.094-0.54,0.407-0.853,0.568C41.449,44.386,41.341,44.115,41.044,44.034z M41.612,37.642  c0.247-0.763,0.961,0.197,1.42,0.142C42.806,38.047,41.96,37.728,41.612,37.642z M46.3,44.46c0.348,0.125,0.521,0.426,1.137,0.284  c-0.017-0.363-0.477-0.282-0.853-0.284c0.116-0.452,0.609-0.527,0.994-0.711c0.335,0.434,1.238,0.253,1.989,0.568  c-0.164,1.048-0.977,0.474-1.848,0.427c0.242,0.279,0.661,0.381,1.137,0.426c-0.166,0.448-0.618,0.613-0.852,0.994  c-1.225,0.016-1.752-0.848-2.7-0.711C45.411,44.897,45.867,44.69,46.3,44.46z M48.288,43.892c-0.066-0.445,0.383-0.375,0.426-0.71  c-0.327,0.146-0.457,0.488-0.994,0.426c0.189-0.475,0.805-0.522,1.137-0.853c0.717,0.089,1.219,0.393,1.988,0.427  c-0.195,0.419-0.655,0.574-0.852,0.994C49.491,44.014,48.823,44.019,48.288,43.892z M42.464,44.602  c0.051-0.809,0.701-1.092,1.42-0.853c0.424-0.167-0.52-0.122-0.284-0.567c0.253-0.127,0.361-0.397,0.853-0.284  c-0.329-0.603,0.411-0.759,0.71-1.137c0.986,0.387,2.405,0.341,3.267,0.853c-0.641,1.138-2.134,0.775-3.267,0.284  c0.248,0.557,1.18,0.429,1.705,0.71c-0.312,1.035-1.279,0.47-2.131,0.284c0.161,0.36,0.63,0.412,1.137,0.426  C45.253,45.672,43.666,44.896,42.464,44.602z M43.601,63.21c0.364-0.961,1.103-1.548,1.847-2.13  c0.364,0.109,0.806,0.142,0.994,0.426C45.646,62.169,44.745,63.354,43.601,63.21z M52.976,54.262  c0.495,0.311,1.135,0.476,1.705,0.709c-1.393,1.363-2.679,3.4-5.113,3.269c0.036,0.295,0.623,0.038,0.71,0.284  c-1.237,1.108-2.29,2.908-4.546,2.557C47.372,58.599,50.658,56.538,52.976,54.262z M56.954,50c0.405-0.074-0.23-0.211-0.285-0.284  c0.15-0.651,1.521-0.746,1.705,0c0.902-0.399,1.275,0.247,2.131,0.284c-0.105,0.441-0.562,1.039-0.994,0.711  c0.075,0.113,0.148,0.23,0.143,0.425c-1.43,0.568-2.363,2.36-3.694,2.558c0.354,0.569-0.676,0.786-0.994,1.137  c-0.519-0.287-1.344-0.267-1.704-0.711c0.412-0.746,0.957-0.898,1.846-0.567c-0.119-0.211-0.457-0.206-0.71-0.285  c1.075-1.34,2.53-2.299,3.978-3.267c-0.206-0.422-0.554,0.187-0.994,0c-0.846,1.444-3.073,2.69-4.545,3.978  c-0.449,0.069-0.502-0.257-0.995-0.143C53.464,52.567,54.913,50.379,56.954,50z M48.005,57.813c-0.367,0.035,0.194,0.244,0,0.568  c-1.441,0.487-1.939,2.992-3.978,1.988c0.643-1.26,2.009-1.813,3.125-2.698c0.654-0.519,1.635-1.473,2.558-2.273  c0.725-0.629,1.695-1.734,2.698-1.278C51.201,55.611,49.907,57.017,48.005,57.813z M43.743,63.638  c-0.165-0.024-0.252,0.03-0.284,0.141c-0.247-0.129-0.367-0.498-0.142-0.709C43.524,63.192,43.767,63.281,43.743,63.638z   M43.601,64.348c0.778-0.931,1.904-1.974,3.409-2.558c-0.675,1.124-2.153,1.446-2.699,2.698  C43.969,64.548,44.002,64.229,43.601,64.348z M43.601,42.471c0.215-0.354,0.487-0.649,0.995-0.71  C44.53,42.244,43.901,42.667,43.601,42.471z M48.856,37.783c-0.106,0.509-0.629,0.602-0.852,0.994  c-0.894-0.243-1.699-0.574-2.7-0.71C45.639,36.509,47.707,37.694,48.856,37.783z M44.311,37.783  c0.076-0.539,0.554-0.678,0.995-0.853c0.027,0.115,0.143,0.142,0.142,0.284C45.37,37.706,44.958,37.861,44.311,37.783z   M45.447,64.063c0.646-1.147,1.728-2.578,3.409-1.847c-0.67,0.894-1.891,1.234-2.557,2.132  C46.002,64.266,45.894,63.995,45.447,64.063z M45.874,64.348c-0.17,0.478-0.727,0.725-1.278,0.426  c-0.038-0.464,0.442-0.41,0.568-0.711C45.517,64.041,45.603,64.286,45.874,64.348z M45.021,38.493  c0.524-0.628,1.562,0.588,2.557,0.427C46.794,39.274,45.821,38.597,45.021,38.493z M47.862,41.619  c0.045,0.476,0.644,0.398,1.137,0.426c-0.645,0.944-2.225-0.525-3.41-0.426c1.245-2.452,3.615-2.014,5.966-1.137  C50.507,41.212,49.448,42.613,47.862,41.619z M45.589,36.789c0.288-0.375,0.583-0.742,1.279-0.711  C46.582,36.456,46.38,36.917,45.589,36.789z M45.731,65.199c1.33-1.548,3.644-3.708,5.967-1.847  c-0.887,0.725-1.83,1.391-2.842,1.989c-0.859-0.052-1.107-0.423-1.705-0.426c0.102,0.562,1.107,0.218,1.137,0.852  C47.21,65.804,46.778,65.195,45.731,65.199z M46.441,36.931c0.167-0.448,0.737-0.494,0.995-0.853  c0.882,0.207,1.666,0.513,2.699,0.568c-0.238,0.425-0.65,0.676-0.995,0.995C48.325,37.32,47.225,37.284,46.441,36.931z   M49.141,68.04c1.654-1.514,3.272-3.675,5.683-3.978c0.161,0.028,0.078,0.144,0,0.143c0.451,0.267,0.107,0.302-0.143,0.568  c0.277-0.121,1.346-0.473,1.847,0.143c-1.264,0.834-2.181,2.993-4.261,2.13c0.555-0.629,1.419-0.948,1.846-1.704  c-0.768,0.368-1.302,0.97-1.846,1.563c-0.582,0.061-0.91-0.132-1.279-0.284c-0.171,0.16-0.258,0.405-0.71,0.284  c0.751,0.479,1.708,0.754,2.698,0.994c-0.254,0.456-0.764,0.655-1.136,0.994c-0.455-0.113-0.717-0.419-1.278-0.426  c0.125-0.443,0.67-0.466,0.852-0.853c-0.611,0.004-0.639,0.593-1.136,0.71C49.847,68.281,49.77,67.885,49.141,68.04z M49.993,68.467  c-0.664,0.654-1.505,1.592-2.842,1.136C47.687,68.672,48.85,67.574,49.993,68.467z M48.005,35.652  c0.502-0.586,1.105-1.072,1.704-1.563c0.682,0.266,1.462,0.433,2.131,0.71c-0.288,0.611-0.843,0.957-1.278,1.421  C49.639,36.102,48.882,35.816,48.005,35.652z M48.431,46.448c0.098-1.039,1.158-1.114,1.42-1.988  c0.354-0.021,0.59,0.073,0.711,0.284c-0.037,0.406-0.641,0.621-0.853,0.426C49.648,45.639,49.212,46.304,48.431,46.448z   M53.828,45.597c-0.464-0.721-1.746-0.621-2.557-0.995c0.359-0.351,0.729-0.69,1.136-0.994c1.194,0.463,2.504,0.811,3.836,1.137  c-0.24,0.422-0.745,0.58-0.994,0.994c-0.443-0.066-0.887-0.605-1.278-0.285c0.188,0.238,0.632,0.222,0.853,0.427  c-0.32,0.793-1.064,0.419-1.848,0.284c0.189,0.284,0.631,0.317,0.995,0.427c-0.188,0.474-0.831,0.495-0.995,0.994  c-1.146-0.463-2.606-0.613-3.693-1.137c0.099-0.423,0.523-0.519,0.711-0.852c1.133,0.002,1.727,0.545,2.842,0.567  c-0.561-0.576-1.994-0.28-2.416-0.994C51.323,44.391,52.699,45.357,53.828,45.597z M48.431,38.777  c0.366-0.352,0.793-1.313,1.278-0.71C49.309,38.33,48.982,38.666,48.431,38.777z M48.714,66.052c1.244-1,2.603-3.018,4.688-2.273  c-0.712,1.088-2.074,1.524-2.841,2.558C49.601,66.385,49.593,65.774,48.714,66.052z M49.141,47.017  c0.77-0.369,2.305,0.516,3.409,0.71C51.584,47.886,50.189,47.248,49.141,47.017z M51.698,39.772  c0.557,0.522-1.439-0.658-2.273-0.568c-0.169-0.375,0.683-0.367,0-0.427c1.078-1.161,3.129-0.048,4.546,0.143  C53.388,39.354,52.733,40.234,51.698,39.772z M49.709,42.471c-0.12-0.503,1.022-0.962,1.563-1.278  C51.421,41.193,50.087,42.061,49.709,42.471z M52.976,40.766c-0.432,0.988-1.369,1.472-1.988,2.273  c-0.467-0.102-1.068-0.067-1.137-0.568C50.95,41.96,51.382,40.782,52.976,40.766z M49.567,37.642c0.172-0.35,0.661-0.38,0.71-0.853  c0.535-0.109,0.679,0.173,1.136,0.142c-0.207,0.456-0.916,0.411-1.136,0.853C49.876,37.9,49.909,37.583,49.567,37.642z   M52.55,43.466c0.027-0.161,0.143-0.08,0.143,0c0.195-0.516,0.727-0.693,0.994-1.137c-0.404,0.116-0.721,0.32-0.852,0.71  c-0.991-0.39-0.887,0.454-1.563,0.143c0.635-0.739,1.466-1.28,1.989-2.131c0.535-0.109,0.679,0.173,1.136,0.142  c0.001,0.521-0.497,0.544-0.71,0.853c0.188,0.179,0.83-0.394,0.994-0.711c1.563,0.284,2.92,0.774,4.262,1.279  c-1.314,0.917-2.152,2.64-3.978,1.704c-0.005-0.002,0.179-0.274,0.142-0.283C54.406,43.86,53.354,43.971,52.55,43.466z   M51.981,43.607c-0.56,0.408-0.777,1.009-1.704,0.71C50.556,43.652,51.265,43.061,51.981,43.607z M50.987,36.646  c-0.414-0.749,0.954-0.937,0.994-1.704c0.846-0.041,1.314,0.296,1.989,0.426C52.866,36.327,51.925,36.814,50.987,36.646z   M51.13,53.552c0.088-0.434,0.764-0.278,0.852-0.711C52.286,52.63,51.71,53.729,51.13,53.552z M52.124,67.329  c0.161-0.197,1.096,0.033,1.137,0.428C52.931,67.565,52.454,67.521,52.124,67.329z M52.55,69.035  c-0.151-0.301,0.648-0.862,1.137-0.995C53.441,68.505,52.867,68.642,52.55,69.035z M55.249,39.204  c0.598,0.18,0.597,0.22,1.137,0.284c-0.016,0.268-0.47,0.099-0.427,0.426c1.028-0.781,3.563,0.423,5.256,0.71  c-0.197,0.939-1.468,0.805-1.704,1.705c-1.094-0.232-2.046-0.606-3.125-0.853c-0.024-0.308,0.504-0.064,0.71-0.143  c-0.021-0.263-0.481-0.086-0.568-0.283c-0.444,0.298-0.456,0.207-1.136,0.142c-0.041-0.229,0.134-0.244,0.142-0.427  c-0.747,0.041-0.843-0.149-1.421,0C54.204,39.734,54.712,40.079,55.249,39.204z M53.544,40.482  c-0.121,0.026-0.133-0.056-0.142-0.143c0.026-0.121-0.056-0.134-0.142-0.142c0.486-0.365,0.932-0.772,1.563-0.994  C54.917,39.063,54.022,40.262,53.544,40.482z M56.527,46.875c0.634-0.721,1.679,0.202,2.558,0.142  c-0.062,0.415-0.641,0.738-0.995,0.426c-0.272,0.183,0.335,0.294,0,0.711c-0.499-0.026-0.611,0.336-0.853,0.567  c-1.373-0.235-2.47-0.749-3.835-0.994c0.395-0.461,0.831-1.304,1.704-0.852c0.176-0.46-0.459-0.109-0.283-0.568  c0.387,0.104,0.285-0.282,0.568-0.285c0.646-0.173,0.557,0.391,1.136,0.285C56.765,46.589,56.515,46.487,56.527,46.875z   M54.396,64.063c0.004-0.138,0.174-0.11,0.284-0.142c-0.023-0.167-0.259-0.12-0.426-0.143c0.81-0.693,1.682-1.961,2.841-1.846  c-0.093-0.145-0.327-0.147-0.284-0.427c1.905-1.03,3.012-2.859,5.256-3.551c-0.114,0.548-0.57,0.755-0.994,0.994  c0.317,0.262,0.892-0.429,1.137-0.71c0.51,0.151,0.881,0.444,1.278,0.71c-1.893,2.18-4.532,3.611-6.534,5.682  c-0.373-0.29-1.175-0.151-1.137-0.853C55.491,64.267,55.05,63.743,54.396,64.063z M60.362,45.88  c-0.362,1.438-1.694,0.712-2.982,0.568c-0.16-0.681,0.541-0.5,0.71-0.852c-0.602-0.034-0.722,0.413-1.136,0.567  c-0.652,0.132-0.688-0.355-1.279-0.284C56.491,44.084,58.802,45.857,60.362,45.88z M58.942,44.744  c0.959-0.209,2.23-2.01,3.836-0.853c-0.451,0.78-1.295,1.168-1.848,1.847c-1.635-0.021-2.473-0.842-3.835-1.137  c0.622-0.75,1.476-1.271,2.272-1.847c0.582,0.034,0.801,0.432,1.421,0.427C60.458,43.986,59.536,44.201,58.942,44.744z   M63.204,43.607c-0.503,0.4-1.233-0.182-1.705-0.284C61.914,43.011,62.817,43.42,63.204,43.607z M61.925,43.039  c0.939-0.565,1.959-1.684,3.268-1.42C64.308,42.619,63.638,43.944,61.925,43.039z M56.812,37.925  c0.294-0.321,0.545-0.686,1.278-0.567C57.778,37.82,57.523,38.206,56.812,37.925z M60.789,47.585  c0.077,0.697-0.938,0.386-1.278,0.284c-0.067,0.585,0.382-0.137,0.426,0.426c-0.042,0.479-0.629,0.412-0.71,0.853  c-0.662,0.047-1.12-0.111-1.563-0.284c0.469-0.433,0.781-1.019,1.705-0.994C58.682,47.313,60.364,46.951,60.789,47.585z   M60.079,47.017c0.397-0.991,1.33-0.67,2.131-0.71C62.146,47.438,60.815,47.667,60.079,47.017z M59.085,52.13  c-0.199-0.299,0.576-0.838,0.994-0.994C59.82,51.54,59.271,51.654,59.085,52.13z M64.341,47.442  c-0.121,0.026-0.135-0.055-0.143-0.142c-0.491,0.503-1.258,0.73-1.705,1.278c-0.578-0.037-0.963-0.268-1.42-0.426  c0.01,0.606,0.899,0.332,1.278,0.567c-0.931,1.009-1.339,1.005-2.983,0.711c0.744-0.934,2.037-2.199,3.41-1.278  c0.133-0.654-0.77-0.272-0.995-0.568c0.493-1.245,1.948-0.658,2.983-0.284c-0.282,0.286-0.672,0.465-0.853,0.853  C63.472,47.882,64.245,47.645,64.341,47.442z M64.624,55.113c0.953,0.452,1.829-0.818,2.416-1.278  c0.564-0.442,1.229-0.307,1.277-0.994c0.753-0.09,0.826,0.5,1.563,0.426c-1.296,2.157-3.766,3.719-6.107,5.54  c-0.758-0.189-1.045-0.849-1.848-0.994c0.838-0.867,1.852-1.559,2.842-2.273c-1.342-0.193-2.16,2.088-3.552,1.848  c1.328-0.945,2.64-1.907,3.978-2.841C65.452,54.634,64.947,55.139,64.624,55.113z M71.728,51.847  c-0.436-0.104-0.418,0.245-0.853,0.142c0.929,0.325-0.327,0.977-0.71,1.278c-0.543-0.12-0.904-0.422-1.421-0.568  C69.583,51.967,70.65,50.387,71.728,51.847z M61.499,49.857c0.555-0.629,1.198-1.169,1.989-1.563  C62.853,48.843,62.305,49.479,61.499,49.857z M65.192,47.017c0.061-0.463,1.021-1.25,1.705-1.563  C66.436,46.081,65.71,46.444,65.192,47.017z M71.017,41.761c-0.4,0.479-1.061,0.376-1.705,0.853  c0.277-0.717,1.189-0.801,1.705-1.279C71.495,41.392,70.188,41.759,71.017,41.761z M38.487,55.824  c-0.483,0.767-1.215,1.979-2.131,1.847C36.935,56.924,37.562,56.225,38.487,55.824z M29.537,61.364  c0.572-0.099,0.811,0.136,1.279,0.142c-0.396,0.741-0.955,1.318-1.847,1.563c-0.104-0.134-0.258-0.216-0.426-0.285  C28.406,61.842,29.689,62.32,29.537,61.364z M32.236,60.228c0.041,0.751-0.669,0.751-0.852,1.278  c-0.431-0.184-0.963-0.268-1.42-0.426c0.101-0.609,0.684-0.737,0.852-1.278C31.398,59.835,31.616,60.232,32.236,60.228z   M33.231,60.512c0.7-1.173,2.007-2.41,3.125-2.699c-0.216,1.488-1.708,1.701-2.131,2.983C33.909,60.685,33.671,60.497,33.231,60.512  z M33.941,60.796c-0.168,0.448-0.442,0.789-0.71,1.137c-0.323-0.104-0.726-0.127-0.995-0.285c-0.146,0.478,0.442,0.222,0.71,0.285  c-0.138,0.951-0.964,1.214-1.279,1.988c-0.934,0.129-1.13-0.479-1.988-0.427c0.479-0.894,1.095-1.65,2.415-1.704  C31.387,61.007,33.07,60.141,33.941,60.796z M64.341,67.472c-1.574,2.356-4.418,4.675-6.535,6.961  c-1.186,0.363-2.495,1.829-4.119,1.988c0.371-0.966,1.425-1.705,2.272-2.415C58.555,71.835,61.62,69.625,64.341,67.472z   M90.052,49.573c-6.576,6.682-14.813,11.703-22.16,17.615c-0.313-0.208-0.281-0.762-0.711-0.853c0.359,0.35,0.027,0.965,0.428,0.993  c-2.431,1.69-4.685,3.557-7.246,5.114c1.893-2.181,4.023-4.121,5.967-6.25c0.387,0.014,0.285-0.236,0.568,0  c0.189-0.099-0.07-0.378,0.143-0.71C74.861,60.331,81.479,53.976,90.052,49.573z M62.21,71.876c0.513-0.768,1.692-1.379,2.557-1.989  c0.484-0.341,1.146-1.192,1.563-0.852C64.872,69.897,64.044,71.391,62.21,71.876z M68.317,70.171  c0.183-0.386,0.729-0.409,0.853-0.852C68.755,69.384,68.147,69.99,68.317,70.171z M74.995,64.631  c-0.274,0.2-0.572,0.376-0.996,0.426c-0.092,0.381-0.406,0.541-0.568,0.854c-0.287-0.226-0.402-0.101-0.567,0  c-0.966,0.584-2.38,1.873-3.125,2.698c-1.617,1.793-3.224,3.612-5.397,4.546c0.713-0.313,1.296-0.749,1.846-0.143  c6.877-5.162,15.168-9.482,22.587-14.063c2.45-1.514,5.233-2.836,6.677-5.256c-0.691-0.41-1.809,0.62-2.273,0.426  c0.939-0.812,1.957-1.547,2.699-2.558C89.999,56.909,80.733,59.62,74.995,64.631z M68.744,70.313  c5.933-6.142,13.575-10.574,21.733-14.489c-5.258,3.755-11.394,7.933-16.903,11.505C71.919,68.403,70.7,69.706,68.744,70.313z   M95.023,53.693c0.042,0.942-1.06,1.502-1.704,1.988c-2.061,1.555-4.819,2.972-6.961,4.546c-0.342-0.059-0.309,0.259-0.71,0.142  c-1.851,1.465-4.263,2.367-6.251,3.693C84.223,60.791,89.161,56.401,95.023,53.693z M10.36,48.579  c-0.665,1.514-2.207,2.906-2.557,4.262C8.558,51.416,10.191,50.115,10.36,48.579z M20.02,32.669  c-0.466,0.295-1.291,0.979-1.136,1.421C19.198,33.552,19.61,33.111,20.02,32.669z M21.725,30.822  c-0.567,0.476-1.145,0.938-1.563,1.563C20.831,32.012,21.205,31.345,21.725,30.822z M22.009,42.187  c-0.161,0.319-1.044,0.651-0.71,0.995C21.388,42.79,22.271,42.458,22.009,42.187z M24.424,45.738  c-1.129,0.623-1.957,1.547-2.841,2.415C22.6,47.418,23.646,46.713,24.424,45.738z M23.855,61.647  c-0.191-0.475-1.407-0.67-1.563-0.71C22.675,61.313,23.335,61.41,23.855,61.647z M27.265,55.113  c-0.053-0.474-1.298-0.492-1.42-0.426C26.234,54.913,26.875,54.888,27.265,55.113z M26.98,62.358  c-0.181,0.008-0.197,0.183-0.426,0.143c0.346-0.165-0.158-0.67-0.284-0.285c0.29,0.09,0.04,0.718,0.569,0.568  C26.585,62.402,27.464,62.51,26.98,62.358z M29.68,57.244c-0.128,0.487-0.944,0.288-0.853,0.995  C29.352,58.237,29.814,57.435,29.68,57.244z M31.811,56.25c-0.173-0.016-0.336-0.042-0.284-0.284  c-0.353-0.021-0.589,0.074-0.71,0.284C31.265,56.055,31.673,56.602,31.811,56.25z M36.498,18.322  c-0.787,0.112-1.264,0.535-1.705,0.994c-0.695,0.252-1.044,0.85-1.705,1.137c0.753-0.007,1.523-1.222,2.557-1.421  c-0.706,1.236-1.845,2.039-2.699,3.125C34.256,21.004,35.807,20.093,36.498,18.322z M34.367,41.192  c0.074,0.372-0.824,0.483-0.284,0.853c0.026-0.211,0.344-0.13,0.568-0.143c-0.008-0.815,1.193-1.171,0.995-1.704  c-0.027,0.21-0.344,0.13-0.568,0.142c0.123,0.55-0.238,0.614-0.426,0.853c-0.149-0.181-1.055-0.805-1.136-0.142  C33.869,40.95,34.099,40.91,34.367,41.192z M35.362,24.998c-0.145,0.477-1.212,0.771-0.853,1.279  C34.629,25.777,35.565,25.351,35.362,24.998z M37.351,44.602c-0.086-0.783-1.357,0.028-1.847-0.567  c-0.117,0.542,0.685,0.167,0.568,0.71c-0.361,0.68-1.077,1.007-1.563,1.563C35.664,45.946,35.917,44.683,37.351,44.602z   M37.635,38.21c-0.13-0.387-0.264,0.378-0.71,0.142c-0.045,0.665-0.288,1.133-0.994,1.137c0.01,0.247-0.032,0.441-0.143,0.568  c0.36-0.161,0.806-0.237,0.995-0.568C36.514,39.071,37.447,38.642,37.635,38.21z M36.214,25.141c0.316-0.476,0.999-0.77,0.426-1.421  c-0.181,0.483-0.788,0.538-0.853,1.137C36.067,24.814,36.069,25.048,36.214,25.141z M37.918,50.283  c-0.184,0.437-1.272,0.71-0.994,1.137C37.108,50.984,38.197,50.711,37.918,50.283z M37.777,63.21  c-0.148-0.643,0.775-0.859,1.278-0.852c-0.173-0.017-0.336-0.043-0.284-0.284c-0.48,0.164-0.606-0.101-0.853,0.142  c0.246,0.104-0.43,0.959-0.71,0.568c-0.028,0.182-0.413,0.696-0.142,0.71C37.187,63.284,37.424,63.189,37.777,63.21z M40.191,49.289  c-0.024-0.212,0.051-0.523-0.142-0.568c-0.02,0.407-0.592,0.261-0.994,0.284c0.249,0.503-0.478,0.732-0.142,0.853  C39.182,49.511,39.496,49.209,40.191,49.289z M42.18,56.25c-0.592,0.071-0.626-0.415-1.278-0.284  C40.985,56.538,41.826,56.326,42.18,56.25z M42.89,47.869c-0.49,0.172-0.856,0.47-1.136,0.852  C42.244,48.549,42.611,48.252,42.89,47.869z M44.595,40.624c-0.164-0.102-1.223-0.402-0.853-0.142  C44.022,40.603,44.453,41.188,44.595,40.624z M45.305,56.25c-0.405,0.506-0.906,0.624-1.42,0.711  c0.159,0.029,0.221,0.157,0.284,0.283c-0.11,0.032-0.28,0.004-0.284,0.143c0.635-0.464,2.089,0.154,0.995-0.568  C45.036,56.723,45.616,56.346,45.305,56.25z M46.441,57.244c0.032-0.241-0.16-0.352-0.142,0c-1.053-0.105-1.054,0.84-1.705,1.137  c0.11-0.032,0.28-0.004,0.284-0.142C45.537,58.044,45.742,57.397,46.441,57.244z M46.584,33.521c0.034-0.593,0.528,0.162,0.71-0.284  c-0.473-0.399-1.718-0.32-2.557-0.71C45.083,33.128,46.359,32.799,46.584,33.521z M47.72,51.42c-0.328-0.114-1.621-0.563-1.42-0.284  C46.718,51.198,47.453,51.679,47.72,51.42z M49.425,54.688c-0.979,0.585-2.357,1.523-2.699,2.273  C47.632,56.209,48.579,55.499,49.425,54.688z M49.709,31.248c0.36-0.674,1.403,0.503,1.847,0.143  c-0.4,0.094-1.106-0.792-1.278-0.852c0.04,0.014-0.208,0.291-0.284,0.283c-0.803-0.074-2.308-1.267-3.125-0.852  C47.727,30.436,49.632,30.459,49.709,31.248z M51.556,30.396c-0.344-0.668,0.73-0.656,0.994-1.137  c-1.168,1.262-2.854,0.376-4.403,0.427c0.77,0.319,1.952,0.226,2.558,0.71c-0.222-0.012-0.1,0.413,0,0.143  C50.722,30.226,51.306,30.478,51.556,30.396z M50.704,52.272c-0.691-0.093-0.06-0.406-0.285-0.568  c-0.135,0.788-1.693-0.271-1.42,0.143C49.31,52.104,50.827,52.511,50.704,52.272z M55.675,68.751  c0.799,0.244,2.017,0.822,2.699,0.71C57.62,69.245,55.897,68.559,55.675,68.751z M57.096,32.243  c-0.41,0.253-1.354-0.028-1.563,0.426c0.711,0.096,1.099-0.131,1.704-0.142c-0.884-1.757-4.334-1.907-5.539-2.131  C53.511,30.999,55.679,31.246,57.096,32.243z M55.106,28.55c-0.469,0.668-1.049,1.223-1.563,1.847  C54.104,29.913,55.232,29.246,55.106,28.55z M55.392,27.981C53.851,28.07,54.548,28.769,55.392,27.981L55.392,27.981z   M57.806,62.216c0.017,0.203,0.988,0.376,0.568,0.143c-0.168-0.068-0.322-0.151-0.426-0.284c2.664-2.283-0.992,0.245-0.994,0.995  C57.178,62.724,57.462,62.44,57.806,62.216z M58.517,69.603c0.184,0.112,1.367,0.377,0.994,0.143  C59.286,69.671,58.75,69.198,58.517,69.603z M60.647,59.659c-0.575,0.184-0.957,0.56-1.279,0.994  C59.912,60.439,60.296,60.065,60.647,59.659z M61.356,33.663c0,0.079,0.115,0.162,0.143,0c-0.561-0.003-1.332,0.915-1.846,1.421  C60.343,34.733,60.962,34.31,61.356,33.663z M65.761,55.113c-0.587,0.171-0.971,0.545-1.278,0.994  C65.34,55.94,65.114,55.532,65.761,55.113z M66.045,29.828c-0.958,0.368-1.478,1.175-2.272,1.705  C64.778,31.213,65.247,30.355,66.045,29.828z M68.176,34.942c-0.556,0.143-1.486,1.306-1.421,1.136  C67.396,35.866,67.692,35.312,68.176,34.942z M70.732,45.313c-0.475-0.006-1.151-0.544-1.563-0.143  C69.86,44.961,70.325,45.711,70.732,45.313z M72.153,30.681c-0.547-0.022-1.039,1.352-0.853,1.136  C71.531,31.385,72.015,31.205,72.153,30.681z M80.393,60.228c-1.745,1.216-3.776,2.172-4.83,3.693  c3.659-2.775,7.645-5.024,11.364-7.671c2.811-2,5.41-4.649,9.092-5.539c0.406,0.22-0.297,0.662,0.142,0.851  c-0.023-0.448,0.378-0.474,0.284-0.994c-1.598-0.035-2.395,0.731-3.552,1.137c0.427-0.71,1.384-0.89,1.705-1.704  c-1.905,1.221-3.519,2.732-5.397,3.978c-1.119,0.34-2.215,1.332-2.699,1.847c-1.354,0.682-2.633,1.439-3.836,2.272  c1.139-0.328,2.015-0.921,2.841-1.563C84.039,57.877,82.133,59.016,80.393,60.228z M85.506,55.397c0.001,0.079-0.115,0.161-0.142,0  c0.711-0.472,1.551-0.816,2.131-1.42c-2.662,1.365-5.767,3.795-7.672,4.972C82.079,57.758,83.632,56.631,85.506,55.397z   M85.506,48.438c-0.223,0.013-0.492-0.02-0.426,0.283c0.719,0.12,0.841-0.009,1.421,0.143c-0.576-0.765-2.739-1.409-3.125-1.421  C84.061,47.799,84.84,48.061,85.506,48.438z M90.903,51.704c-1.262,0.584-2.354,1.339-3.408,2.131  C88.981,53.048,90.321,52.332,90.903,51.704z M93.461,50.283c-0.438,0.255-1.351,0.427-1.847,0.995  C92.577,50.818,92.81,51.056,93.461,50.283z"/></svg>