<svg xmlns="http://www.w3.org/2000/svg" xmlns:xlink="http://www.w3.org/1999/xlink" version="1.1" x="0px" y="0px" viewBox="0 0 512 640" style="enable-background:new 0 0 512 512;" xml:space="preserve"><g><g><g><g><path class="icon"
    d="M166.391,500c-1.986,0-3.979-0.59-5.703-1.787c-3.814-2.649-5.302-7.575-3.593-11.894l59.525-150.376L84.598,251.202      c-3.867-2.482-5.545-7.281-4.067-11.632s5.72-7.138,10.312-6.748l153.595,12.987L280.247,87.79      C281.279,83.234,285.329,80,290,80s8.721,3.234,9.753,7.79l35.81,158.019l153.595-12.987c4.588-0.387,8.833,2.397,10.312,6.748      c1.478,4.352-0.199,9.15-4.067,11.632L363.38,335.943l59.524,150.376c1.709,4.318,0.221,9.244-3.593,11.894      c-3.813,2.649-8.948,2.325-12.399-0.784L290,392.074L173.087,497.429C171.197,499.133,168.799,500,166.391,500z M290,368.613      c2.396,0,4.792,0.856,6.694,2.571l91.911,82.824l-46.85-118.355c-1.76-4.445-0.127-9.514,3.896-12.097l105.02-67.409      l-122.096,10.324c-4.957,0.409-9.492-2.889-10.596-7.755L290,135.247l-27.98,123.47c-1.103,4.866-5.627,8.159-10.595,7.755      l-122.096-10.324l105.02,67.409c4.023,2.583,5.656,7.651,3.896,12.097l-46.85,118.355l91.911-82.824      C285.208,369.471,287.604,368.613,290,368.613z"/></g><g><path d="M184.894,222.086c-2.325,0-4.644-0.808-6.509-2.407l-52.656-45.128l-52.656,45.128      c-3.515,3.012-8.64,3.219-12.385,0.498c-3.746-2.722-5.133-7.658-3.354-11.933L83.98,144.22L24.79,108.086      c-3.952-2.412-5.731-7.222-4.3-11.625c1.431-4.403,5.702-7.245,10.313-6.877l69.125,5.559l16.074-67.459      c1.073-4.504,5.098-7.682,9.728-7.682s8.654,3.178,9.728,7.682l16.074,67.459l69.125-5.559      c4.615-0.374,8.881,2.474,10.313,6.877c1.431,4.403-0.349,9.213-4.3,11.625l-59.191,36.134l26.648,64.024      c1.779,4.275,0.391,9.211-3.354,11.933C189.012,221.454,186.95,222.086,184.894,222.086z M125.729,151.381      c2.317,0,4.635,0.802,6.507,2.407l27.297,23.395l-13.814-33.19c-1.895-4.553-0.188-9.808,4.022-12.378l30.685-18.732      l-35.835,2.882c-4.92,0.397-9.386-2.853-10.529-7.65l-8.333-34.971l-8.333,34.971c-1.143,4.797-5.608,8.053-10.529,7.65      l-35.835-2.882l30.685,18.732c4.209,2.57,5.917,7.825,4.022,12.378l-13.814,33.19l27.297-23.395      C121.093,152.184,123.411,151.381,125.729,151.381z"/></g></g></g></g></svg>