<svg xmlns="http://www.w3.org/2000/svg" preserveAspectRatio="xMidYMid meet" viewBox="130.709 2.143 640 499.207"
    style="background-color:red"> 
        <style>
            @keyframes glow {
                0% {
                    filter: drop-shadow(16px 16px 20px white) brightness(100%);
                }

                to {
                    filter: drop-shadow(16px 16px 20px red) brightness(150%);
                }
            }

            path {
                fill: wintergreen;
                animation: glow 5s ease-in-out infinite alternate;
            }

            .yak {
                fill: yellow;
            }

            .yak:hover {
                fill: verylightpink;
            }

            .icon {
                fill: yellow;
            }
        </style>  
        <g>viewBox=&quot;215.709 2.143 566.847 499.207&quot;<path d="M531 0a1442 1442 0 0 0-157 4c1 1 0 1-1 1l-1 1-3 4-2 3 2 3-2 3-1 9c-1 8-1 9-3 8-2 0-2 0 0 2 2 1 2 2 2 5 0 2 0 3 1 2l2-1v5l2 2 1 1 2 2 2 2-1 3-1 1h2c1-1 1-1 3 1l3 2c2 0 4 1 5 3s3 3 6 3 4 1 4 2l5 1 5 1c1 2 3 2 16 2l15-1-1-2-2-3-1-4-2-3 2-3 3-2 1 3c0 2 1 2 5 3 3 0 5 1 5 2l4 1 2 1 1 2 3-2v-2l-1-1-1-1-5-1-3-1 4-2c2 0 3 0 2-3l-2-3-1-7 1-5 2 2 2 4 1 2c-1 1 0 2 1 1 2 0 2 0 2 2-1 1-1 2 1 1l2 2h4l5-2 3 1-1 2-1 2 3 1c3 0 3 0 3-3V44l1-10 2-2 2-5 3-2 1 6c0 5 0 6 2 7l2 3 4 6 5 5c-1 1 0 2 1 2 1-1 1 0 1 1l1 1 4 3 4 4 1-2 1-4v-4l1-3c1 1 2 0 2-1v-4l1-2c1 0 2-1 2-3l2-2 1 5v6l1 2 1 1 8 1 9 1c1 2 1 2 3 1l2-1 1-2v-3l1-1 2-2v-4l2-1 1 1v4c0 1 1 2 2 1l1 2 1 1c2 0 2 0 2 2s2 4 5 7l5 6c0 1 0 2 1 1l2 2c-1 1 0 1 2 1s4 0 6 3l5 3 2 1c1 1 3 2 7 2l6 1 3 2 3 2-3 1c-2 0-3-1-3-2l-5-1-7 1c-1 1-2 2-3 1l-1 3v6l-2 1-1 1v4l-2 1-1 3 1 3c1 1 2 0 2-1l5-1c3 0 4-1 5-2s1-2 2-1l1 5c0 2-1 3-2 3s-2 1-1 2l-3 7-3 4 10 1c9 0 11-1 11-2l5-1c4 0 5-1 5-2l1-1 2-2 1-1h2l-4 5c-3 3-5 4-8 4l-5 1c0 1-3 2-12 2-12 0-12 0-12 3l-2 3-1 5c0 2 0 4 2 6l4 2 5 3 5 3 3-1c0-1 2-2 11-2 8 0 10-1 11-2l3-1 4 2v-1l-1-3 2-1c1 0 2 0 1-1 0-2 0-2 2-2l5-2c1-2 2-2 5-2h3c1-1 0-1-1-1h-1l4-2h1l-2-2 4-1 3-1c-1-1 0-2 1-2l2-1c-1-1 0-2 1-2s2 0 1-1l5-5 5-7c0-2 1-3 3-3l3-1h-3l3-2 3-1h-3l2-2 1-1v-3l2-3c2 0 2-1 2-3-1-2-1-3 1-2 1 0 2 0 1-2l1-1v-2l-1-3 1-2 2 2c1 1 1 0 1-4-1-6 0-7 1-7s2 0 2-3l2-4v-1c-2 1-2 0-2-4s0-5 1-4c2 0 2-2 2-16 0-15 0-16-2-16-1 1-1 0-1-4v-7c0-2-1-2-2-2s-2-1-2-3V1L531 0M366 14l-1 1 1 1v-2m0 3-1 1h1c1 0 0 0 0 0v-1m117 17-1 1h1c1 0 0 0 0 0v-1m52 22-6 1-1 1 4 1 5 2 4 2 2-1c1-1 1-2-1-2l-1-2c0-2-1-2-6-2m-163 1-1 1h1c1 0 0 0 0 0v-1m6 6-1 1h1c1 0 0 0 0 0v-1m188 0-1 1h1c1 0 0 0 0 0v-1m-132 1v1l2 1v-1l-2-1m-53 2-1 1h1c1 0 0 0 0 0v-1m39 12-13 1-1 8v9c0 1 0 2 2 1l1 2v3l1 2h2l4 2c2 1 3 0 3-1v-2l1-3 2-4 1-2 2 7a401 401 0 0 1 1 12c2 0 2 1 2 3-1 3 0 4 1 3 2 0 2 0 2 3-1 3 0 4 1 3l4 3 4 3c2 0 4 1 5 3 3 3 4 4 6 4l4-1c1-1 0-2-1-3l-1-4-1-3c-1 0-2-1-2-3l-1-3c-1 0-2-1-2-4v-8c0-3-1-4-2-3l-1-5v-6l-1-2c-1 0-2-1-2-3v-5l-1-2c-1 1-2 0-4-2l-4-3h-12m261 12-1 1h1c1 0 0 0 0 0v-1m-269 16-1 1h1c1 0 0 0 0 0v-1m7 2-2 1 1 1 1-2m205 2h-1l-1 1 2 1 1-1-1-1m-210 1-1 1h2l-1-1m18 20c-1-1-1-1 0 0l1 1-1-1m5 0-1 1h1c1 0 0 0 0 0v-1m70 1-1 1 2 1 1-1-2-1m-66 2h-1l2 1h1l-2-1m70 0-2 1 1 1 1-2m130 2-2 1 1 1 1-2m-194 2-1 1h1c1 0 0 0 0 0v-1m191 1-2 1 1 1 1-2m-182 2-1 1h1c1 0 0 0 0 0v-1m172 2-1 1h1c1 0 0 0 0 0v-1m-47 4c-2-1-3 0-3 2s1 2 3 1c2 0 3-1 3-2l-3-1m47 1v1l2 1v-1l-2-1m11 4-1 1h1c1 0 0 0 0 0v-1m-53 1-1 1v1l1 1 1-1-1-2m-138 3-1 1h1c1 0 0 0 0 0v-1m141 0-1 1h1c1 0 0 0 0 0v-1m62 2-1 1h1c1 0 0 0 0 0v-1m-212 1-2 1 1 1 1-2m55 0c-1 0-2 0-1 1v1l2 1 2-1c0-1-1-2-3-2m160 2-1 1h1c1 0 0 0 0 0v-1m4 4h-1l2 1-1-1m-231 0v1h2l-2-1m69 1-5 1-1 2h5l5-1c0-1-1-2-4-2m-71 1-2 1v1l1-1 1-1m69 5-3 1c0 2 1 2 3 2l2-1-2-2m-82 2-1 1h1c1 0 0 0 0 0v-1m-3 3-1 1h1c1 0 0 0 0 0v-1m83 1c-3 0-4 0-4 2 0 1 1 2 4 1l4-2-4-1m-86 2-1 1h1c1 0 0 0 0 0v-1m267 0-1 1h1c1 0 0 0 0 0v-1m-275 1-1 1h1c1 0 0 0 0 0v-1m278 2-1 1h1c1 0 0 0 0 0v-1m-281 1-1 1h1c1 0 0 0 0 0v-1m99 0c-5 0-6 0-6 2s1 2 4 2l6-1 2-2-6-1m-100 2-1 1h1c1 0 0 0 0 0v-1m285 0-1 1h1c1 0 0 0 0 0v-1m2 3v1l2 1v-1l-2-1m-184 2-6 1 6 1 6-1-6-1m187 1v1l2 1v-1l-2-1m-304 1-1 1c-1 1 0 1 0 0l2-1h-1m-3 3-1 1c-1 1 0 1 0 0l2-1h-1m123 1c-5 0-6 0-6 2-1 1 0 2 5 1 4 0 7-1 7-2l-6-1m-125 2-1 1h1c1 0 0 0 0 0v-1m-2 1-2 1v2l1-2 1-1m-3 3-2 1v2l1-2 1-1m137 0c-7 0-9 0-10 2-1 1 0 2 9 1 6 0 9-1 10-2l-9-1m-143 6-2 1 1 1 1-2m149 0-10 1 1 2 8 1 9-1 1-2-9-1m-152 3-2 1 1 1 1-2m-4 3v1h2l-2-1m163 1-11 1 1 2h12c9 0 10 0 9-1 0-2-2-2-11-2m-167 6c-3-1-4 0-3 1l3 2 3-2-3-1m348-1-1 1h2l-1-1m3 2-1 1h1c1 0 0 0 0 0v-1m-349 5c-6 0-7 0-8 2-1 1 0 1 7 1l8-1c0-1-3-2-7-2m352 4-1 1 1 1v-2m-348 2-6 1 1 2 6 1c3 0 5-1 5-2s-2-2-6-2m350 1v1c0 2 1 2 1 1l-1-2m-346 6-6 1v2h7l4-2-5-1m-39 2-1 1h2l-1-1m-2 2-1 1v1l1-1v-1m44 2-6 1-1 1 6 1c4 0 6-1 6-2l-5-1m-47 1-1 1v1l1-1v-1m398 1-1 1h1c1 0 0 0 0 0v-1m-401 2-1 1h1c1 0 0 0 0 0v-1m-3 3-1 1h1c1 0 0 0 0 0v-1m410 7-1 1h1c1 0 0 0 0 0v-1m-418 1-1 1h1c1 0 0 0 0 0v-1m-3 3-1 1h1c1 0 0 0 0 0v-1m-2 2-1 1v1l1-1v-1m429 6-1 1 1 1v-2m3 3-1 1 1 1v-2m-228 2c-5 0-5 0-4 1s2 2 5 2l4-1-5-2m-210 0-1 1 1 1v-2m219 6-16 1 1 2 15 1c12 0 15-1 15-2l-15-2m-221 3-1 1h2l-1-1m-1 2-1 1 1 1v-2m442 1-1 1h1c1 0 0 0 0 0v-1m-208 1c-13 0-15 0-15 2s2 1 15 1 15 0 15-1-2-2-15-2m210 1-1 1 1 1v-2m-444 2c-1-1-1 0-1 1l1 1v-2m263 2-15 1c-8 0-13 1-13 2l13 1c12 0 13 0 14-2l1-2m181 1c-1-1-1 0-1 1l1 2v-3m-444 3c-1-1-1 0-1 1 0 2 0 3 1 2v-3m256 3-12 1v1l12 1 12-1c0-2-2-2-12-2m188 1c-1-1-1 0-1 1l1 1v-2m-444 3c-1-1-1 0-1 1l1 1v-2m262 2-12 1 1 2 11 1 12-1v-2l-12-1m182 1c-1-1-1 0-1 1l1 1v-2m-444 3c-1-1-1 0-1 1l1 1v-2m250 0-1 1h1c1 0 0 0 0 0v-1m194 3c-1-1-1 0-1 1l1 1v-2m-177 0-11 1 11 1h10c0-1-4-2-10-2m177 5-1 2h1v-2m-174 1-7 1v2h9c6 0 7 0 6-1-1-2-2-2-8-2m171 3-1 2v1l1-1v-2m-174 4h-1v1l2 1-1-2m176 0 5 5 5 5-5-5-5-5m-440 19-1 1 1 1v-2m0 5-1 1 1 1v-2m-27 3-2 1 1 1 1-2m485 9-1 1h1c1 0 0 0 0 0v-1m2 2-1 1h1c1 0 0 0 0 0v-1m-502 4-1 1c-1 1 0 1 0 0l2-1h-1m-4 4-2 1v2l1-1 1-2m-3 3-2 1v2l1-1 1-2m-3 3-2 1v2l1-1 1-2m515 1-1 1 1 1v-2m-518 2-2 1 1 1 1-2m518 4-1 1 1 1v-2m0 6-1 2h1v-2m0 6-1 2h1v-2m3 4-1 1h1c1 0 0 0 0 0v-1m1 2v1l2 1v-1l-2-1m-529 5-1 1h1c1 0 0 0 0 0v-1m455 5-8 1-1 1 8 1c5 0 7-1 8-2l-7-1m-419 1v1l2 1v-1l-2-1m-19 1 1 1 1 1-1-1-1-1m1 3-1 1h1c1 0 0 0 0 0v-1m457 0-12 1c-6 0-10 1-10 2l10 1c9 0 10 0 11-2l1-2m-478 6-1 1h1c1 0 0 0 0 0v-1m15 0-1 1h1c1 0 0 0 0 0v-1m32 1-1 1h1c1 0 0 0 0 0v-1m428 0c-14 0-16 0-16 2l15 1 16-2-15-1m-472 3c-1-1-1-1 0 0l2 1-2-1m455 0-1 1h1c1 0 0 0 0 0v-1m21 3-16 1v2l15 1 17-1 1-2-17-1m-17 4-1 1h1c1 0 0 0 0 0v-1m23 3-20 1 20 1 20-1-20-1m31 5a700 700 0 0 1-47 3l22 1c22 0 23 0 24-2l1-2m-464 1-1 1h1c1 0 0 0 0 0v-1m476 5a946 946 0 0 1-56 3l27 1c27 0 28 0 28-2l1-2m-312 4v1h2l-2-1m318 2 2 2c1 1 1 1 0 0l-2-2m-32 1-31 1 1 2 30 1 31-1v-2l-31-1m-449 2-1 1h1c1 0 0 0 0 0v-1m485 4a1196 1196 0 0 1-63 3l30 1c30 0 31 0 32-2l1-2m-313 4-1 1h1c1 0 0 0 0 0v-1m315 2a1314 1314 0 0 1-66 3c0 1 5 2 33 2h33v-5m-313 1-1 1h1c1 0 0 0 0 0v-1m-177 3-1 1h1c1 0 0 0 0 0v-1m457 3c-32 0-33 0-33 2s1 2 33 2 33 0 33-2-1-2-33-2m-223 6-3 1 1 2 2 1 2-2c0-1 0-2-2-2m224 0-30 1v2l30 1c24 0 28-1 28-2l-28-2m-275 2v1l2 1v-1l-2-1m3 3v1l2 1v-1l-2-1m49 2-8 1 8 1 8-1-8-1m222 0-29 1v2a423 423 0 0 0 58-2l-29-1m-268 1v1l2 1v-1l-2-1m-200 1-1 1h1c1 0 0 0 0 0v-1m170 2-1 1h1c1 0 0 0 0 0v-1m-173 1-1 1h1c1 0 0 0 0 0v-1m208 0-1 1h1c1 0 0 0 0 0v-1m259 1c-28 0-30 0-29 1 1 2 3 2 30 2l29-1c0-1-11-2-30-2m-216 0-12 1v2h12l11-1c0-1-5-2-11-2m-254 2-1 1h1c1 0 0 0 0 0v-1m214 0-1 1h1c1 0 0 0 0 0v-1m288 1-1 1h1c1 0 0 0 0 0v-1m-505 2-1 1h1c1 0 0 0 0 0v-1m505 0-1 1h1c1 0 0 0 0 0v-1" class="yak"/><path d="m377 0-2 1-3 4-3 4c1 0 3-1 5-4l4-4-1-1m309 3-1 1-1 2 1 2h2l1-3-2-2M367 13l-1 2-2 4c-2 1-2 2-2 9s1 8 2 8l2-8c0-6 0-9 2-10l1-3-2-2m322 0-1 4 1 5 1-5-1-4M486 25l-3 2-2 5-2 2-1 3 1 3 2-2 1-3c0-1 1-1 3 2l3 4 2 3 1 3 2 4 4 2 8 6 6 6c1-1-4-6-9-12l-11-12-2-3c-2-1-2-2-2-7l-1-6m35 13c-1 0-2 1-2 3l-2 3v2l3 1c1-1 2-2 2-5l-1-4m-69 3c-2 0-2 1-2 5l1 6c1 1 2 0 2-1 2-1 2-1 4 1l2 4c0 3 0 3-5 3l-6 1-1 2h6c5 1 5 1 6-1 0-2 1-2 6-2 4 0 6 0 7 2l8 1 7-1-4-4-4-3-1 3c0 2 0 2-3 2l-3-1 2-2v-2l-3-1-5 2h-3l-3-2-1-1-1-2-2-1-1-2-2-3-1-3m100 0-2 1 2 1 1-1-1-1m-185 3-1 2 1 1 1-2-1-1m182 4h-1v2l2-1-1-1m6-1-1 1v2c1 0 2 1 2 3 0 3 0 3-4 3-3 0-5 0-5-2-1-1-1-1-3 1h-3c-1-2-3-2-8-2-6 0-8 0-8-2h-2v2l2 3 2 4 4 2 4 2 5 2 3 1-2 2-3 1c0 1 2 2 9 2l9 1c0 1 1 2 3 2l3 1 3 2 3-1-1-3-7-2c-3 0-4-1-4-2l-2-1-5-3-2-4c1-2 1-3 4-3l5 1 5 2c3 0 4 1 11 8l9 8c2 0 3 1 3 3l2 3 2-2 7-1 5 1c0 1 1 2 3 2l3-1-3-2-3-2-7-1c-4 0-5-1-6-2l-2-1c-2 0-4-2-5-3-1-2-4-3-5-3s-5-3-9-8l-7-9-1-2-2-2-1-1m-182 5-3-1-1 1 2 1 1 3c0 2 1 3 2 3l1 1 4 5 6 4 3 2 4 1 5 1 3 2c2 1 2 1 3 9l1 9c1 0 2-3 2-7v-7l13-1h13l4 3 4 3-1-3v-3l2-3-2-3-1-2 7-1c6 0 7 0 9 2l2 3-2 1-1 2 2 1 1-2 3-1 3-1-2-2-1-4-1-2-2 1-2 2-1-2-3-1-3-1-5-2c-4-1-5-1-5-3l-1-3-3 2-2 4 1 2 2 3 1 4 2 2-15 1c-13 0-15 0-16-2l-5-1c-3 0-4-1-5-2l-4-1c-3 0-4-1-6-3l-4-3c-2 0-4-1-5-3l-2-4-2-4m141-2-1 3 1 3 1-3-1-3m175 3-1 4 1 5 1-5-1-4m-154 3-6 1-1 1 4 1 5 2 4 2 2-1c1-1 1-2-1-2l-1-2c0-2-1-2-6-2m-99 7-1 1v1h1l1-1-1-1m31 6c-3 0-4 0-4 2s1 1 4 1l4-2-4-1m219 0-2 2v3l2 1 1-2 1-3-2-1m-150 3-1 1v1l1 1 1-1-1-2m-66 3h-7v3c0 3 0 3 2 3l3 1-1 2-1 10-1 9-2 2 1 1 2-2c1-1 1-1 4 2l6 3 6-2 2-4 2-3 1-7v-8l-5-5-5-5h-7m61 1h-2v2l2 2 1 4 3-1 4-2 2-1c0-2-1-2-5-2-3 0-5 0-5-2m17-1-7 1 2 2v3c-2 0-2 2-2 11v10l4 3c2 3 4 4 7 4l4-2 3-1c2 0 3-1 3-2l2-4 2-5 2-6 5-2 2-1c-1-1-3-2-7-2-5-1-6-1-6-3s-1-3-3-3l-3-2-8-1m135 4h-2v4l2 1 1-2-1-3m-230 3h-2l-1 1 2 1 1 2 3 1 4-2 2-3-2-1-4 2-1 1-2-2m26 4-3-2-2 2-2 5 2 4 3 2 2-2 2-5-2-4m74-2-2 1-1 6c0 4 0 6-2 6v2h1l4-2 4-2 2-5-2-4-4-2m-111 4-1 2 1 3 2-2-2-3m238 0-2 1 2 1 1-1-1-1m-97 3-1 1v1h1l1-1-1-1m-160 3-1 2-2 4c-1 2-1 2 1 4l3 1 1-6-2-5m254 0-1 1v1h1l1-1-1-1m-269 3-1 1v1l1 1 1-1-1-2m37 0-1 4 1 5 1-5-1-4m25 0-1 1 1 1 1-1-1-1m110 0-3 2-2 4-1 3-2 2 4 1 5-1 4-2 5 2 3 1 1-4-1-5-2 1c-1 1-2 2-5 2l-5 2h-2l-1-3 2-2 1-2-1-1m94 4-4 3-4 6-9 10-10 8-4 3c-1 2-4 3-5 3l-4 2-4 2-2 2-1 1-2 2-3 1-3 2-11 1c-8 0-10 0-11 2l-3 1c-2 0-3-1-5-3l-4-3-5-2-2-6 1-5c1 0 2-1 2-3s1-2 12-3c10 0 12 0 13-2l4-1c4 0 5-1 8-4l4-4-1-1-2 2-1 1-2 2-4 1c-4 0-5 1-6 2l-10 1-11-1 3-4 3-6-1-2-8 7c-6 7-7 8-6 9 2 1 2 1 1 3l-2 4-2 2-6 3-5 4-4 3c-1 2-4 3-5 3l-4 3-5 3-3 1-2 2-4 1-5 2-5 2 6 1c5 0 6 0 8-3l5-3 3-2 3-1 3-2 3-1 5-3 4-3 1 4 1 2 2-4 2-6 3-2 1 2 2 5 5 2 2 1c0 1-1 2-3 2l-3 2 2 4v3l-2 2 2 1 1-2 3-1 6-3 4-3 3-2 14-1 14 1c1 1 3 2 7 2l5 1 4 2 3 1 2 2 20 18a135 135 0 0 1 20 23l1-2c1-2-1-4-7-10l-8-10-5-7-8-5-6-5-7-5-3-2-3-1-3-2-4-1-6-2-2-3 2-2 5-2c3 0 4-1 8-5 3-4 6-5 7-5 2 0 3-1 3-2l1-1 2-2 1-1 2-2 1-1 6-6 6-7c0-1 1-4 3-5s3-3 2-3m-263 2-1 1v2l2 2 1 4 4-2 2-3-3-1c-2 0-3-1-3-2l-2-1m125 0-1 1v1l1 1 1-1-1-2m32 1h-1l-1 2 2-1v-1m-74 5-3 1c0 1 1 3 4 5l4 3 1-1-1-1c-1 0-2-1-2-3 0-3-1-4-3-4m130 1h-1l-1 1 2 1 1-1-1-1m-197 3c-1 0-2 1-2 3l2 3 1 2 1 4c1 0 2 1 2 3s1 2 3 3l3 1 3 2c2 0 4 1 5 3 3 3 4 4 7 4l4 1c1 2 2 2 6 2 5 0 6 0 8 2s2 2 1 3l-2 3-8 1-8 1-2 2-4 1-4 2-5 1-3 2-3 2-4 2-3 1-3 2-3 1c0 1-1 2-3 2-1 0-4 1-7 4-3 4-5 5-7 5-3 0-4 1-6 3l-5 3-5 3-4 4c-1 0-5 2-7 5-4 3-6 7-6 8s0 2-2 2l-6 3-5 4-4 2-2 3 3 1 3 1-3 2-2-2-2-1-4 3-7 8-4 4h3c2 0 4-1 7-5l5-4h7c4 0 7 1 7 2l-8 1-8 1 2 2 1 3 2 4 1 2 3 5c2 2 2 2 3 0l7-1 5 1-6 2c-6 0-6 0-6 3l-3 5c-2 1-3 3-3 5s-1 3-2 3l-1 1-2 2-1 1 1 1 10-9c8-8 10-9 13-9l4-2 21-1 20 1 1 2 2 2-3 1-3 2 2 1 5-3c2-2 4-3 7-3s4-1 4-2l1-1 2-2 6-1c4 0 6-1 6-2l10-1 10 1c1 1 3 2 8 2l7 1 3 2c2 0 3-1 3-2l-3-1c-2 0-3-1-3-2l-6-1-6-2-12-1-10 1c0 1-2 2-6 2l-6-2-3-1-1-2-2-1-1 1 1 1c1 1 2 2 2 5v5h-8c-5 0-7-1-8-2l-18-1h-18l-5-6-5-7-5-6c-5-4-5-5-5-9 0-3 0-3 2-3 1 0 4-2 6-5 3-2 5-5 5-6l3-5 6-3 2-2 3-1 6-4 5-3 3-2 3-1 3-2 3-1c1 0 4-2 6-5 4-3 5-4 8-4s4-1 6-3l4-3 4-2c2-2 3-2 7-2s6-1 6-2l3-1 3-2 6-1c4 0 6-1 6-2l7-1 6 1c0 1 2 2 5 2l5 1c0 1 1 2 3 2l3 1-3 2c-2 0-3 1-3 2l5 2c4 0 6-1 6-2l2-1 2 2v3l3-1 8-2 7-1c1-1-1-1-6-1-6 0-7-1-9-2-1-2-3-2-7-2s-5-1-6-2l-3-1-3-2-4-1c-4 0-5-1-7-3l-4-3c-1 0-7-5-12-11-6-5-10-11-10-12l-2-2-1-5c0-3-1-4-2-4l-1 4 1 4 2 3 1 3 2 3 1 4 1 2-4 2c-2 0-4-1-6-4-1-2-4-3-5-3l-4-3-4-3-1-3c0-2-1-3-2-3l-1-3-1-3m80 12-12 1-1 1 9 1 9 2-1 1-2 2-1 1-1-2-3-1c-3 0-3 1-4 3 0 3 0 3 4 3 3 0 5-1 9-5l5-6-11-1m57 28-1 3 1 3 1-3-1-3m22 0-1 1v1l1 1 1-1-1-2m-25 10-3 2-2 5-2 2-1 2c1 1 2 0 4-1l2-5 1-2 2-2-1-1m16 3-2 1 2 1 1-1-1-1m-138 3-1 9 1 9 1-9-1-9m55 0h-6v9h4l4 1-4 2-4 2 6 1 6 1-2 2-6 1h-4v7l1 8 2-2 2-1 1-2 6-1 6 1-6 2c-6 0-6 0-6 3l1 3 2-2 10-1 9-1-6-7c-5-4-7-7-7-8l-1-3c-2 0-2-2-2-8v-7h-6m94 0-4 1c0 1-1 2-3 2l-3 2h-3c-2-2-2-2-4 1l-5 3c-2 0-3 0-3 3l1 3 3-3 6-3c3 0 4-1 5-2l3-1 3-1c0-1 1-2 3-2s4-1 3-2l-2-1m46 0-2 1 1 3 5 2c2 0 3 1 3 2l2 1 1 3 1 3c1 0 2 1 2 5l2 5 1-5-1-5-2-2-5-8-8-5m-161 3-4 1-3 2-3 1c0 2 1 2 4 2l5-1 3-2 2-2-4-1m21 0-3 1c0 2 1 2 3 2l2-1-2-2m-36 6-5 1-3 2-3 2 4 1 5-1 4-2 2-1c0-2-1-2-4-2m25 4h-2v5l2 3 1-4-1-4m79 3h-1l-1 2h2v-2m12-1c-3 0-4 0-5 2l-4 2-3 2-3 1-3 2-3 1-3 2-3 1-6 4-3 6 1 2 6-6 8-6 3-1 4-2 5-1 3-2 4-2 3-2 3-1-4-2m-104 7-1 2-1 1-3 2-2 5 1 2 3-2 2-5 2-2 1-2-2-1m27 0-6 1 6 1 6-1-6-1m-55 3-1 4 1 5 1-5-1-4m210 4h-2v5l2 3 1-4-1-4m37 2-1 2 2 1 1 3 2 4 3 2 1-1-1-2-2-2-2-5-3-2m-228 3-1 1-1 2-2 4-1 3 2 2 1-3c0-2 1-3 2-3l1-3-1-3m57 0-2 2-10 1-9 1 1 2 2 4c0 2 1 3 3 3l5 3c2 2 3 3 6 3l5 2 5 1 4 2 2 1 1-4c0-3 1-5 2-5l1-3 2-3 1-3-6-1c-5 0-6 0-8-3-1-2-3-3-5-3m-35 4h-1l-1 7 1 4c1 0 2-2 2-5l-1-6m-19 3h-1l1 2 1-1-1-1m49-1-10 1 1 2 8 1 9-1 1-2-9-1m89 0-4 1-1 1 3 1 3 2-1 2-2 2-3 1-3 2-5 1c-3 0-4 1-5 2l-3 1c-2 0-3 1-3 2l-3 1c-2 0-3 1-3 2l-3 1-3 2-7 1-6 2 7 1 9-1 4-2 2-1 3-2 3-1 3-2 3-1c1-1 2-2 5-2s4-1 9-5c4-4 5-7 5-8 0-2-1-3-4-3m-210 1-1 4c0 3 1 4 2 5l1 2 4 6 5 4-3-4-3-5-1-3-2-4c0-3-1-4-2-5m100 0-1 2 2 4 1 2 2 5 3 1c1-1 0-1-1-2l-1-3-2-3-1-3-2-3m101 3c-4 0-5 0-5 2l4 1c3 0 5-1 5-2l-4-1m-126 3-1 6 1 6 1-6-1-6m54 0-11 1v1l11 1 10-1c0-2-2-2-10-2m64 0-4 2-2 1-4 2-3 1-4 2-2 3 3 1 4-1 2-2c2 0 3-1 5-3l4-3 3-2-2-1m114 0c-1 0-2 1-2 3l2 3 1 3 2 3 1 2 2 4 1 3 2 3 1 3c0 2 2 4 4 5l3 6 2 2 1 3c0 2 1 3 2 3l1 4 2 3 1 2 1 3 2 4 2 2c1 1 1 0 1-2l-1-3c-1 0-2-1-2-3l-1-3c-1 0-2-1-2-3l-1-4-2-3-1-3-2-3-1-3-2-3-2-4-4-2-1-3-1-4-2-3-1-3-2-3-1-3c-1 0-2-1-2-3l-1-3m-213 6-2 1v5l2 3 1-4-1-5m166 1h-2v4h2l1-2-1-2m-228 3h-1l-1 3 2 2 1 3c0 2 1 3 2 3l1-2-1-4-2-2-1-3m34 6h-2v4l2 1 1-2-1-3m32 0c-2-1-2-1-2 2 0 2 1 3 2 3l1-2-1-3m37 0h-1l-1 6-1 5-2 3-4 1c-4 0-5 0-7 3-1 2-3 3-5 3l-3 2c-1 1-1 1-4-2-3-2-4-3-7-3s-4 0-4 2l2 1 6 4c3 3 4 4 4 9l1 5 2-5c0-5 0-6 3-8l3-4 3-1c2 0 3-1 3-2l3-1c2 0 3-1 3-2l6-1c4 0 6-1 6-2l5-1c3 0 5-1 5-2l5-1 4-2c1-1-1-1-4-1l-4 1c0 1-2 2-5 2l-5 1-4 2c-2-1-2-1-2-6l-1-6m122 0h-1l-1 3 2 2 1-2-1-3m-185 0-1 1 1 1 1-1-1-1m-105 2-6 1 1 2 6 1c3 0 5-1 5-2s-2-2-6-2m-26 4-2 2-2 1-1 2-3 1c-2 0-3 1-3 2l-1 1-2 2-1 1-9 9-9 9-1 1-2 1 1 1 13-11 14-13 5-4 4-4-1-1m159 0-1 2 2 5 3 1v-2l-2-3-2-3m-129 3-6 1v2h7l4-2-5-1m49 21c0-3-1-3-2-2l-1 3-4 6c-3 3-5 5-5 7l-1 2-2 3c0 2-1 3-2 3l-1 4 1 3 2-4c0-2 1-3 2-3l1-2c0-2 1-4 3-5l3-5 3-5c2-2 3-3 3-5m240-2h-1l-1 3-1 3c-1 0-2 1-2 3l-1 3c-1 0-2 1-2 3l-2 4-4 2-4 3-3 3h3c2 0 4-1 8-5l5-8 1-2 2-3 1-3 2-3-1-3m-357 15-1 3 1 3 1-3-1-3m51 1h-2v2l2-1v-1m161-1c-5 0-6 0-9 4-3 3-4 4-4 8l-1 4-3 2-2 4 1 3 3-2 2-5c0-2 1-2 3-2l3 2 3 1c2 0 3 1 3 2l3 1 4 2 4 1 5 2 3 1 4 3c1 2 4 3 5 3l4 3 3 4 6 8c5 5 6 6 4 7l-1 4 1 2 2-1 4-2c4 0 5-1 8-4l4-4-8-1-8-2 7-1 8 1 3 2 4-2 6-1c5 0 5-1 9-5 3-3 3-4 2-4l-1 1c0 1-1 2-3 2l-4 1-5 2c-2 0-4-2-14-11l-11-11-2 1c0 2-2 2-14 1l-13-1 14-1c11 0 14-1 14-2l-3-1-5-3-4-3-4-2-3-2-3-2-3-1-3-2-7-1c-4 0-6-1-6-2l-5-1m-3 3-4 1 5 2 4-1c0-1-2-2-5-2m123 1h-1l-1 3 2 2 1-2-1-3m-284 3h-2v2l2-1v-1m170 2-16 1 1 2 15 1c12 0 15-1 15-2l-15-2m-221 4-1 15 1 15c1 0 2-6 2-15 0-11-1-14-2-15m47 0-1 1 1 1 1-1-1-1m284 0-1 3-1 3-2 2-1 1c-1 0-2 1-2 3 0 3 0 3-3 3l-4 2-3 1-3 1-4 2c-3 0-4 1-5 2l6 1c4 0 6 0 7-2l2-3 3-1 5-2 2-5c0-1 1-2 3-2s4 1 5 3l4 3 3 2 3 1 3 2 4 1h3l-2-3c-1-2-3-3-5-3l-3-1c0-1-1-2-4-2l-6-2c-2-2-2-2 0-4l3-3 1-2-1-1-2 2-1 1-1-1-3-2m-98 3c-13 0-15 0-15 2s2 1 15 1 15 0 15-1-2-2-15-2m208 0-1 1-1 17-1 16-7-6c-3-4-6-6-7-6l7 9 8 9 6 8c4 3 7 7 7 8l1 2 2-2-1-3-2-2c0-2-2-5-6-8l-6-6-1-1 1-2c2 0 2-3 2-17l-1-17m-397 3-1 1v1l1 1 1-1-1-2m31 0-1 2-4 1c-4 0-5 1-7 2l-1 3 3 1 2-1 3-2 5-2 1-3-1-1m25 0-1 3-1 3c-2 0-2 1-2 5l1 4 2-4c0-3 1-5 2-5l1-3-2-3m210 4h-1v2l2-1-1-1m-269 2-2 1v5l2 3 1-4-1-5m107 0-2 2-5 1c-3 0-4 1-6 3l-5 3-3 2 3 1c2 0 3-1 3-2l3-1 3-2 5-1 6-2 1-3-3-1m46 0-3 2-2 5-1 2-2 2 2 1 1-1 1-2 3-2 2-4-1-3m61 3-12 1v1l12 1 12-1c0-2-2-2-12-2m52 1h-1l-1 2 2-1v-1m-46 5-12 1 1 2 11 1 12-1v-2l-12-1m-223 4c-2 0-2 1-2 9l2 9 1-9-1-9m56 0-2 1v5l2 3 1-4-1-5m91 0-3 2-2 5-1 2-2 2-3 1c-3 0-3 0-3 3l1 3 7-7 7-9-1-2m81 3-11 1 11 1h10c0-1-4-2-10-2m-163 6-1 3 1 3 1-3-1-3m194 0-1 2 2 1 1 2 2 1 1 2 2 1 1 2 2 1 1 2 2 1 1-1-7-7-7-7m-206 3-2 1v5l2 3 1-4-1-5m175 4h-1v1l2 1-1-2m-100 2c-3 0-4 1-5 2l-8 1c-7 0-9 0-10 2-2 2-4 2-7 2-4 0-6 0-6 2l-9 1c-6 0-9 0-9 2l-5 1c-4 0-5 0-5 2l-6 1h-7v-4l-1-5c-2 0-2 1-2 4s1 4 2 5l1 2-10 1c-6 0-8 0-8 2l10 1 11-1c1-1 2-2 5-2l5-1 4-2 5-1c0-2 2-2 11-2l11-1c0-2 2-2 5-2 4 0 6 0 7-2 2-2 4-2 9-2l7-1c0-2 1-2 4-2s5 0 5-1c0-2-1-2-4-2m-125 4-2 1v4l1 3 2-4-1-4m328 0-1 1 1 1 1-1-1-1m-112 3-2 2-1 1-2 2-1 1-2 2-1 1-13 12a122 122 0 0 0-12 13l-2 2 1 1 2-1 2-2 13-10 10-12c0-1 2-4 5-6l4-5-1-1m60 0-6 1 7 7 8 7 1 2 2 1 1 2 2 1 1 2 2 1 1-1-4-5c-3-2-5-5-5-6l-1-3-2-2 6-1c4 0 6 0 6 2l3 1c2 0 3 1 3 2l3 1 4 2 4 1 5 2 3 1 3-1-2-3-6-2-4-1-6-2-4-1c0-1-1-2-3-2l-3-1c0-2-1-2-5-2l-7-1c-1-1-3-2-7-2m55 0-1 1a182 182 0 0 0 24 23l-11-12-12-12m-369 9-1 4v4l-14 1c-10 0-13 0-14 2l-3 1-3 2c-1 1-1 1 1 1l4 1 1 2-2 1-4-1c-2-2-2-2-4 0-2 1-3 2-3 4l-8 10-8 9-2 3-1 5 2 4 1-3c0-2 1-2 5-3l5-1 4-2 5-2 6-2 4-1c1-1 1-2 3-2l2-1-2-2-3 2-6 1c-5 0-6 0-7 2l-3 2c-2 0-3 1-3 2l-3 1c-2 0-3-1-3-3l3-6c4-3 5-4 10-4l5-1c0-2 1-2 6-2l7-1 3-2 3-2-3-1c-2 0-3 1-3 2l-6 1c-4 0-6 1-7 2l-2 1-3-1 1-3 6-2 4-1 5-2c3 0 5-1 5-2l-3-1-2-2 21-2 21-1c0-1-3-2-8-2h-7v-4l-2-5m41 0-2 2v3l2 1 1-3-1-3m3 6-1 3v3h7l8-1c1-1 2-2 5-2l4-1c0-2-1-2-5-2s-6 1-7 2l-5 1-4-1-2-2m410 1h-1l-1 4c0 3 0 4 2 4l1-4-1-4m-424 5c-10 0-12 0-12 2s2 1 12 1 12 0 12-1-2-2-12-2m305 4-2 1 4 4 4 4 1-1-1-2-2-1-1-2-2-1-1-2m59 0-1 1 3 3c2 1 3 3 3 5l5 6 4 6c0 1 2 4 5 6l4 4v-3c0-2-1-4-6-8l-6-8-5-7-6-5m63 3c-2 0-2 1-2 3l2 2 1-2-1-3m-113 6-1 2 2 1 1 2 2 1 1 1 8 9 9 9 1-1-1-2-2-1-1-2-2-2 1-3h2l7 1 6-1c0-1-2-2-5-2l-5-2-4-1-5-1-5-2c-3 0-4-1-6-3l-3-3m-129 3c-2 0-4 1-5 3s-4 3-5 3l-3 1-3 2-3 2 3 1 3-1c0-2 1-2 4-2s5-1 8-3l3-5-2-1m233 4h-1l-1 2 2-1v-1m12 0h-1l-1 8c0 4-1 6-2 7l-1-3-1-3-2 2c0 1 1 4 3 5s3 4 3 5l3 4c2 1 3 4 3 5l2 3 2-1-2-5-4-3-1-12-1-12m-9 6h-1l-1 1 2 1 1-1-1-1m-266 3c-9 0-11 0-11 2l-17 1c-14 0-17 0-18 2l-16 1c-14 0-17 0-18 2l-13 1c-9 0-11 0-12 2l-9 1c-7 0-9 0-10 2l-6 1c-4 0-5 0-6 2l-4 1c-3 0-4 1-7 3l-2 3h3l4-1 3-2 3-1c0-2 2-2 6-2h6v4l2 5 1-4-1-5-2-2 6-1c5 0 6 0 7 2 1 1 1 1 4-2l3-3h13l14-1c1-2 4-2 16-2l15-1c0-2 3-2 17-2l18-1c0-1 1-2 3-2l3 1-1 2c-1 0-2 2-2 5l-1 5c-1 0-2 1-2 3l-1 3c-1 0-2 1-2 3l1 2 2-3 2-3 1-3 2-3 1-3 1-3 2-3c1-2 1-2 6-3l6-1c1-2 0-2-10-2m195 0-3 1 2 3 5 2 2 2 3 1c2 0 4 1 5 3 2 2 3 3 5 3s3 1 3 2l2 1 1 2 2 1 1-1-7-7c-6-7-7-7-11-7l-4-1-2-3-4-2m-409 6-3 1c0 2 1 2 3 2l2-1-2-2m448 0-1 2 2 1 1 3 1 3 2-2-2-5-3-2m-457 3c-4 0-6 1-7 2l-3 1-3 2-4 1-2 2 4 1 5-1 3-2 3-1 5-2 4-1c0-2-1-2-5-2m407 0-1 3 5 7 6 5 1-1 2-2 1 2-2 2-1 2c0 2 1 4 3 5 1 1 3 3 3 5l3 5 4 5 1 3 2 4 1 5 2 3 1 3c1 1 2 2 2 5l1 5 2 4v4h34l35-1-1-3h-3c-1 2-3 2-31 2l-30-2 31-1h31v-3l-2-3-2-4c0-3-1-3-3-3l-4-2-2-1-3-2-4-1-3 1c0 2-3 2-23 1l-22-1 23-1 23-1-6-7-7-5-3-2-4-1-4-3-5-3-3-2-3-1-4 1c0 1-2 2-11 1-6 0-10 0-9-1l10-1 11-1-2-3c-1-2-4-2-6-2l-4-2-3-1-4-2c-1-2-3-2-5-2-3 0-4-1-5-2l-2-1-7-5-4-4m-184 4h-1l-1 4 1 4 2 3 2 3 1-2-1-4-2-4-1-4m-244 5-3 2-1 3 3-1 2-3-1-1m27 7c-8 0-10 1-11 2l-2 3-3 1c-2 0-3 1-3 2l-1 1-3 2-2 3 3 1c2 0 3-1 3-3s1-3 3-3l3-1 2-2 4-1 6-2 7 2 23 1 23-1 8-2 8-2-7-1c-7 0-8 0-8 2l-22 1-22-1c0-2-2-2-9-2m104 0-1 4 1 4 2-4-2-4m397 0-1 2c0 2 1 3 2 3l1-2-2-3m-534 3c-2 0-2 1-2 5 0 5 1 6 2 8l5 2 2-1-3-4c-2-2-3-3-3-6l-1-4m109 0-1 3c0 2 1 3 2 3l1 5 1 4 2-4-1-4-2-4-2-3m348 0-8 1-1 1 8 1c5 0 7-1 8-2l-7-1m-223 3-1 1 1 2 1-1-1-2m22 0-2 2v3l2 1 1-3-1-3m247 0-1 1 1 3 3 2 1-1-1-2-2-1-1-2m-453 3-1 1v1h1l1-1-1-1m6 3-1 1v1l1 1 1-1-1-2m72 0-2 1v6l2 5 1-6-1-6m103 0-1 1v1l1 1 1-1-1-2m28 0-1 4c0 4 0 5 2 5l1 3 2 4 1 3 1 3c0 1 2 1 2 3l1 2 2-2-1-3c-1 0-2-1-2-3l-1-3-2-2-1-4-2-5-2-5m250 0-1 2 2 1 1 2 2 1 1 2 3 1c2 0 3 1 3 2l2 1 1-1-2-3-4-2c-2 0-4-1-5-3l-3-3m-462 4h-1l-1 5 1 3c1 0 2-1 2-4l-1-4m59-1-2 1v5l2 3 1-4-1-5m28 0-1 4 1 5 1-5-1-4m340 0c-14 0-16 0-16 2l15 1 16-2-15-1m64 1h-1l-1 7 2 4 1-5-1-6m-485 3h-2v3l2 2 1-2-1-3m34-1-3 1-1 2 2 4 1 3-2 3v3l2 4 1 2 1-11c1-10 0-10-1-11m141 1h-1v1l2 1-1-2m250 2-16 1v2l15 1 17-1 1-2-17-1m-397 4-2 2 1 3c2 1 2 1 2-2l-1-3m144 0-2 1 1 1 2-1-1-1m300 0-2 1 2 3 3 1 1-1-1-1-2-1-1-2m-475 3c-1 0-2 1-2 3l1 3c1 0 2 3 2 8 0 6 1 7 3 7 3 0 3 0 3-2l-1-4-2-5-1-4-2-3-1-3m53 0-1 1-1 3 2 6 5 2c2 0 3 1 3 2l3 1c2 0 3 1 3 2l2 1 4 1-1 3-2 3-1 3-2 1 1 1h2l6-7 5-4 3 3c3 2 4 3 9 3l5 1c1 1 2 2 5 2s4-1 4-2l-4-1c-3 0-5-1-5-2l-4-1c-3 0-4-1-7-4s-3-3-12-3c-6 0-8 0-8-2l-3-1-3-2-4-1c-3 0-3 0-3-5l-1-4m22 0-2 2v3l2 1 1-4-1-2m6 0-2 1v6l2 5 1-6-1-6m353 0-20 1 20 1 20-1-20-1m-419 3-1 7 1 8 1-8-1-7m50 0-1 2 2 5 4 2 2-1-3-4-4-4m107 0-1 1v1h1l1-1-1-1m312 0-1 3 1 3 1-3-1-3m-315 7-4 3-4 6 1 2 2-3c0-2 1-3 3-3s3-1 3-2l-1-3m280 2a362 362 0 0 0-28 2l28 1 27-1c0-1-4-2-27-2m-227 4h-1l-1 1 2 1 1-1-1-1m-191 0-2 1v4l2 3 1-4-1-4m25 0-1 1-1 7c0 5 0 6-2 8l-3 2-1-3-1-3-2-1-1-2-2 1 2 2 1 2 2 5 3 2 1-1 2-2 1-1 2-2 1-7-1-8m-15 3h-1l-1 1 2 1 1-1-1-1m410-1-31 1 1 2 30 1 31-1v-2l-31-1m-442 4-1 1 2 2 1-1-2-2m8 0-4 2-2 3 5 1c2 0 4 1 7 5l7 4 2-1c0-1-1-2-3-2l-3-1-1-2-2-1-1-2c-1 0-2-1-2-3 0-3 0-3-3-3m143 0-4 3-3 3h-22c-20 0-23 0-23 2s3 1 22 1l24-1 3-2c3 0 4-1 4-3l-1-3m12 0-2 1 1 1 2-1-1-1m53 0-2 1 1 1 2-1-1-1m-222 6-1 1 1 3 3 2 1-1-1-2-2-1-1-2m31 0-1 3 1 3 1-3-1-3m141 0-1 1v2l2 2 2 5 3 2 1-2-1-1c-1 0-2-1-2-3l-2-4-2-2m53 0-1 1v1h1l1-1-1-1m-69 3-1 3 1 3 1-3-1-3m-159 3-1 1v1l1 1 1-1-1-2m10 0-2 2 3 1c2 0 3 1 3 2l2 1 1 2 5 1 4-1-4-2c-3 0-5-1-7-3-1-2-3-3-5-3m56 1h-2v2l2-1v-1m165-1-1 1-1 3-1 2c-1 1-2 2-2 5s-1 4-3 6l-3 5-2 4-8 2c-3 0-5 0-6-2l-2-1-1-1-9-10c-8-7-9-8-9-6-1 2 0 3 6 10 5 4 8 7 10 7l2 2-41 1-43-1-5-2-4 2-20 1h-19l-5-4c-4-5-5-5-10-5-4 0-6 0-6 2l-14 1-14-1-3-2-3-1-4-2-5-1-4-2c-2-1-3-2-3-4l-1-2-2 4c0 4-1 5-2 5l-1 2-3 1c-2 0-4 2-7 5l-4 4H0v122h500l500-1 1-61v-61l-119 1a1194 1194 0 0 1-118-3l2-3 1-3c2-1 2-2 2-7l-1-6h-64l-1 8-1 8-2 3c-1 2-1 2-83 2h-82l-1-2-4-6c-1-2-4-3-5-3l-5-4-4-5-3-5-2-2m225 0-33 1 1 2a505 505 0 0 0 64-2l-32-1m-393 7h-2v2l2-1v-1m170 2-3 1 1 2 2 1 2-2c0-1 0-2-2-2m224 0-30 1v2l30 1c24 0 28-1 28-2l-28-2m-426 4-4 1 4 2c3 0 5 1 5 2l6 1 6-1c0-2-1-2-6-2l-6-1c-1-1-2-2-5-2m28 0-1 1 1 1 1-1-1-1m15 0-4 1 3 2 3 2 4 1 3 2 8 1c6 0 7 0 8 2l4 1 4-1c0-2-1-2-4-2s-5 0-5-1c0-2-1-2-5-2l-7-1-3-2-3-1-6-2m-76 3c-2 0-4 2-7 5l-5 6 37 1 37-1-1-3-5-2-3 2-16 1-15-1c0-1-1-2-3-2l-3-1c0-2-2-2-6-2l-7-1c0-1-1-2-3-2m131 0-9 1 9 2 10 1c1 2 3 2 9 2l9-1c0-2-2-2-9-2l-9-1c-1-2-3-2-10-2m105 0-8 1 8 1 8-1-8-1m222 0-29 1v2a423 423 0 0 0 58-2l-29-1m-220 6-12 1v2h12l11-1c0-1-5-2-11-2m217 0-30 1 30 1h29c0-1-10-2-29-2M1 533c0-17-1-3-1 31l1 31v-62m13-8-5 1v6c0 3 1 5 2 5s2-2 2-5 0-4 3-4l3-2-5-1m22 0-1 1-1 10 1 11 2-1 1-5 1-3 2 1 2 1-2-4c-2-1-3-4-3-5l-1-4-1-2m81 0-1 1c0 1-1 2-5 2l-4 1 2 2 3 2-4 1-5 1 1 2 5 1c3 0 3 0 3 3s0 3-4 3l-4 1c0 1 1 2 3 2 3 0 4 0 6-3l3-4c0-1 1-2 3-2l3-2-3-2c-3 0-3-1-3-3l1-3c1-1 2-1 1-2l-1-1m69 0-1 1 1 3 4 2 1 2 1 1c2 0 2 2 2 6s1 6 2 6l1-5c0-5 0-5-5-11l-6-5m54 0-5 4-3 4 1 1 1-2 1-1 1 6c0 6 0 6-2 7l-2 1 7 1 7-1-2-1c-2-1-2-1-3-10l-1-9m23 0-8 2-1 3 1 1 1-2 7-1h6v3c0 3 0 3-4 3-3 0-4 1-8 4l-4 7 9 1 9-1-7-1-7-1 1-3 5-2 6-3 3-4-2-4c-2-1-3-2-7-2m20 0-3 2c-2 2-2 3-1 4l2 3 2 3 1-2 2-3h3l2 5-1 4-4 3c-1 1-2 2-1 3l5-4c3-3 4-5 4-8l2-4c1-1 1-2-2-4-2-2-2-2-3-1l-4 2-3-1-1-2m38 1-9 8-8 9 3-2 4-3 1 3 1 5 2 1 1-8c0-7 0-7 3-10 2-1 3-3 2-3m75 0-9 8-8 9 3-2 4-3 1 3 1 5 2 1 1-8c0-7 0-7 3-10 2-1 3-3 2-3m12-1-1 1-1 3-2 2v2l1 1 1-1c0-2 1-2 4-2l5 1 1 5-1 4-4 2-1 3c1 1 3-1 5-3 3-3 4-5 4-8l2-4 1-2-6-1c-4 0-6-1-6-2l-2-1m31 0-2 3c0 3-1 3-4 3l-4 1 4 2c3 0 4 1 4 3l-3 6c-2 1-3 3-2 3l5-3 4-6c0-2 2-3 3-3l2-2-2-1c-2 0-3-1-3-3l-2-3m32 1-9 8-8 9 3-2 4-3 1 3 1 5 2 1 1-8c0-7 0-7 3-10 2-1 3-3 2-3m15-1-1 1-1 10 1 11 2-1 1-5 1-3 2 1 2 1-2-4c-2-1-3-4-3-5l-1-4-1-2m147 0-1 1-1 9c0 7 0 9-2 9l-1 2c1 1 2 0 4-1 2-2 2-3 2-11l-1-9m6 0-1 2a57 57 0 0 0 0 19c1 1 2 1 5-3l4-6-2-2-1 3-1 3-2-8-2-8m32 1h-1l-1 4c0 2-1 4-6 9l-6 7 8-6c6-6 7-8 7-11l-1-3m15-1-1 1 1 3 4 2 1 2 2 1 1 6 2 6 1-5c0-5 0-5-5-11l-6-5m78 0-2 3c0 3-1 3-4 3l-4 1 4 2c3 0 4 1 4 3l-3 6c-2 1-3 3-2 3l5-3 4-6c0-2 2-3 3-3l2-2-2-1c-2 0-3-1-3-3l-2-3m57 1h-1l-1 4c0 2-1 4-6 9l-6 7 8-6c6-6 7-8 7-11l-1-3m37-1-3 2c-2 2-2 3-1 4l2 3 2 3 1-2 2-3h3l2 5-1 4-4 3c-1 1-2 2-1 3l5-4c3-3 4-5 4-8l2-4c1-1 1-2-2-4-2-2-2-2-3-1l-4 2-3-1-1-2m28 0-1 1c-1 0 0 2 2 3 1 1 2 2 3 1l-1-3-3-2m28 0-2 2v6c0 2 1 3 2 3s2-1 2-5l-2-6m-851 3-9 1v2l4 1 1 1-3 1-3 2 3 2c3 0 3 1 3 4v4h12l-4-2c-3 0-4-1-4-3 0-3 0-3 3-3l5-1 1-2-5-1-4-1 4-2 4-1-8-2m25 0-10 1 1 2h8l7 1v12h-8c-4 0-7 1-7 2l9 1h9v-18l-9-1m72 0-7 1 1 2h7l4-1c0-1-2-2-5-2m353 0-10 1 1 2h8l6 1v12h-7c-4 0-7 1-7 2l9 1h9v-18l-9-1m25 0-10 1v10l1 8h18v-18l-9-1m25 0-10 1 1 2h8c4 0 7 1 7 2l-8 1-8 2 2 1 8 1 6 2-1 1-2 1c0 1-2 2-5 2l-4 1 3 2c4 0 5-1 8-4 4-4 4-4 4-9l-1-6h-8m50 0-6 1v2h7l4-1c0-1-2-2-5-2m120 0-4 1v1l4 1 4-1c0-2-1-2-4-2m52 0-6 1v2h7l4-1c0-1-2-2-5-2m53 0-9 1-1 4 1 4c1 0 2-1 2-3 1-3 1-3 7-3h6v5l-1 5-2 1c0 1-1 2-3 2l-3 1 2 2c2 0 3-1 6-4 4-4 4-4 4-9v-6h-9m44 3-3-2c-1 0 0 2 2 3l3 2-2-3m-711 1h-1l-1 3-1 2-2 2-1 2-3 1-4 2-4 1s1 2 3 2c3 0 4-1 9-6l6-7-1-2m367-1-7 1v7l1 5h12v-12l-6-1m258 1h-1l-1 3-1 2-2 2-1 2-3 1c0 1-2 2-5 2l-3 1s1 2 3 2c3 0 4-1 9-6l6-7-1-2m-660 0-2 2c-2 2-2 2-1 3l1 5 1 5 2-1 1-5c0-3 0-3 3-3l3 2-1 1-2 1 1 1s2 0 3-2l2-4c0-2-1-3-4-3l-5-1-2-1m44 3h-2v7l1 4c1 0 2-2 2-5l-1-6m433-1-6 1 1 2 5 1c3 0 4-1 4-2 1-1-1-2-4-2m67 1h-1l-1 7 2 4 1-5-1-6m53-1-5 1 1 2 5 1 3-2-4-2m13 1h-1l-1 3-1 3-2 2-6 1-6 2 5 1c5 0 5 0 9-4l4-6-1-2m-410 2-4 1-1 5c1 3 1 3 5 3s5 0 5-3l-1-5-4-1m0 4-1 1 1 1 1-1-1-1m275 0-7 1v1l7 1c6 0 8 0 8 2l2 1c1-1 0-2-1-3-2-3-3-3-9-3m303 3-1 2 1 1 1-2-1-1m-903 6-2 1-3 2-2 1 2 2c2 0 2 1 3 6 0 5 0 6-2 7l-1 2c1 1 2 0 4-2s3-4 3-8 1-5 3-5 2 1 3 7l-1 6-2 1 1 1s2 0 3-2c2-2 2-3 2-9v-7h-5l-5-2-1-1m30 0c-5 0-6 0-9 4l-3 4 1 1 1-1 2-2 1-2 5-1c4 0 5 1 5 3l-5 7-8 6-2 1s0 2 2 2l9-7c6-7 7-8 7-11s0-3-6-4m72 0-10 1 1 2h8c6 0 7 1 7 3l-4 6-5 4-1-2-1-1-1 1 4 4c2 3 3 4 4 3v-2l-2-1 4-6c4-4 5-5 5-8l-1-3-8-1m48 0-1 1-1 10 1 11 2-1 1-5 1-3 2 1 2 1-2-4c-2-1-3-4-3-5l-1-4-1-2m25 0-1 1 1 3c2 1 3 2 4 1l-1-3-3-2m122 0-1 1-1 3-2 2v2l1 1 1-1c0-2 1-2 4-2l5 1 1 5-1 4-4 2-1 3c1 1 3-1 5-3 3-3 4-5 4-8l2-4 1-2-6-1c-4 0-6-1-6-2l-2-1m30 0-6 1v2h7l4-1c0-1-2-2-5-2m48 0-2 1-3 2-2 1 2 2c2 0 2 1 3 6 0 5 0 6-2 7l-1 2c1 1 2 0 4-2s3-4 3-8 1-5 3-5 2 1 3 7l-1 6-2 1 1 1s2 0 3-2c2-2 2-3 2-9v-7h-5l-5-2-1-1m25 0-1 1c-1 0 0 2 2 3 1 1 2 2 3 1l-1-3-3-2m50 0-1 1 1 3 4 2 1 2 2 1 1 6 2 6 1-5c0-5 0-5-5-11l-6-5m25 0-1 1c-1 0 0 2 2 3 1 1 2 2 3 1l-1-3-3-2m52 0-6 1v2h7l4-1c0-1-2-2-5-2m26 0-1 1-3 2-3 1s1 2 3 2l5 2c2 1 2 1 4-1 2-1 3-3 2-3l-3-1-2-2-2-1m25 0-2 2v6c0 2 1 3 2 3s2-1 2-5l-2-6m25 0-2 2v6c0 2 1 3 2 3s2-1 2-5l-2-6m118 2c-2-2-3-2-4-1v11c0 5 1 9 2 9l1-7c0-5 0-7 2-8 1-1 1-1-1-4m14-1-3 1c-2 3-2 3-1 4s2 3 2 8l1 7c1 0 2-4 2-10l-1-10m16-1-5 4c-4 4-4 4-4 10l1 7 2-4v-4h12l1 4 1 4c1 0 2-2 2-6 0-7 0-7-4-11l-6-4m21 0-1 1-1 4 3 6c2 2 3 3 3 6l1 4 2 1 1-5 3-7c3-2 3-3 3-6l-1-3-2 4v4h-10v-4l-1-5m29 0-5 4c-4 4-4 4-4 10l1 7 2-4v-4h12l1 4 1 4c1 0 2-2 2-6 0-7 0-7-4-11l-6-4m-754 3-4 1v1l4 1 4-1c0-2-1-2-4-2m30 0-10 1 1 2h8l7 1v12h-8c-4 0-7 1-7 2l9 1h9v-18l-9-1m47 0-7 1 1 2h7l4-1c0-1-2-2-5-2m47 3-3-2 1 3 4 2-2-3m31-3-9 1v2h8c4 0 7 1 7 2l-8 1-8 2 2 1 8 1 6 2-2 1-1 1c0 1-1 2-5 2l-4 1 3 2c3 0 4-1 8-4 4-4 4-4 4-9l-1-6h-8m50 0-6 1v2h7l4-1c0-1-2-2-5-2m17 1h-1l-1 4c0 3 0 4 2 4l1-4-1-4m6-1-2 1v5l2 2 2-1v-5l-2-2m10 1h-1l-1 4-1 4-2 2-1 2-3 1-4 2-4 1s1 2 3 2c3 0 4-1 9-6 5-4 6-6 6-9l-1-3m111 2-3-2 1 3 4 2-2-3m28-3-6 1v2h7l4-1c0-1-2-2-5-2m47 3-3-2 1 3 4 2-2-3m281-3c-3 0-4 1-4 2l-2 1-1 1 6 1 7-1-2-1-1-1c0-1-1-2-3-2m50 0c-3 0-4 1-4 2l-2 1-1 1 6 1 7-1-2-1-1-1c0-1-1-2-3-2m-667 4h-1l-1 3-1 2-2 2-1 2-3 1-4 2-4 1s1 2 3 2c3 0 4-1 9-6l6-7-1-2m192-1-9 1v2h4c3 0 4 1 4 3l-3 6c-2 1-3 3-2 3l5-3 4-6c0-2 2-3 3-3l2-1-8-2m108 1h-1l-1 3-1 2-2 2-1 2-3 1-4 2-4 1s1 2 3 2c3 0 4-1 9-6l6-7-1-2m92-1-9 1v2h5c2 0 3 1 3 3l-3 6c-2 1-3 3-2 3l5-3 4-6c0-2 2-3 3-3l2-1-8-2m200 0c-3 0-4 0-4 2l2 4h3l2-3c0-3 0-3-3-3m-680 3-5 1 1 2 4 1c2 0 3-1 3-2 1-1-1-2-3-2m13 1h-1l-1 3-1 3-2 2-6 1-6 2 5 1c5 0 5 0 9-4l4-6-1-2m192-1-6 1 1 2 5 1c3 0 5-1 5-2s-2-2-5-2m192 1h-1l-1 7 1 4c1 0 2-2 2-5l-1-6m66 0h-1l-1 5c0 4 0 4-3 4-2 0-3 1-3 2l2 1 5-2 2-6-1-4m44-1-5 4-3 5h2l2-2 1 3 2 3 2-3 1-3 2 2 2 1c1-1 0-2-2-4l-3-5-1-1m98 0-3 1-1 4 2 2 4-1v-4l-2-2m25 0-3 1-1 4 2 2 4-1v-4l-2-2m25 0-3 1-1 4 2 2 4-1v-4l-2-2m-205 1-2 2v2l2 1 1-2-1-3m6 0-2 2c-1 1 0 2 1 2h2l1-2-2-2m125 0-1 1-1 4c0 2-1 3-3 4l-2 1 4 1h4v-5c1-3 0-5-1-6m-378 6-7 1v1l7 1c6 0 8 0 8 2l2 1c1-1 0-2-1-3-2-3-3-3-9-3m328 3-1 2 1 1 1-2-1-1m25 0-1 2 1 1 1-2-1-1" class="yak"/></g>

        <svg width="300px" height="100px" viewbox="115.709 1.143 466.847 499.207" x="5%" y="5%">
            <svg xmlns="http://www.w3.org/2000/svg" xmlns:xlink="http://www.w3.org/1999/xlink" xml:space="preserve" version="1.0" style="shape-rendering:geometricPrecision;text-rendering:geometricPrecision;image-rendering:optimizeQuality;" viewBox="0 0 264.41 305.6" x="0px" y="0px" fill-rule="evenodd" clip-rule="evenodd"><defs><style type="text/css">
   
    .fil0 {fill:black;fill-rule:nonzero}
   
  </style></defs><g><path class="icon" d="M82.19 0.91c5.23,-0.05 5.23,0.16 5.23,0.53 0,0.39 0.02,0.91 3.9,1.3 3.91,0.33 8.01,-0.07 12.1,-0.58 5.1,-0.81 10.21,-1.76 15.54,-1.89 5.33,-0.13 5.31,1.2 5.31,2.72 0,1.32 0.02,2.71 3.83,3.17 3.72,0.54 7.73,-0.69 11.64,-1.94 4.75,-1.56 9.49,-3.31 13.61,-2.22 3.55,1.65 2.63,5.03 1.58,8.7 -0.95,3.18 -1.86,6.42 -0.44,9.26 1.23,3.04 3.32,2.81 5.31,2.6 2.34,-0.26 4.41,-0.49 4.57,4.56 0,5.2 -1.5,10.32 -2.81,15.37 -0.99,4.11 -1.84,8.19 -1.55,12.17 0.38,3.9 1.3,3.93 2.14,3.97 0.89,0.03 1.63,0.03 1.5,5.36 -0.07,5.27 -0.39,10.35 -0.56,15.38 -0.03,4.08 0.05,8.15 0.48,11.98 0.02,1.13 0.02,2.24 0.03,3.32 -0.79,-5.22 -0.92,-10.28 -0.92,-15.32 0.12,-4.06 0.36,-8.15 0.23,-12.01 -0.05,-3.95 -0.69,-3.97 -1.41,-4 -1.05,0 -2.24,-0.07 -2.94,-5.35 -0.64,-5.35 0.38,-10.45 1.53,-15.52 1.07,-4.1 2.24,-8.19 2.06,-11.99 -0.28,-3.74 -1.92,-3.64 -3.73,-3.5 -2.47,0.26 -5.08,0.53 -6.77,-3.78 -2.22,-3.78 -1.12,-7.8 -0.15,-11.55 0.66,-2.78 1.4,-5.54 -1.4,-6.75 -2.96,-1.04 -6.76,0.3 -10.61,1.58 -4.77,1.41 -9.67,2.83 -14.71,1.89 -5.19,-0.82 -5.19,-2.63 -5.19,-4.24 -0.02,-1.2 -0.03,-2.3 -3.96,-2.35 -3.95,-0.07 -8.04,0.66 -12.12,1.25 -5.1,0.63 -10.19,1.1 -15.49,0.41 -5.26,-0.74 -5.28,-1.41 -5.23,-1.93 -0.03,-0.3 -0.05,-0.49 -3.91,-0.61 1.08,0 2.22,0.02 3.34,0zm-81.37 68.91c0.76,5.21 0.89,10.28 0.9,15.33 -0.15,4.06 -0.35,8.13 -0.25,12.03 0.07,3.92 0.69,3.93 1.41,3.98 1.04,0 2.25,0.03 2.93,5.35 0.66,5.33 -0.38,10.43 -1.51,15.5 -1.04,4.06 -2.22,8.18 -2.04,11.98 0.26,3.75 1.91,3.65 3.72,3.52 2.45,-0.25 5.08,-0.54 6.77,3.77 2.19,3.82 1.08,7.83 0.1,11.6 -0.67,2.8 -1.4,5.54 1.38,6.76 2.96,1.02 6.79,-0.33 10.62,-1.58 4.75,-1.43 9.64,-2.83 14.72,-1.93 5.21,0.81 5.19,2.63 5.18,4.26 0.02,1.2 0.02,2.29 3.95,2.35 3.93,0.07 8.06,-0.66 12.15,-1.28 5.1,-0.61 10.18,-1.07 15.49,-0.41 5.26,0.76 5.24,1.45 5.26,1.91 0,0.33 -0.02,0.51 3.85,0.64 -1.08,0 -2.19,-0.02 -3.25,-0.02 -5.26,0.05 -5.31,-0.15 -5.3,-0.53 0.02,-0.41 0,-0.89 -3.88,-1.28 -3.93,-0.35 -8.01,0.05 -12.13,0.58 -5.08,0.81 -10.13,1.74 -15.47,1.88 -5.31,0.13 -5.38,-1.19 -5.36,-2.68 0,-1.32 0,-2.73 -3.8,-3.21 -3.73,-0.51 -7.73,0.69 -11.67,1.97 -4.75,1.56 -9.42,3.26 -13.56,2.19 -3.54,-1.66 -2.63,-5.04 -1.59,-8.69 0.97,-3.19 1.87,-6.42 0.46,-9.28 -1.23,-3.04 -3.32,-2.83 -5.28,-2.62 -2.35,0.28 -4.41,0.46 -4.55,-4.59 0,-5.2 1.5,-10.28 2.8,-15.32 0.97,-4.11 1.84,-8.21 1.51,-12.16 -0.35,-3.93 -1.28,-3.95 -2.1,-3.97 -0.89,-0.05 -1.63,-0.1 -1.5,-5.39 0.07,-5.28 0.39,-10.32 0.56,-15.32 0.02,-4.11 -0.07,-8.16 -0.46,-12.03 -0.02,-1.1 -0.03,-2.2 -0.03,-3.32zm-0.18 -10.17c1.43,5.22 1.92,10.3 2.28,15.38 0.1,4.08 0.13,8.13 0.71,12.03 0.56,3.9 1.46,3.93 2.43,3.98 1.33,-0.03 2.84,-0.03 4.18,5.3 1.33,5.32 0.66,10.41 -0.17,15.5 -0.79,4.06 -1.71,8.18 -1.05,12 0.72,3.75 2.61,3.67 4.65,3.57 2.73,-0.25 5.62,-0.48 7.83,3.97 2.65,4.03 1.73,8.18 0.9,12.11 -0.59,2.95 -1.18,5.81 1.73,7.37 3.08,1.4 6.9,0.3 10.8,-0.74 4.8,-1.15 9.7,-2.24 14.83,-0.71 5.19,1.46 5.16,3.57 5.16,5.51 0,1.45 0,2.8 3.93,3.34 3.93,0.56 8.02,0.1 12.13,-0.26 5.1,-0.28 10.21,-0.39 15.5,0.95 5.28,1.4 5.23,2.37 5.21,3.14 -0.02,0.56 -0.02,1 3.86,1.61 -1.13,-0.02 -2.24,-0.03 -3.32,-0.03 -5.25,-0.61 -5.26,-1.1 -5.26,-1.78 0.03,-0.67 0.03,-1.4 -3.85,-2.27 -3.93,-0.82 -8.02,-0.71 -12.13,-0.44 -5.06,0.46 -10.14,1.07 -15.47,0.56 -5.31,-0.54 -5.34,-2.16 -5.34,-3.95 0.02,-1.58 0.03,-3.24 -3.78,-4.2 -3.75,-0.99 -7.78,-0.02 -11.72,1 -4.8,1.32 -9.52,2.72 -13.79,1.13 -3.75,-2.11 -2.98,-5.64 -2.09,-9.48 0.81,-3.27 1.58,-6.61 -0.18,-9.63 -1.59,-3.14 -3.88,-2.98 -6.1,-2.78 -2.61,0.25 -4.95,0.38 -5.7,-4.69 -0.66,-5.2 0.51,-10.28 1.5,-15.33 0.71,-4.08 1.3,-8.19 0.48,-12.13 -0.8,-3.95 -1.99,-3.93 -3.09,-3.95 -1.18,-0.03 -2.24,-0.07 -2.76,-5.38 -0.59,-5.26 -0.58,-10.32 -0.74,-15.34 -0.23,-4.08 -0.61,-8.18 -1.48,-12.03 -0.03,-1.09 -0.05,-2.25 -0.08,-3.36zm-0.23 -10.28c2.07,5.25 2.89,10.35 3.55,15.42 0.39,4.1 0.72,8.19 1.79,12.09 1.05,3.9 2.17,3.9 3.39,3.9 1.68,0 3.49,0 5.51,5.32 2,5.33 1.66,10.41 1.13,15.51 -0.53,4.08 -1.17,8.21 -0.03,12.04 1.2,3.77 3.32,3.69 5.57,3.6 3.02,-0.2 6.18,-0.38 8.93,4.21 3.09,4.24 2.38,8.51 1.69,12.6 -0.46,3.09 -0.97,6.12 2.09,8.03 3.19,1.78 7.07,0.89 10.98,0.08 4.87,-0.85 9.8,-1.66 14.96,0.51 5.21,2.14 5.21,4.56 5.16,6.81 -0.02,1.71 -0.02,3.27 3.9,4.33 3.91,1.05 8.06,0.87 12.17,0.79 5.11,0.05 10.24,0.26 15.54,2.27 5.26,2.07 5.25,3.34 5.21,4.43 -0.02,0.81 -0.05,1.46 3.8,2.57 -1.1,-0.03 -2.22,-0.05 -3.32,-0.08 -5.26,-1.25 -5.26,-2.04 -5.21,-3.01 0.03,-0.87 0.05,-1.86 -3.85,-3.21 -3.91,-1.33 -8.01,-1.48 -12.15,-1.5 -5.11,0.11 -10.18,0.38 -15.5,-0.81 -5.28,-1.2 -5.33,-3.13 -5.29,-5.23 0.02,-1.79 0.03,-3.72 -3.8,-5.15 -3.78,-1.45 -7.81,-0.74 -11.79,0.05 -4.85,0.99 -9.6,2.12 -14.02,0.03 -3.96,-2.55 -3.34,-6.27 -2.6,-10.25 0.66,-3.41 1.27,-6.84 -0.84,-10 -1.96,-3.27 -4.49,-3.13 -6.9,-2.96 -2.89,0.2 -5.53,0.35 -6.92,-4.75 -1.3,-5.22 -0.46,-10.33 0.21,-15.38 0.43,-4.11 0.76,-8.23 -0.56,-12.16 -1.32,-3.93 -2.76,-3.92 -4.08,-3.92 -1.51,-0.02 -2.84,-0.02 -4.04,-5.3 -1.25,-5.26 -1.58,-10.37 -2.09,-15.42 -0.51,-4.13 -1.15,-8.23 -2.5,-12.09 -0.03,-1.12 -0.05,-2.22 -0.08,-3.37zm-0.28 -10.28c2.75,5.23 3.86,10.33 4.88,15.47 0.66,4.1 1.22,8.19 2.78,12.09 1.54,3.9 2.94,3.9 4.42,3.93 1.96,-0.07 4.11,-0.05 6.81,5.28 2.66,5.31 2.63,10.4 2.45,15.55 -0.25,4.06 -0.64,8.18 0.97,12.03 1.66,3.8 4.04,3.75 6.54,3.69 3.3,-0.2 6.74,-0.33 10,4.43 3.55,4.46 3.04,8.85 2.53,13.13 -0.36,3.24 -0.79,6.43 2.43,8.69 3.32,2.14 7.23,1.48 11.2,0.91 4.9,-0.59 9.85,-1.1 15.04,1.73 5.23,2.76 5.23,5.53 5.23,8.1 -0.05,1.96 -0.05,3.8 3.86,5.35 3.91,1.55 8.04,1.63 12.18,1.81 5.11,0.38 10.21,0.9 15.5,3.6 5.28,2.73 5.28,4.33 5.26,5.73 -0.05,1.05 -0.08,1.96 3.8,3.55 -1.13,-0.03 -2.25,-0.05 -3.37,-0.08 -5.24,-1.94 -5.23,-3.04 -5.19,-4.3 0.02,-1.15 0.05,-2.35 -3.83,-4.23 -3.91,-1.83 -8.06,-2.24 -12.18,-2.52 -5.08,-0.21 -10.19,-0.26 -15.52,-2.12 -5.29,-1.87 -5.28,-4.13 -5.29,-6.53 0.03,-2.09 0.07,-4.26 -3.78,-6.14 -3.82,-1.94 -7.88,-1.5 -11.89,-0.94 -4.87,0.71 -9.7,1.58 -14.27,-1.05 -4.17,-2.99 -3.63,-6.93 -3.09,-11.06 0.49,-3.5 0.97,-7.04 -1.48,-10.35 -2.35,-3.39 -5.1,-3.31 -7.75,-3.17 -3.15,0.16 -6.08,0.26 -8.12,-4.85 -1.96,-5.23 -1.43,-10.35 -1.1,-15.42 0.16,-4.1 0.26,-8.21 -1.56,-12.14 -1.83,-3.92 -3.52,-3.93 -5.11,-3.93 -1.81,0 -3.47,0 -5.33,-5.3 -1.92,-5.28 -2.58,-10.37 -3.42,-15.45 -0.76,-4.11 -1.66,-8.19 -3.52,-12.06 -0.03,-1.12 -0.05,-2.29 -0.08,-3.41zm-0.13 -10.15c3.4,5.23 4.82,10.32 6.08,15.38 0.9,4.08 1.71,8.18 3.76,12.09 2.04,3.9 3.7,3.9 5.46,3.93 2.32,0 4.8,0.03 8.17,5.33 3.34,5.32 3.6,10.4 3.71,15.48 -0.02,4.08 -0.15,8.19 1.94,12.09 2.14,3.82 4.75,3.75 7.5,3.72 3.6,-0.11 7.32,-0.23 11.1,4.67 4.01,4.67 3.65,9.2 3.3,13.62 -0.26,3.41 -0.52,6.75 2.84,9.35 3.45,2.5 7.37,2.07 11.33,1.71 4.95,-0.31 9.92,-0.53 15.13,2.93 5.26,3.41 5.28,6.47 5.25,9.39 0.02,2.24 0.03,4.36 3.96,6.4 3.91,2.04 7.99,2.37 12.09,2.8 5.11,0.66 10.18,1.5 15.47,4.85 5.28,3.39 5.29,5.33 5.29,7.08 0.03,1.33 0.03,2.55 3.95,4.61 -1.15,-0.02 -2.27,-0.03 -3.37,-0.07 -5.26,-2.58 -5.26,-4.01 -5.28,-5.64 0.02,-1.4 -0.02,-2.91 -3.91,-5.26 -3.93,-2.3 -7.97,-2.96 -12.12,-3.49 -5.06,-0.5 -10.16,-0.87 -15.47,-3.42 -5.29,-2.53 -5.31,-5.12 -5.33,-7.88 0.03,-2.34 0,-4.77 -3.85,-7.14 -3.83,-2.42 -7.88,-2.15 -11.92,-1.86 -4.9,0.43 -9.75,1.02 -14.47,-2.12 -4.41,-3.46 -4.01,-7.59 -3.63,-11.88 0.36,-3.59 0.66,-7.27 -2.14,-10.71 -2.71,-3.52 -5.67,-3.42 -8.57,-3.36 -3.45,0.1 -6.68,0.21 -9.34,-4.95 -2.61,-5.25 -2.42,-10.4 -2.37,-15.43 -0.08,-4.08 -0.26,-8.19 -2.57,-12.14 -2.32,-3.92 -4.29,-3.9 -6.15,-3.93 -2.17,-0.05 -4.14,-0.03 -6.69,-5.31 -2.58,-5.28 -3.57,-10.43 -4.67,-15.43 -1.02,-4.1 -2.12,-8.21 -4.45,-12.08 -0.02,-1.1 -0.03,-2.2 -0.05,-3.32zm0.39 -9.64c4.01,5.22 5.56,10.09 7.04,15.05 1.07,4 2.07,8.05 4.6,11.95 2.52,3.9 4.51,3.95 6.59,4.03 2.68,0.05 5.61,0.2 9.6,5.46 3.98,5.26 4.44,10.25 4.83,15.27 0.18,4.05 0.3,8.13 2.85,12.03 2.6,3.83 5.47,3.82 8.48,3.8 3.86,-0.05 7.91,-0.1 12.17,4.92 4.42,4.84 4.23,9.51 4.04,14.05 -0.15,3.55 -0.31,7.04 3.19,9.99 3.57,2.88 7.5,2.63 11.49,2.48 4.92,-0.05 9.86,-0.05 15.08,4 5.23,4.05 5.29,7.5 5.31,10.78 0.05,2.52 0.13,4.94 4.03,7.47 3.91,2.53 7.93,3.06 11.99,3.67 4.98,0.94 9.91,1.94 15.17,5.92 5.25,4 5.41,6.42 5.51,8.57 0.1,1.66 0.2,3.21 4.09,5.74 -1.13,0.02 -2.27,0 -3.35,-0.02 -5.29,-3.24 -5.29,-5.03 -5.34,-7.02 -0.1,-1.74 -0.17,-3.55 -4.03,-6.38 -3.91,-2.78 -7.96,-3.64 -11.97,-4.34 -5.05,-0.77 -10.13,-1.45 -15.44,-4.66 -5.28,-3.22 -5.29,-6.12 -5.29,-9.23 -0.07,-2.63 -0.07,-5.35 -3.91,-8.19 -3.86,-2.83 -7.91,-2.83 -11.87,-2.75 -5,0.2 -9.9,0.51 -14.75,-3.16 -4.62,-3.9 -4.34,-8.21 -4.09,-12.64 0.21,-3.73 0.36,-7.45 -2.75,-11.04 -3.07,-3.64 -6.28,-3.62 -9.39,-3.55 -3.76,0.03 -7.32,0.08 -10.6,-5.12 -3.26,-5.27 -3.36,-10.37 -3.58,-15.34 -0.3,-4.06 -0.67,-8.1 -3.45,-12.01 -2.79,-3.9 -5.08,-3.97 -7.23,-4.03 -2.56,-0.12 -4.9,-0.13 -8.11,-5.41 -3.22,-5.3 -4.49,-10.36 -5.8,-15.3 -1.2,-4.03 -2.48,-8.01 -5.29,-11.86 0.03,-1.05 0.08,-2.14 0.2,-3.13zm1.64 -8.36c4.55,5.1 5.97,9.51 7.38,14.12 1.17,3.83 2.25,7.69 5.23,11.57 2.99,3.83 5.36,4.03 7.76,4.23 3.26,0.26 6.71,0.63 11.26,5.78 4.52,5.15 5.06,9.86 5.54,14.69 0.38,3.93 0.64,7.9 3.63,11.78 3.04,3.82 6.2,3.87 9.47,3.9 4.19,0.03 8.53,0.08 13.19,5.12 4.75,4.95 4.69,9.66 4.64,14.33 -0.07,3.67 -0.15,7.3 3.45,10.58 3.67,3.19 7.61,3.14 11.57,3.16 4.83,0.1 9.67,0.23 14.78,4.82 5.13,4.56 5.31,8.47 5.49,12.17 0.08,2.85 0.2,5.59 4.06,8.6 3.88,2.98 7.81,3.64 11.72,4.39 4.67,0.95 9.27,1.93 14.4,6.45 5.15,4.56 5.61,7.62 6.05,10.36 0.2,2.07 0.43,4.02 4.29,7.01 -0.95,0.13 -1.96,0.25 -3.01,0.28 -5.26,-3.87 -5.46,-6.15 -5.74,-8.65 -0.2,-2.14 -0.43,-4.39 -4.26,-7.63 -3.83,-3.24 -7.68,-4.13 -11.56,-4.97 -4.87,-0.89 -9.77,-1.76 -15.06,-5.61 -5.24,-3.87 -5.36,-7.16 -5.47,-10.69 -0.08,-2.93 -0.16,-5.97 -3.96,-9.23 -3.82,-3.26 -7.78,-3.41 -11.76,-3.47 -4.9,-0.02 -9.8,0.08 -14.76,-4.1 -4.82,-4.33 -4.69,-8.78 -4.57,-13.39 0.1,-3.8 0.15,-7.6 -3.27,-11.25 -3.37,-3.7 -6.82,-3.72 -10.16,-3.73 -4.08,0 -7.94,-0.02 -11.84,-5.23 -3.9,-5.25 -4.21,-10.23 -4.64,-15.14 -0.44,-3.93 -0.94,-7.82 -4.16,-11.67 -3.24,-3.83 -5.9,-4.03 -8.4,-4.2 -3.01,-0.2 -5.8,-0.36 -9.65,-5.63 -3.86,-5.28 -5.25,-10.12 -6.66,-14.88 -1.28,-3.85 -2.55,-7.57 -5.79,-11.37 0.26,-0.82 0.51,-1.65 0.79,-2.5zm3.86 -6.17c4.95,4.87 5.97,8.62 7.12,12.59 0.84,3.27 1.86,6.81 5.25,10.6 3.39,3.77 6.18,4.11 9.19,4.64 3.85,0.56 7.92,1.2 12.87,6.09 4.93,4.89 5.38,9.2 5.85,13.62 0.3,3.65 0.62,7.49 4.03,11.27 3.4,3.77 6.87,3.82 10.44,3.97 4.49,0.13 9.11,0.21 14.04,5.13 4.93,4.9 4.93,9.59 4.93,14.33 0,3.78 0,7.54 3.67,11.04 3.68,3.49 7.55,3.56 11.36,3.6 4.67,0.17 9.22,0.35 14.11,5.3 4.88,4.95 5.24,9.31 5.56,13.49 0.31,3.31 0.53,6.43 4.31,9.82 3.78,3.39 7.43,4.08 10.9,4.64 4.24,0.81 8.25,1.56 13.12,6.52 4.88,4.95 5.82,8.7 6.61,12.21 0.72,2.78 1.18,5.22 4.98,8.61 -0.85,0.28 -1.68,0.54 -2.5,0.81 -5.16,-4.46 -5.72,-7.37 -6.2,-10.43 -0.66,-2.83 -1.3,-5.71 -4.98,-9.26 -3.67,-3.59 -7.02,-4.3 -10.46,-4.9 -4.59,-0.94 -9.16,-1.81 -14.35,-6.24 -5.15,-4.44 -5.42,-8.23 -5.61,-12.14 -0.28,-3.37 -0.51,-6.81 -4.16,-10.4 -3.7,-3.57 -7.43,-3.74 -11.21,-3.83 -4.83,-0.15 -9.6,-0.21 -14.63,-4.81 -4.92,-4.69 -4.92,-9.3 -4.88,-14 0.02,-3.83 0.02,-7.67 -3.6,-11.3 -3.58,-3.67 -7.27,-3.72 -10.9,-3.8 -4.34,-0.07 -8.57,-0.15 -13,-5.28 -4.46,-5.18 -4.87,-9.97 -5.43,-14.64 -0.35,-3.62 -0.77,-7.19 -4.32,-10.88 -3.58,-3.69 -6.74,-4.08 -9.83,-4.56 -3.47,-0.36 -6.81,-0.76 -11.23,-5.91 -4.45,-5.18 -5.74,-9.67 -7.14,-14.08 -0.92,-3.22 -1.87,-6.43 -5.46,-10.07 0.44,-0.64 0.9,-1.28 1.56,-1.73zm6.72 -3.28c5.15,4.44 5.69,7.36 6.18,10.41 0.66,2.83 1.3,5.71 4.97,9.28 3.68,3.55 7.05,4.26 10.46,4.9 4.57,0.94 9.18,1.81 14.35,6.24 5.16,4.44 5.41,8.21 5.62,12.14 0.28,3.36 0.51,6.8 4.17,10.38 3.68,3.57 7.42,3.74 11.18,3.85 4.83,0.15 9.63,0.2 14.63,4.82 4.93,4.69 4.92,9.28 4.9,14 0,3.82 -0.02,7.65 3.58,11.29 3.6,3.67 7.3,3.72 10.93,3.8 4.34,0.05 8.55,0.13 13.04,5.26 4.42,5.2 4.87,9.94 5.38,14.66 0.36,3.6 0.77,7.19 4.32,10.88 3.57,3.69 6.74,4.1 9.83,4.58 3.49,0.35 6.84,0.74 11.24,5.91 4.46,5.18 5.74,9.64 7.15,14.05 0.9,3.24 1.86,6.43 5.44,10.1 -0.43,0.63 -0.89,1.25 -1.56,1.73 -4.95,-4.9 -5.99,-8.64 -7.14,-12.6 -0.82,-3.27 -1.84,-6.81 -5.23,-10.6 -3.4,-3.78 -6.18,-4.11 -9.21,-4.64 -3.85,-0.56 -7.91,-1.22 -12.87,-6.09 -4.93,-4.89 -5.38,-9.18 -5.84,-13.66 -0.3,-3.65 -0.63,-7.47 -4.03,-11.24 -3.42,-3.77 -6.86,-3.83 -10.46,-3.97 -4.51,-0.11 -9.11,-0.21 -14.04,-5.12 -4.93,-4.9 -4.93,-9.61 -4.97,-14.33 0.02,-3.78 0.03,-7.55 -3.63,-11.06 -3.7,-3.49 -7.55,-3.55 -11.36,-3.62 -4.67,-0.15 -9.22,-0.35 -14.07,-5.3 -4.9,-4.95 -5.26,-9.31 -5.57,-13.51 -0.33,-3.29 -0.56,-6.4 -4.32,-9.8 -3.8,-3.39 -7.46,-4.05 -10.9,-4.64 -4.24,-0.79 -8.24,-1.55 -13.1,-6.5 -4.88,-4.95 -5.84,-8.7 -6.63,-12.21 -0.72,-2.8 -1.2,-5.23 -4.96,-8.62 0.82,-0.26 1.64,-0.53 2.5,-0.79zm8.76 -1.27c5.24,3.88 5.44,6.14 5.72,8.64 0.2,2.14 0.44,4.43 4.27,7.67 3.82,3.22 7.68,4.1 11.56,4.95 4.83,0.91 9.77,1.76 15.04,5.63 5.26,3.85 5.36,7.16 5.49,10.68 0.08,2.93 0.18,5.97 3.98,9.25 3.8,3.28 7.78,3.37 11.72,3.47 4.9,0 9.81,-0.06 14.78,4.11 4.83,4.31 4.67,8.77 4.55,13.39 -0.08,3.78 -0.11,7.58 3.29,11.24 3.39,3.69 6.82,3.73 10.19,3.72 4.04,-0.02 7.92,0.02 11.85,5.23 3.88,5.26 4.21,10.2 4.62,15.14 0.43,3.97 0.92,7.83 4.13,11.7 3.25,3.82 5.92,4.02 8.43,4.18 2.99,0.18 5.8,0.38 9.65,5.64 3.88,5.26 5.23,10.08 6.66,14.87 1.28,3.85 2.55,7.57 5.8,11.37 -0.28,0.86 -0.54,1.7 -0.79,2.5 -4.59,-5.1 -6,-9.53 -7.4,-14.13 -1.17,-3.83 -2.25,-7.69 -5.24,-11.55 -2.99,-3.88 -5.33,-4.06 -7.74,-4.24 -3.27,-0.26 -6.73,-0.63 -11.29,-5.76 -4.51,-5.17 -5.05,-9.87 -5.54,-14.69 -0.33,-3.98 -0.61,-7.95 -3.6,-11.8 -3.04,-3.83 -6.21,-3.88 -9.47,-3.92 -4.23,-0.03 -8.55,-0.07 -13.22,-5.1 -4.75,-4.95 -4.7,-9.66 -4.67,-14.32 0.07,-3.69 0.18,-7.32 -3.42,-10.58 -3.65,-3.22 -7.65,-3.16 -11.59,-3.17 -4.82,-0.11 -9.68,-0.25 -14.75,-4.82 -5.13,-4.57 -5.31,-8.51 -5.51,-12.21 -0.11,-2.83 -0.21,-5.56 -4.08,-8.56 -3.88,-3 -7.83,-3.67 -11.7,-4.44 -4.69,-0.94 -9.29,-1.89 -14.42,-6.43 -5.15,-4.56 -5.62,-7.6 -6.03,-10.4 -0.23,-2.04 -0.44,-3.98 -4.27,-6.98 0.95,-0.11 1.91,-0.25 2.99,-0.28zm9.85 -0.2c5.25,3.26 5.21,5.02 5.31,7.03 0.08,1.76 0.18,3.59 4.06,6.4 3.9,2.78 7.92,3.62 11.94,4.34 5.01,0.76 10.14,1.45 15.44,4.67 5.31,3.19 5.28,6.1 5.33,9.21 0.03,2.63 0.08,5.36 3.93,8.21 3.85,2.86 7.88,2.81 11.85,2.75 4.95,-0.2 9.91,-0.53 14.73,3.18 4.64,3.88 4.34,8.18 4.09,12.65 -0.2,3.7 -0.35,7.47 2.76,11.04 3.07,3.63 6.3,3.57 9.42,3.52 3.75,-0.05 7.28,-0.1 10.62,5.1 3.26,5.26 3.37,10.33 3.57,15.37 0.28,4.05 0.66,8.13 3.44,12.04 2.81,3.9 5.08,3.93 7.27,4 2.55,0.1 4.9,0.11 8.09,5.43 3.24,5.28 4.5,10.35 5.84,15.29 1.18,4.01 2.47,8.04 5.28,11.93 -0.03,1.04 -0.08,2.07 -0.22,3.08 -4.01,-5.25 -5.57,-10.14 -7.02,-15.07 -1.09,-4.03 -2.07,-8.05 -4.62,-11.95 -2.53,-3.9 -4.51,-3.98 -6.58,-4.03 -2.71,-0.1 -5.64,-0.21 -9.64,-5.48 -3.98,-5.27 -4.44,-10.27 -4.82,-15.27 -0.2,-4.08 -0.26,-8.14 -2.84,-12.01 -2.61,-3.83 -5.51,-3.85 -8.5,-3.8 -3.9,0.02 -7.91,0.07 -12.18,-4.92 -4.42,-4.85 -4.23,-9.53 -4.04,-14.05 0.13,-3.57 0.31,-7.06 -3.19,-10 -3.57,-2.86 -7.53,-2.65 -11.49,-2.48 -4.93,0.03 -9.88,0.03 -15.06,-4.03 -5.23,-4.03 -5.33,-7.5 -5.33,-10.76 -0.1,-2.5 -0.13,-4.93 -4.04,-7.47 -3.91,-2.53 -7.97,-3.04 -11.97,-3.69 -5.01,-0.94 -9.93,-1.91 -15.17,-5.91 -5.25,-4.02 -5.46,-6.42 -5.54,-8.59 -0.08,-1.66 -0.18,-3.19 -4.06,-5.74 1.07,-0.02 2.2,0 3.35,0.02zm10.14 0.17c5.24,2.6 5.21,4.02 5.24,5.63 0.02,1.41 0.03,2.93 3.91,5.28 3.91,2.3 8.02,2.95 12.12,3.47 5.05,0.53 10.18,0.89 15.5,3.44 5.29,2.54 5.28,5.13 5.29,7.87 0,2.35 0.03,4.79 3.88,7.17 3.83,2.42 7.88,2.17 11.87,1.88 4.92,-0.44 9.81,-1.04 14.5,2.14 4.42,3.44 4.03,7.55 3.63,11.83 -0.34,3.62 -0.64,7.29 2.15,10.75 2.73,3.52 5.71,3.41 8.58,3.32 3.43,-0.12 6.67,-0.21 9.37,4.95 2.61,5.25 2.42,10.37 2.37,15.43 0.08,4.1 0.25,8.24 2.55,12.18 2.33,3.91 4.27,3.91 6.15,3.91 2.15,0.03 4.16,0.02 6.69,5.33 2.58,5.28 3.57,10.38 4.67,15.43 1.02,4.11 2.15,8.21 4.49,12.11 0.02,1.09 0.03,2.2 0.05,3.31 -3.42,-5.25 -4.85,-10.33 -6.12,-15.4 -0.9,-4.11 -1.69,-8.19 -3.76,-12.09 -2.02,-3.93 -3.71,-3.93 -5.44,-3.93 -2.35,0 -4.83,-0.03 -8.2,-5.33 -3.34,-5.32 -3.6,-10.41 -3.7,-15.5 0.02,-4.11 0.17,-8.23 -1.94,-12.08 -2.15,-3.83 -4.77,-3.8 -7.51,-3.72 -3.62,0.1 -7.35,0.2 -11.13,-4.69 -3.99,-4.67 -3.65,-9.23 -3.3,-13.61 0.25,-3.41 0.54,-6.76 -2.81,-9.36 -3.45,-2.52 -7.42,-2.07 -11.34,-1.71 -4.98,0.3 -9.98,0.53 -15.16,-2.95 -5.26,-3.42 -5.26,-6.5 -5.21,-9.41 -0.05,-2.22 -0.07,-4.33 -3.96,-6.38 -3.93,-2.04 -8.04,-2.35 -12.12,-2.78 -5.13,-0.69 -10.21,-1.53 -15.5,-4.89 -5.28,-3.39 -5.29,-5.32 -5.26,-7.08 -0.02,-1.33 -0.02,-2.55 -3.91,-4.59 1.1,0.02 2.22,0.05 3.37,0.07zm10.31 0.26c5.21,1.94 5.16,3.03 5.16,4.31 -0.03,1.1 -0.05,2.35 3.85,4.21 3.9,1.83 8.04,2.2 12.17,2.52 5.08,0.2 10.23,0.26 15.54,2.14 5.31,1.86 5.26,4.11 5.26,6.55 -0.02,2.06 0,4.21 3.83,6.14 3.8,1.93 7.86,1.45 11.85,0.94 4.85,-0.72 9.75,-1.59 14.27,1.05 4.21,3 3.65,6.89 3.11,11.04 -0.51,3.5 -0.95,7.06 1.51,10.35 2.34,3.41 5.11,3.27 7.76,3.14 3.12,-0.15 6.08,-0.26 8.14,4.87 1.94,5.25 1.43,10.32 1.08,15.4 -0.18,4.13 -0.25,8.24 1.56,12.18 1.83,3.93 3.52,3.93 5.1,3.91 1.82,0.02 3.5,0.02 5.34,5.33 1.92,5.28 2.6,10.35 3.42,15.4 0.79,4.15 1.66,8.26 3.53,12.13 0.03,1.17 0.07,2.27 0.1,3.39 -2.76,-5.25 -3.91,-10.35 -4.88,-15.48 -0.67,-4.1 -1.23,-8.19 -2.81,-12.08 -1.54,-3.91 -2.93,-3.93 -4.41,-3.93 -2,0.05 -4.13,0.03 -6.82,-5.3 -2.66,-5.32 -2.65,-10.41 -2.47,-15.52 0.28,-4.13 0.67,-8.23 -0.94,-12.09 -1.68,-3.78 -4.06,-3.73 -6.58,-3.63 -3.3,0.16 -6.72,0.3 -10,-4.46 -3.57,-4.46 -3.04,-8.85 -2.55,-13.1 0.36,-3.26 0.77,-6.45 -2.43,-8.71 -3.34,-2.12 -7.27,-1.46 -11.2,-0.89 -4.92,0.58 -9.9,1.09 -15.04,-1.76 -5.25,-2.78 -5.25,-5.51 -5.21,-8.1 -0.02,-1.94 0.02,-3.8 -3.91,-5.33 -3.91,-1.55 -8.06,-1.63 -12.15,-1.83 -5.13,-0.36 -10.24,-0.91 -15.54,-3.6 -5.29,-2.73 -5.28,-4.31 -5.21,-5.74 0,-1.05 0.05,-1.97 -3.83,-3.54 1.1,0.03 2.22,0.07 3.39,0.08zm10.23 0.25c5.23,1.27 5.21,2.06 5.16,3.01 0,0.87 -0.03,1.88 3.86,3.22 3.91,1.32 8.06,1.45 12.13,1.5 5.11,-0.11 10.22,-0.39 15.54,0.81 5.31,1.19 5.29,3.13 5.28,5.22 -0.02,1.83 0,3.72 3.81,5.17 3.76,1.46 7.81,0.74 11.79,-0.05 4.83,-0.99 9.63,-2.12 14.04,-0.02 3.96,2.55 3.3,6.28 2.6,10.23 -0.66,3.39 -1.25,6.83 0.84,9.99 1.99,3.28 4.51,3.13 6.94,2.96 2.88,-0.18 5.53,-0.36 6.92,4.76 1.32,5.21 0.48,10.32 -0.2,15.37 -0.44,4.13 -0.79,8.24 0.51,12.19 1.36,3.9 2.8,3.9 4.11,3.91 1.5,0.03 2.86,0.02 4.04,5.32 1.25,5.26 1.59,10.35 2.09,15.42 0.53,4.11 1.13,8.21 2.53,12.06 0.02,1.15 0.05,2.25 0.08,3.37 -2.1,-5.25 -2.93,-10.32 -3.57,-15.38 -0.41,-4.11 -0.72,-8.21 -1.81,-12.09 -1.04,-3.93 -2.17,-3.93 -3.39,-3.91 -1.68,0.02 -3.49,-0.02 -5.52,-5.33 -1.99,-5.33 -1.63,-10.43 -1.1,-15.5 0.52,-4.13 1.17,-8.24 0.03,-12.08 -1.22,-3.75 -3.34,-3.69 -5.59,-3.57 -3.06,0.2 -6.2,0.36 -8.94,-4.23 -3.11,-4.24 -2.4,-8.51 -1.71,-12.57 0.43,-3.09 0.95,-6.15 -2.12,-8.05 -3.19,-1.78 -7.09,-0.87 -10.95,-0.08 -4.92,0.87 -9.85,1.66 -14.96,-0.53 -5.23,-2.14 -5.23,-4.54 -5.16,-6.81 -0.03,-1.68 -0.03,-3.28 -3.95,-4.33 -3.93,-1.04 -8.05,-0.84 -12.12,-0.79 -5.16,-0.05 -10.26,-0.25 -15.55,-2.27 -5.28,-2.07 -5.26,-3.34 -5.2,-4.43 -0.02,-0.79 0.02,-1.48 -3.85,-2.57 1.1,0.03 2.22,0.07 3.37,0.08zm10.18 0.13c5.21,0.63 5.23,1.14 5.23,1.8 -0.02,0.64 -0.03,1.38 3.85,2.24 3.9,0.84 8.04,0.71 12.13,0.46 5.1,-0.46 10.18,-1.07 15.49,-0.53 5.33,0.51 5.33,2.16 5.31,3.95 0,1.58 0,3.22 3.8,4.16 3.76,1 7.79,0.03 11.74,-0.99 4.78,-1.28 9.55,-2.72 13.81,-1.12 3.75,2.11 2.98,5.63 2.07,9.44 -0.79,3.28 -1.55,6.63 0.2,9.63 1.63,3.14 3.91,2.96 6.13,2.76 2.6,-0.25 4.95,-0.36 5.74,4.71 0.66,5.2 -0.51,10.25 -1.54,15.32 -0.69,4.1 -1.28,8.21 -0.48,12.17 0.84,3.92 2.02,3.92 3.09,3.92 1.22,0.03 2.27,0.08 2.8,5.41 0.59,5.27 0.58,10.28 0.74,15.3 0.23,4.11 0.59,8.21 1.5,12.06 0.02,1.15 0.05,2.25 0.07,3.36 -1.43,-5.23 -1.91,-10.32 -2.25,-15.4 -0.15,-4.06 -0.18,-8.14 -0.77,-12.03 -0.54,-3.93 -1.43,-3.93 -2.4,-3.98 -1.36,0.05 -2.84,0 -4.21,-5.3 -1.33,-5.33 -0.64,-10.42 0.18,-15.5 0.82,-4.11 1.73,-8.21 1.07,-12.03 -0.74,-3.73 -2.63,-3.65 -4.67,-3.55 -2.75,0.25 -5.64,0.48 -7.86,-3.97 -2.65,-4.03 -1.73,-8.16 -0.92,-12.06 0.58,-2.96 1.19,-5.84 -1.73,-7.41 -3.08,-1.4 -6.92,-0.28 -10.79,0.74 -4.82,1.15 -9.77,2.25 -14.85,0.69 -5.21,-1.46 -5.18,-3.57 -5.16,-5.49 0,-1.45 -0.02,-2.78 -3.93,-3.36 -3.93,-0.54 -8.06,-0.07 -12.13,0.26 -5.11,0.28 -10.24,0.4 -15.54,-0.95 -5.26,-1.4 -5.23,-2.35 -5.18,-3.14 -0.02,-0.56 0,-1 -3.86,-1.59 1.1,0.02 2.2,0.02 3.34,0.02z"/></g></svg>
        </svg>
    </svg>