<svg xmlns="http://www.w3.org/2000/svg" preserveAspectRatio="xMidYMid meet" viewBox="0 0 230 300"
    style="background-color:red"> 
        <style>
            @keyframes glow {
                0% {
                    filter: drop-shadow(16px 16px 20px white) brightness(100%);
                }

                to {
                    filter: drop-shadow(16px 16px 20px blue) brightness(50%);
                }
            }

            path {
                fill: blue;
                animation: glow 1s ease-in-out infinite alternate;
            }

            .yak {
                fill: neon;
            }

            .yak:hover {
                fill: white;
            }

            .icon {
                fill: neon;
            }
        </style>  
        <g class = "yak" transform="translate(-20, -20)" >
    <path
        d="m213 59 1 4 1 2 1 3 1 2c2 0 1-6-1-9-2-4-4-5-3-2zM163 63c-4 4-2 11 6 13 2 1 2 1-2 1-5 0-9-1-13-5-2-1-2-1 0-4l2-3c2-1 0-2-1-2-2 1-5 6-5 9 0 1 3 4 7 5 5 1 4 2-1 2l-5-1-3-2c-4-2-5-4-2-8 3-3 1-5-2-2-4 4-2 10 5 13 1 1 1 1-2 1-4-1-10-6-10-8l2-4v-3c-2 0-5 6-4 8l3 5 4 2h-3c-5-2-9-5-9-8l2-5c2-1 0-3-2-1-1 0-2 2-1 5 0 3 0 5 2 6l2 3h-1l-3-2-5-3c-2-2-3-7 0-7 2-1 1-3-3-3-5 0-5 1-5 6s-2 6-4 3c-1-2-1-2-1 1 0 4 0 4-1 3-2-1-2-7-1-9v-2c-2-1-3-1-6 5-2 3-2 5-1 6s1 1-1 3c-1 1-1 1 2 1s3 0 2-5v-4l1 3 4 6 2 4 3 2 4 2 1-3v-3l2 2c0 3 3 7 5 7l5-1c2 0 2-1 2-3-1-2 0-3 1-4l1-3 10-1 10 1c-2 2-1 3 1 2 3-3 9-1 8 3-1 2-3 2-4-1-1-2-1-2-1 1 0 5 1 6 5 6 6 0 7-1 8-6l1-5c1 0 4 5 3 7 0 3 2 3 3 0l2-2c2 0 1-2-1-2v-1c2 0 1-2-1-2l-5-2c-2-2-2-2 0-3l3 1 5 1 4 2h1l2 1h3v-2l-4-1-2-2c0-2 0-2 1-1 1 2 2 0 1-3-1-2-3-3-3 0h-2l-1 2c1 2 1 2-2 2-5-1-9-8-6-9v-3l-2 2v6l1 2h-1l-3-1c-2 0-7-4-7-6l2-3c2-3 1-4-2-2zm-40 14 3 1-3 1-4 2c-2 2-6 2-6-1-1-2 2-4 4-3 2 0 2 0 1-3v-6c1-1 2-1 2 3s1 5 3 6zm8 6c1 2-1 4-2 4l-2 2c-1 1-2 1-3-1s-1-2 1-3l2-2h4zm-14 3v1l-1-1v-2l1 2zm52 2-1 2-2-2c0-2 1-3 2-3l1 3zM97 69l-1 4h1l2-3v-4l-2 3zM96 75v4l1-3c0-2 0-2-1-1z"
        />
    <path
        d="m213 82-1 3v2l-1 2c-1 1-1-1-1-3l-1-5-1 4c0 3 0 5-3 11l-1 4c0 2-5 7-6 6l1-3h-1c-2 1-5 5-4 6s10-4 10-6c1-2 2-2 6-2l3-1 1-1c3 0 2 1-1 4-1 1-2 3-1 4l-1 2-4 2c-1 1-2 2-1 3v1l-2 2-2 4-1 3c1 1 0 2-1 2l-1 1-2 6c-1 3-2 4-4 3-2 0-2 0-2 3 0 2 0 3-1 2l-3 1c-1 1-2 2-3 1l-2 1h-11c-2 1-19 1-20-1h-6l-6-1h-1l-4 1c-3 0-4-1-4-2 0-2-1-3-2-1s-3 0-2-2l-1-2-1-2-1-3v-2c2-1 1-3-2-3-2 0-1-2 1-3 2-2 2-2 1-3v-6l2-2 2-2c1-1 1-1-1-2-1-2-2-2-4-1-7 4-12 11-9 15 2 2 2 8 1 9v3l1 4c0 2-1 2-3 2l-6 1-4 2c-2 0-4 2-5 4l-3 3-1 1-5 6-5 7-4 8a34 34 0 0 0-6 8l-7 14-9 15c-3 1-7 5-7 8 0 1 0 2-1 1l-2 1-1 2-1 3c0 2 1 3 3 3l2 2 2 1 2 1c-1 1 0 2 1 2l9 4 5 2 5 1 2 1 3 1 4 2 3 1 6 2c4 0 6 1 6 2l4 1c1-1 2-1 3 1l2 1c3-1 12 1 14 2h17l13 1c10 0 12-1 12-2h4l3-1 5-3 4-2 1 7c1 9 1 10 11 16l6 5 2 1c2 0 3-1 3-2 0-2 1-3 2-1l-1 2c-2 2-1 4 3 4l4-1 3-1c2 0 7-7 7-10 0-4-3-7-9-10l-6-4c1-1-1-9-3-9h-2l-2-2h-14l-2 1c-2 0-1-5 1-6 8-5 11-5 16-2 2 1 3 3 3 5 0 3 1 4 3 2v-4c-1 1-1 0-1-1l1-2 4-1 4-1 1-1 2-5 3-6 1-3c1-1 3-23 2-25l-1-2-1-2-4-21 1-5c2-2 2-5 1-7v-3l3-3c2-1 2-1 1-3-2-2-1-5 3-9 4-3 5-9 2-12l-2-5-2-6-2-5-3-3c-2-2-2-2-1-4 2-4 0-5-4-5-3 0-4 0-3-2l1-3 2-3 1-3 1-4-1-4-1 3zm-1 39h-2l-2-1h2l2 1zm-44 42-1 1-2-1 1-1 2 1zm10 23-1-1 1-1v2zm-85 48-1 1-1-1v-1l2 1zm88 1-1 1v-1l1-1v1zm-6 11-1-1 1-1v2zm21-1 4 1 2 1c1 3-1 4-3 2-1-2-1-2-2 0h-12c-3-1-6-3-2-3l2-1 5-1 7 1zm-30 5-1-1 1-1v2zm-24 2-1-1 1-1v2zm58 1 7 4c7 3 8 5 6 6l-1 2c1 2 1 2 2 1 2-1 2-1 3 1v2c-1 0-2 1-2 3s-1 2-3 2l-2 1-3 2c-2 0-2 0-1-1v-5l-6-3c-3-3-4-3-4-1l2 3c3 1 4 4 1 4l-1-1-4-3c-7-5-11-9-12-14v-4h8l10 1z"
        />
    <path
        d="m208 267 2 3 2 1c2 1 1-2-1-4s-5-3-3 0zM186 85l-1 5 2-1 1-4c-1-2-1-2-2 0zM202 89a76 76 0 0 1 0 9l1-3V84l-1 5z" />
    <path
        d="m196 88-1 4-2 3-1 1-1 2-1 1-2 1c0 2 4 1 5-2v2l-1 4-1 4-3 3-1 3c1 1 0 1-3 1l-4 2h2l3 1-1 2-1 2c0 2-1 3-5 3-3 0-4 1-4 2s-1 2-3 2h-3c-1 2-7 2-7 0l1-1c2 0 1-2-1-2s-3-1-3-3 0-2 4-2 5 0 5-2l1-1 1-1-2-1c-4 0-3-1 2-4 8-4 10-5 11-8 1-2 1-2 3-1s3 1 3-1l-1-1c-1 0-1-3 1-5 2-1 2-3 0-3l-1 1-1 1-1-2-2 2-2 4c0 2-5 5-8 5l-2 1-4 2c-4 0-5 2-2 2l3-1 4-2 4-1 2-1c4-1 1 2-6 5l-10 6c-3 2-5 2-5-2l-2-2-3-1-3-1-3-1-6-1-5-2-2-1c-3 0-8-4-12-10-3-4-3-4-3-2l3 5 1 2c0 2 7 6 13 8 2 1 2 2 2 10v12c0 4 2 8 5 8l3 1c1 2 5 2 15 2h15c4-2 10-8 10-11 0-4 4-11 8-14 2-1 3-2 2-6l1-6c1 0 2-2 2-5v-4c1 0 2-3 1-6l-1-3v3zm-52 22 3 1c3 1 2 3-1 3-3-1-3-1-2 2 1 4 2 5 4 3 2-1 2-1 2 1l-1 2-3 2-2 1h-1c-2 2-4 1-5-2-2-3-1-5 0-2 2 2 5 3 5 1l-1-1c-1 0-4-6-4-9s2-4 6-2zm9 4-1-1 1-1v2zm2 9h-2l1-1 1 1zm-3 2-2 5-2 6c0 2-1 3-3 2-2-2-1-3 2-7l2-4 2-4 1 2zm5 2c0 1 0 2-2 2l-2-2c0-3 3-2 4 0zm-16 1-1 7-2-2c-3-2-2-7 1-6l2 1zm41 1c0 2-7 8-9 8l-3 1-9 1h-7l-1-4c0-4 0-4 2-4s2 1 2 3c0 3 0 3 3 3 2 0 2 0 2-2-1-2 0-2 3-2l4-1 3-1 4-1c1-2 6-3 6-1z" />
    <path
        d="M138 94c0 1 0 2 1 1v-2c-1-1-1 0-1 1zM146 99l2 1 2-1-2-1-2 1zM149 105l2 1 2-1-2-1-2 1zM157 110l2 1 1-1-2-1c-1 0-2 0-1 1zM175 121c-4 3-9 4-10 3h-2c0 2 3 2 8 0 3 0 6-2 8-3v-1l-4 1zM62 247l-1 4-1 6c-5 8-5 10-4 20l1 10 1 1c0 2 4 5 10 8h11v-6l1-6 1-5-2-19c0-6 0-7-1-6l-2-1c0-1-1-2-2-1-2 0-2 0-1-2 0-3 0-3-2-1l-2 2v-2c-1-1-2-3-2-1s-3 1-3-1h-2zM93 257c-2 0-8 13-8 16l-1 3-1 6-1 5-1 3 1 3 1 2 1 3c2 1 9 2 10 0l3-1 7-2c7-4 9-9 9-24v-10l-3 1v-3h-1c-1 2-4 1-4 0l-1-2-1 2-1 1-2-2-1-2-1 2h-2l-3-1z" />
</g>

        <svg width="50px" height="50px" viewbox="0 0 100 100" x="5%" y="5%">
            <svg xmlns="http://www.w3.org/2000/svg" xmlns:xlink="http://www.w3.org/1999/xlink" version="1.1" x="0px" y="0px" viewBox="0 0 512 640" style="enable-background:new 0 0 512 512;" xml:space="preserve"><g><g><g><g><path class="icon"
    d="M166.391,500c-1.986,0-3.979-0.59-5.703-1.787c-3.814-2.649-5.302-7.575-3.593-11.894l59.525-150.376L84.598,251.202      c-3.867-2.482-5.545-7.281-4.067-11.632s5.72-7.138,10.312-6.748l153.595,12.987L280.247,87.79      C281.279,83.234,285.329,80,290,80s8.721,3.234,9.753,7.79l35.81,158.019l153.595-12.987c4.588-0.387,8.833,2.397,10.312,6.748      c1.478,4.352-0.199,9.15-4.067,11.632L363.38,335.943l59.524,150.376c1.709,4.318,0.221,9.244-3.593,11.894      c-3.813,2.649-8.948,2.325-12.399-0.784L290,392.074L173.087,497.429C171.197,499.133,168.799,500,166.391,500z M290,368.613      c2.396,0,4.792,0.856,6.694,2.571l91.911,82.824l-46.85-118.355c-1.76-4.445-0.127-9.514,3.896-12.097l105.02-67.409      l-122.096,10.324c-4.957,0.409-9.492-2.889-10.596-7.755L290,135.247l-27.98,123.47c-1.103,4.866-5.627,8.159-10.595,7.755      l-122.096-10.324l105.02,67.409c4.023,2.583,5.656,7.651,3.896,12.097l-46.85,118.355l91.911-82.824      C285.208,369.471,287.604,368.613,290,368.613z"/></g><g><path d="M184.894,222.086c-2.325,0-4.644-0.808-6.509-2.407l-52.656-45.128l-52.656,45.128      c-3.515,3.012-8.64,3.219-12.385,0.498c-3.746-2.722-5.133-7.658-3.354-11.933L83.98,144.22L24.79,108.086      c-3.952-2.412-5.731-7.222-4.3-11.625c1.431-4.403,5.702-7.245,10.313-6.877l69.125,5.559l16.074-67.459      c1.073-4.504,5.098-7.682,9.728-7.682s8.654,3.178,9.728,7.682l16.074,67.459l69.125-5.559      c4.615-0.374,8.881,2.474,10.313,6.877c1.431,4.403-0.349,9.213-4.3,11.625l-59.191,36.134l26.648,64.024      c1.779,4.275,0.391,9.211-3.354,11.933C189.012,221.454,186.95,222.086,184.894,222.086z M125.729,151.381      c2.317,0,4.635,0.802,6.507,2.407l27.297,23.395l-13.814-33.19c-1.895-4.553-0.188-9.808,4.022-12.378l30.685-18.732      l-35.835,2.882c-4.92,0.397-9.386-2.853-10.529-7.65l-8.333-34.971l-8.333,34.971c-1.143,4.797-5.608,8.053-10.529,7.65      l-35.835-2.882l30.685,18.732c4.209,2.57,5.917,7.825,4.022,12.378l-13.814,33.19l27.297-23.395      C121.093,152.184,123.411,151.381,125.729,151.381z"/></g></g></g></g></svg>
        </svg>
    </svg>