<svg xmlns="http://www.w3.org/2000/svg" preserveAspectRatio="xMidYMid meet" viewBox="0 0 2000 1300"
    style="background-color:lemonchiffon"> 
        <style>
            @keyframes glow {
                0% {
                    filter: drop-shadow(16px 16px 20px red) brightness(100%);
                }

                to {
                    filter: drop-shadow(16px 16px 20px pear) brightness(200%);
                }
            }

            path {
                fill: yellow;
                animation: glow 3s ease-in-out infinite alternate;
            }

            .yak {
                fill: honeydew;
            }

            .yak:hover {
                fill: goldenrod;
            }

            .icon {
                fill: honeydew;
            }
        </style>  
        <path class ="yak" d="m408 1-4 5-10 9-6 7-8 7-12 9c-7 5-25 23-37 38l-12 14-5 7a120 120 0 0 1-8 10 380 380 0 0 0-59 108l-6 18c-8 15-11 25-15 40-3 10-4 13-4 23 0 11 0 12-2 14-3 2-7 12-8 20a602 602 0 0 0 6 148l6 19 5 18 6 17 6 16c1 5 4 10 8 16a352 352 0 0 1 19 32 246 246 0 0 0 75 70l17 12 12 7a192 192 0 0 1 40 41c8 9 17 23 17 29l1 5c2 1 2 1 3-1l2-6c0-4-8-21-13-26-5-6-8-10-10-16-2-4-5-8-13-15-5-6-12-11-14-12-6-3-9-5-20-14l-12-9-8-6-7-5-6-4c-3-3-6-6-9-7a262 262 0 0 1-95-170l-4-26-4-26a294 294 0 0 1 5-91c3-23 2-22 10-49 6-23 8-27 14-40l4-11c0-4 8-22 26-58 17-34 18-36 27-46a252 252 0 0 0 18-23l8-10c7-10 25-29 41-43l20-20 6-4c2 0 7-4 14-11l11-11h-8l-8 1zM444 6c2 6 3 12 1 14l-4 1c-2 0-4 1-5 3-3 3-7 6-9 6l-2-1c-2-2-2-2 1-6 3-6 4-8 2-10-3-3-6-1-18 11-9 9-11 11-10 13l4 1c3 0 4-1 7-5s5-1 5 5-3 11-10 15l-11 7-6 4c-3-1-2-5 1-9 6-6 7-16 2-16l-15 14c-18 18-24 27-18 27 2 0 3-1 3-2l6-6c3-3 5-4 7-4 3 1 4 3 1 9-4 7-26 29-31 29-2 0-1-4 2-8 6-8 8-14 4-16s-5-1-8 5l-10 14a325 325 0 0 0-31 40c-6 7-11 16-12 23 0 7-2 11-5 12s-2 5 1 6c2 0 3-1 6-6l7-13c1-4 4-9 6-11l3-7c0-3 4-9 7-11 2-1 7-6 11-13l9-12c1 0 4 3 4 5 1 2 0 4-1 5l-12 16-6 9-4 6-6 8-5 9c-2 2-3 5-4 9-1 7-5 17-8 21l-4 8-15 28c-4 0-1-17 5-29 3-7 3-7 1-9-4-4-9 0-9 6l-2 6c-4 6-5 9-10 23l-4 12 2 16c2 29 1 37-3 42-3 3-5 2-7-3-2-2-2-3-4-3-3 1-5 4-6 15v40c3 3 5-14 5-31v-13l6 4c4 4 4 5 4 10l-2 13-1 13c2 8 1 38 0 42v44c-2 4-2 4 1 11 3 11 4 19 4 29 0 9-1 9-2 9-3 0-3-1-7-17-3-15-6-62-5-74 1-5 1-7 4-9 2-3 3-4 2-5 0-3-3-7-6-9-2-2-2-2-6 2l-4 4v23c0 20 0 23 2 28l3 21a161 161 0 0 0 14 59c6 18 15 36 27 50 7 9 15 20 20 30 3 8 3 8 13 13l15 10c6 5 12 8 21 11l12 5c6 3 18 4 52 4l30-1 3-2 9-5 13-5 8-4 5-4c3-4 4-4 10-5 5 0 6-1 8-3 1-1 3-3 7-4s7-3 13-9l12-9c2-1 7-4 10-8s10-8 12-10l7-7 3-4 8 6c5 5 6 7 7 11 1 13 1 12 5 12 5 1 7 2 7 5s-7 15-12 20l-7 10c-2 6-10 20-16 28s-23 42-28 54l-4 16c0 6-2 12-4 17l-3 6 1 42c0 46 1 62 4 71l2 27 3 38 4 45c1 34 2 36 4 47l2 13c-2 4-4 5-12 2l-5-2-1-18-1-19c-1-2-2 4-2 10l-3 28-9 1c-26 2-24 2-28 6l-7 3-7 4-6 3-5-7c-3-5-4-7-6-7s-2 0-2 9 0 10-5 16l-3 4-1 32c-1 50-2 54-4 56-5 5-20 15-24 17l-8 6c-6 8-13 25-15 37 0 6 0 7 2 12l5 8c1 3 1 3-2 11-4 10-4 15-3 24 2 13 3 18 6 21 4 4 4 8-1 22-6 13-6 18-2 29l3 8h22l1-3 2-6c2-5 8-11 15-12l4-4c2-3 2-3 8-3s11-3 16-8l2-3h20c28 0 39 1 41 3 1 2 3 10 2 13-1 2-2 4-6 5l-9 5-4 4h-40l-1 3-1 4c-1 2 3 2 81 2l78-1c-2 0-3-1-6-5s-3-5-5-5c-3 1-4 1-8-6l-12-12c-6-6-9-10-13-19a276 276 0 0 0-17-30l-3-9c-5-11-8-19-9-27l-2-13-2-12v-7h3l8-2 7-2c2 0 3-1 4-3 1-3-1-7-3-8l-9-4c-7-3-9-3-20-4l-14-1c-1 0-2 1-2 3-1 3-8 14-10 15h-3c-2 0-3 1-6 4-2 3-3 4-7 4s-6 1-7 3c-1 3-3 4-13 4l-8 1-1-3-4-4c-8-3-13-10-11-14 1-2 1-2 3 0l3 1 4-5c3-7 8-12 13-14l5-5c0-2 3-5 5-8l7-12c2-5 4-7 5-7l6-3c9-5 21-8 26-6 3 2 8 0 15-5 5-4 7-4 12-5l13 1 7 1v3c1 3 1 4 5 4s5 1 7 3c1 3 3 4 5 4 4 1 11 7 19 14l9 6 7 6c3 6 6 9 8 9 3 0 10 7 12 13 2 4 3 4 6 4 2 0 3 1 7 6l7 9c1 3 2 3 5 3s3 0 5 4c2 5 8 12 13 15 2 1 5 3 5 5l8 9c8 7 12 13 14 20l8 15 10 15c2 3 5 8 8 10l10 13c5 8 10 13 21 20l10 9 5 5h21l-6-7-10-9c-11-6-15-9-21-14-8-8-13-15-22-30l-11-19-8-11-6-9a592 592 0 0 0-73-75c-3-5-7-9-11-11l-7-7c-4-6-13-14-21-18l-8-6-5-4-6-4-8-4-9-4-8-4-5-2-2-14c-1-6-2-15-4-19l-2-14c0-4-1-6-3-11-5-7-6-12-7-41a436 436 0 0 0-7-79l-2-18c-1 0-2-14-2-31-2-35-4-53-7-59l-1-33c0-27 0-29 2-35l4-17c4-26 4-27 11-42 8-15 11-21 19-30l8-13a390 390 0 0 1 31-42c5 0 6 1 17 12l15 11 7 6 6 5 7 4 7 4c4 0 8 3 12 7 8 9 13 13 19 16l9 6c2 3 4 4 7 4l7 4c5 4 9 5 25 5h12l5-5 5-4 5 4 4 5h17c13 0 16-1 18-2 4-4-2-8-17-9-11-1-12-1-18-5-9-5-25-21-25-24 0-4 7-1 13 6 6 6 10 8 20 9 6 0 9 1 13 3l11 5a62 62 0 0 1 29 17c9 8 10 11 23 37a565 565 0 0 1 27 64l3 14c5 25 6 42 9 92a917 917 0 0 0 6 81 319 319 0 0 0 6 60l4 23 5 17a187 187 0 0 0 22 53c9 11 14 23 11 30l-8 11-11 10-19 19-6 7-7 8c-6 4-11 9-13 13l-7 10c-7 8-16 20-17 24-2 4-2 15-1 26 1 9 5 16 11 21 4 3 4 4 4 8-1 6-5 14-10 20l-3 4h21l5-7 8-8c1 0 7-5 12-11 14-12 16-13 23-13 4 0 5 0 8-3 3-2 4-2 22-3l32-1h14l9 5c5 2 10 6 12 8 8 6 7 6 11 5s4-1 8 3l7 4c2 0 4 1 5 3s4 3 6 4c3 1 5 2 6 5l3 3 3 3c1 3 1 3 11 3h9l-2-2-5-4-7-6-8-7-16-11-16-11-15-10-11-7-9-3-12-3c-5-1-6-2-10-6-3-4-4-4-10-5l-10-3c-5-3-6-3-22-4-21-1-23-1-26-4-2-2-5-3-10-4-9-2-12-3-12-6 0-4 68-76 94-99 14-13 17-14 28-15 8-1 8-1 11-4 4-5 7-6 18-6 8 0 9 0 15-3 5-3 6-3 25-5 21-1 24-2 21-4-3-3-11-3-30-3-16 0-18 0-21 2-6 4-9 5-16 5s-11-1-11-3a213 213 0 0 1 29-52l6-10 9-11 6-9 9-10a282 282 0 0 1 55-53c1-2-2-4-6-4-3 0-4 1-5 3l-6 5-4 4-6 4-8 6-4 3-3 3c-2 3-6 4-7 1l3-10 7-16 4-10 5-10c3-8 27-43 32-47l6-4c3 0 9-4 9-6l-2-3-2-3 5-5a890 890 0 0 1 100-95l4-3 7-4 15-10 13-8 10-4 12-4 10-5 8-4c9-4 9-7-1-7-4 0-5 1-8 3s-8 4-13 3c-4-1-4-2-2-6a262 262 0 0 1 36-46c5-6 8-7 12-1l12 13c10 11 10 11 5 17-2 3-2 3-1 5l8 1c5 1 6 2 9 5l7 5 16 12c9 10 12 11 17 13 3 0 7 2 9 4l8 4 9 5 13 7c7 3 10 3 20 4 11 1 12 1 15 4l4 4c0 2 3 2 49 2h50l2-4c2-5 5-6 19-6 7-1 12-1 15-3l12-2c9-1 13-3 15-6 2-4 3-4 12-5 7-1 9-1 11-3 3-3 6-5 11-5l7-4 9-4 9-5c6-5 18-12 20-12l5-4 8-6c3 0 7-2 9-4l8-4c6-1 14-6 20-11l10-6 8-4 9-3 9-5c3-3 6-5 8-5s5-1 9-5c2-1 5-2 11-2 8-1 12-3 16-6l12-3c10-1 12-2 17-6 4-3 10-4 25-3h11l6 5 7 5 1 1 3 5c6 4 30 32 40 46l14 20 13 19 11 18 14 23c5 9 11 22 15 27l8 15c3 7 13 23 16 26l7 3c4 1 6 2 10 6l11 9 7 4v-6c0-6 0-7-3-10-4-4-15-10-21-12l-6-3c-3-4-7-12-9-20-1-5-6-15-11-25a515 515 0 0 1-21-41 251 251 0 0 0-28-40c-4-6-9-12-14-15l-8-9c-5-8-27-31-32-34-4-2-16-14-19-19-1-3-1-3 1-3l34-2h32l3 3c4 4 11 5 28 5h11l4 4 4 5h13c10 0 13-1 15-2 5-3 3-7-4-9l-8-4-12-4-9-3-5-4-15-3-15-2c-5-3-16-4-60-5h-40l-4-5-6-4c-1 0-3-1-5-4l-5-5-7-4-6-3-7-5c-6-4-19-11-26-12-5-1-6-1-13-9-6-6-8-9-8-11 0-3 1-4 6-4l6-2 17-12 11-4 11-4c2-2 5-3 9-4l11-5 13-5c5 0 10-2 12-3 4-2 6-2 55-2h50l5 2c5 2 7 3 18 3 12 1 17 2 20 5 2 3 6 4 18 5 11 1 13 1 16 3l4 3V395l-3-2c-4-4-10-5-33-6h-18l-5-4-5-4h-43l-4 4-4 4h-11c-13-1-15-2-15-4 1-2 4-3 13-3 6 0 6 0 11-4s4-4 12-5c6 0 8-1 11-3 4-3 4-3 23-4 29-1 28-1 31-5l3-4h37V0h-227l-227 1c2 3-9 11-15 11-2 0-8 5-8 7 0 1-5 3-9 3l-8 4-5 3c-10 2-14 4-20 7l-8 3-4 3c-3 3-4 4-11 4l-14 4c-6 3-8 3-24 4l-19 1-5 5-5 4h-7c-7 0-7 0-12-4l-5-5-20-1c-19-1-20-1-27-4l-15-4c-6 0-8-1-10-3-5-4-20-11-28-13-5-1-8-3-11-5l-4-3-7-5c-5-4-7-5-10-5-4 0-8-3-11-7V1c1-1-75-1-308-1H735l-3 5-6 9c-3 5-15 14-17 12l-2-6c-1-6-2-8-3-4l-3 14c-2 21-4 26-11 34l-6 9-3 5-4-3c-3-2-3-2-4-1l1 7c2 5 2 7-1 7s-5-4-8-17c-3-17-3-17-6-3-1 9-2 10-10 16-4 3-2 6 8 7 5 1 7 5 7 12 0 5 0 7-5 17l-9 17-3 6-6 10-5 8v7c1 5 1 6-1 10-3 5-5 6-6 2-2-5 0-57 3-78l2-9-3-5-3-8c0-2-2-6-4-6l-1 10c-1 9-1 10-4 12l-4 7c-1 2-2 3-9 4-9 2-11 3-11 5 1 2 6 4 11 4 3 0 4-1 8-5 1-3 3-2 5 0s3 10 3 32l-1 17-2 4-8 8-8 5-2 2 2 2c2 2 3 2 8 2 3-1 6-1 7-3 2-2 3-1 4 4s0 10-6 17l-6 10c0 3-2 4-6 6a138 138 0 0 0-7 4c-3 2-8 2-10 1-1-2-2-23 0-25l6-4c6-3 7-6 2-9-6-3-8-5-9-9-2-7-5-4-6 6-1 7-3 9-7 12l-4 4 5 3 5 4 1 10v9h-5c-4 0-6-1-11-4l-6-5 4-5c3-2 4-4 4-5 0-2-1-3-11-3h-10l-1-3-1-22v-20l9-9c9-8 10-11 8-14-3-2-6-1-13 4-2 2-3 1-3-3s-2-8-4-7c-2 0-2 2-2 6 0 8-2 12-10 16-5 3-10 8-10 11l2 4 2 2 3-3 6-4c3 0 6 4 7 9 0 4 0 4-5 7l-5 2-1 9-3 19c-2 13-2 21 0 35 3 13 3 15 8 21l6 9c3 5 6 7 17 9 7 1 7 3 0 4-7 2-12 1-19-2l-11-5c-2-1-5-3-5-5l-7-6c-7-4-10-8-10-17 0-7 1-8 8-14 5-3 4-6-4-11s-9-5-10 2c0 6 0 6-5 9-6 4-6 5-2 10l4 8c2 4 3 6 3 21 0 16-1 18-3 22-1 3-3 6-5 7-3 2-3 4 3 10l4 5v11c2 22 5 21 6-1 0-16 1-19 2-19l6 7 13 17 9 9-3 4-8 7c-5 3-6 5-6 7s1 3 3 4c3 0 6-1 14-6l8-4 3 6 2 11 2 5 1-3 2-15 1-11h6c9 0 14 1 15 3s-5 32-8 37c-2 6-6 10-9 11s-5 0-5-4c-1-5-4-4-5 1-1 6 0 22 1 25 1 2 1 2 3 0l2-3 2-2 2 2 1 6c-1 5-3 9-6 9-5 0-5 1-6 21l-1 19h-3l-9 2c-8 0-9 1-7 4 1 3 8 5 16 6l7 1c2 1 3 12 3 27v9l-4 3c-7 6-12 9-16 10s-4 1-4 4c0 2 1 3 6 3 4 0 6 0 9-3l6-3 2 6-1 4-7 7c-8 5-16 12-20 17-3 5-7 8-10 6-2-1-3-3-3-9 0-8 1-11 6-14 4-1 5-2 5-4 0-4-2-7-7-9l-3-1v-46h3l5-1c4-3 2-7-4-10l-4-2v-18l1-23v-5l10-4 12-6c2 0 3-2 2-6 0-3-3-4-7-4-2 0-4 1-8 5l-6 5-3-2-1-23 1-26c1-5 1-5-2-8-2-3-7-6-9-6l-5 6c-2 4-4 6-9 8l-5 3c0 1 4 4 8 5 4 0 6-1 8-5l2-3c2 0 3 5 3 23 0 26-2 34-9 35-4 2-7 4-7 6s5 4 9 3c6 0 7 0 7 24 0 23 0 26-4 26-1 0-4 2-6 5-5 4-8 6-12 6l-6 3c-3 2-4 3-5 2l-2-28v-27h5c11-1 12-9 1-11-5-2-5-3-5-27v-22l3-1c5-1 7-3 7-5s-4-4-7-4c-4 0-4-1-4-30v-27l5-1c7-1 11-3 11-5s-2-4-10-7c-6-2-6-3-7-6-1-9-3-8-6 4l-1 9-8 5-10 6c-3 0-4 1-4 4 0 4 2 8 5 8 1 0 4-2 6-5 5-6 9-7 10-2l1 58v55l-6 4-13 11c0 3 3 5 7 5 3 0 4-1 6-4 6-8 7-3 7 22v18l-4 6c-4 5-6 7-12 9-3 1-4 5-1 7 2 1 9 1 12-1s5 3 5 21v17l-4 6c-3 5-3 6-2 8 2 2 7 1 12-3l8-4c4 0 8-3 8-6 0-1-5-4-11-5h-4v-38l3-3c4-3 8-6 13-6 3-1 5-2 8-6 4-5 8-6 9-1l1 46-7 1c-10 2-13 8-3 8 5 0 10 2 11 5 1 5 0 13-2 18-3 5-9 10-15 11-2 1-4 2-6 5-4 3-7 4-10 1l-2-5-2-6c-1-3-1-3-3-2l-2 9-2 8c-2 4-7 6-16 7-8 1-8 1-12 5s-4 4-7 3c-3-2-5-5-5-11s2-10 5-11l6-3 11-7 8-6c1-3-11-4-15-2l-4 3c0 2-1 2-4 2l-5-2c-2-3-1-28 1-34 1-6 5-11 10-12 3-1 3-1 4-4 0-5-7-8-11-4-2 3-4 3-5 0s0-44 1-47c1-2 2-3 5-4 6-2 10-4 10-6l-4-3-5-4-2-15c-3-19-4-18-6 4-2 15-3 17-8 21l-4 5 2 6c3 4 3 5 3 26v21l-3 3c-3 4-3 4-1 7 3 5 4 9 5 30l1 21-8 1c-5 1-8 2-12 5-6 4-12 4-15 1-2-2-2-3-2-17 0-16 0-18 5-23 3-2 10-6 13-6 5 0 8-5 5-9-1-2-2-2-5-2-4 0-5 1-8 4-7 7-9 5-10-9-2-13-1-29 1-33 2-3 10-10 14-11 9-1 11-4 7-8-3-3-7-3-13 1-7 5-8 5-8 2v-55l5-1 5-3-2-6-3-5V306l4-3 4-4-4-5-4-4v-21l2-24 7-8c6-4 8-8 5-10-2-2-5 0-8 4l-2 3-4-4-5-4-1 3-7 11c-5 8-6 12-3 12l4-1c4-3 5-1 4 23 0 25 0 27-5 28-3 1-15 8-16 10l-1 4c1 3 1 3 5 4 5 0 5 0 7-3 3-5 7-5 9-1l2 23v20l-3 3-10 6c-8 5-9 6-6 10 4 3 6 3 11-2l6-4c2 0 2 8 2 28-1 20 0 20-7 28-5 5-5 7-2 12 2 4 3 6 3 28-1 23-1 28-4 28-5 0-10 5-8 9 1 2 2 2 7 2h5v10l-1 21c-1 14-2 17-9 19-8 3-5 9 4 10l6 1-1 14-1 18c-1 5-6 9-9 9-8 0-25-18-25-26 0-2 6-8 9-8s8-3 8-5l-7-4c-5-1-7-3-8-4-2-4-2-27 0-34s7-13 11-13l4-2c2-4 1-6-5-6l-5-1v-52l3-3 8-3 7-2c1-2 1-2-1-5s-7-4-12-2l-4 1-2-26v-26h5l6-2c1 0 0-3-4-9-4-8-4-9-6-8l-2 8-1 8-6 3-5 3 3 6 3 5 1 17c0 23 0 25-6 29l-4 3 4 4 4 4 1 27v28l-7 1-8 2c-2 3 0 6 4 8l4 2v23l-1 24c-1 2-4 0-15-12-12-11-12-13-11-21 1-6 2-8 6-8l6-2c2-2 2-2 1-4-2-3-3-3-8-3s-5 1-6-1c-1-5 1-39 2-42 1-4 10-12 15-15 5-2 7-4 5-8 0-2-1-2-4-2s-4 1-6 4l-4 4-3-4c-3-5-5-5-9 2-5 8-6 9-10 11-6 2-5 6 3 11l4 2v20c-1 19-1 24-3 24s-9-13-13-23c-4-9-5-11-6-10-2 1-1 8 1 15 3 9 4 16 2 19-2 1-2 1-4-5l-4-12-6-12c-3-8-3-8-1-10s2-2 7-1c9 2 11-1 7-10-1-2-3-9-3-14s-3-11-3-14c-2-5-2-11 0-20 1-7 1-7-1-14-1-6-2-11-2-29 1-24 1-25 6-26 3-1 7-3 7-5l-3-5-4-4v-46h3c4-1 8-4 8-5l-4-6c-3-4-3-5-3-8l2-14c1-7 1-9 3-12 3-3 7-13 8-18 1-2 8-13 10-14 1 0 2 2 3 14 2 19 3 18 5-2 1-15 2-19 6-22l3-3-4-4c-5-6-5-7-2-10l5-12 8-18c6-12 17-28 19-28l2 29v28h-3l-6 3-3 2 5 5c11 9 15 9 15-1 0-3 3-7 8-10 2-2 2-2 0-3-1-1-3-3-5-3-5-3-5-4-5-30 1-21 1-23 3-29l3-10c1-3 2-5 6-9 13-13 20-19 24-21 3-2 4-4 6-9 2-6 3-7 7-9l12-8 8-4 4 5c4 7 4 6 6-8 1-7 1-9 5-13l6-10c4-6 6-7 13-7h6v18l1 20c0 2 0 3-4 4l-7 4c-1 1-1 1 1 3l5 5 4 3v22l1 22-6 2-6 4 5 4 6 2v56l2 2 4 5a296 296 0 0 1-2 54l2 13c2 15 4 15 6 0l3-12c1-3 6-8 8-8l3-2c2-2 3-3 3-5-1-2-1-2-8-3h-8v-25c-1-25-2-32-5-35-2-3-3-14-1-31 1-12 2-17 5-18 7-3 10-5 12-8 3-5 4-9 1-10-2-1-3-1-8 2-5 2-7 3-8 2-2-1-2-2-2-21 0-23 0-25 6-26 2 0 5-2 6-4 2-2 4-3 7-3l9-4 9-6 10-6c6-4 7-5 7-7s0-3-5-4c-9-3-9-3-9-22 1-17 1-17-2-17l-3 4v21c1 13 1 14-3 20-4 8-5 10-11 10-5 1-8 3-10 7-1 2-2 2-4 2-3 0-4-1-5-2l-3-31c0-11 1-13 8-18l16-12c1-1-8-1-20-1h-22l3 6zm711 311 9 5c6 1 8 2 9 4 1 5-5 17-9 17-1 0-1-1 1-11 0-2 0-3-2-4-3-1-3-1-6 1l-6 9-3 6h-23c-25 1-29 1-30 6 0 2-1 2-5 2s-5 0-6 3c-2 3 0 7 4 8 7 3 7 4 1 6l-6 3c-2 3-4 5-6 5s-2-3 0-6c4-4 4-6-2-10l-6-3c-2 0-5 5-15 21-9 15-10 20-8 27 1 6 4 5 8-3l14-22h2c1 1-1 5-5 12-7 15-7 21-4 29 2 3 3 6 3 10 0 7 2 10 5 11 2 0 3-2 12-27l6-10c10-16 11-18 13-18 3 0 5 2 5 9 1 6 2 9 8 20 9 19 23 35 33 40 5 2 7 2 15 1h8c6 4 5 11-2 12-4 1-6 3-6 6 0 4 3 10 5 10 4 0 12-7 21-17 8-8 12-13 17-22 7-14 9-16 14-15 10 1 9 1 10-5l-1-7c-1-2-2-2-5 0l-4 2-4-3c-7-5-10-12-11-23 0-8-1-9-7-22l-8-17c0-3 1-4 3-2 2 3 6 2 7 0l3-8c3-7 4-10 2-12-1-2-5 0-12 7-9 8-12 10-14 10-3 0-3-4 0-8l6-8 3-5-4-3-5-4c-1-1 3-2 6-2s7 2 13 5c8 4 9 4 13 4 5-1 6-1 7 5 1 3 2 4 5 4 5 0 12 8 14 15 0 3 4 12 8 19 6 13 7 15 8 22v7l7 8c4 3 8 9 9 11 2 5 2 5 1 8l-2 4 5 11 5 12 5 11 6 18 7 21c3 7 5 18 6 23 3 9 9 29 15 43 2 6 4 14 4 22 0 5-1 8-7 21-8 15-11 24-13 33 0 3-3 11-9 23-11 21-14 27-20 30-3 2-5 5-13 21a268 268 0 0 1-32 49 899 899 0 0 1-28 30l-12 8c-3 2-8 6-10 10l-6 7c-2 1-25 2-30 1-3 0-5-2-7-4l-4-4h-47c-2 0-5-1-9-4l-7-5h-10c-10-1-11-1-15-3l-8-5c-5-2-8-3-10-7-1-3-1-3-8-3-7 1-7 1-9-2-1-2-3-3-5-3s-5-3-7-4l-8-6c-4-3-8-7-10-13-2-3-3-3-7-4l-8-9-15-19c-5-7-11-14-12-18-3-5-3-6-6-6-5-1-11-8-14-14-1-4-2-4-5-4s-4 0-7-4l-3-5 4-7 3-9v-4h-4c-4 0-4 0-7 5l-5 6-5-4c-3-4-4-5-6-5-3 0-4-1-7-3s-3-3-5-3c-3 1-4 0-7-4-1-4-2-5-6-5l-7-4-6-3-6-1c-3-2-4-4-6-13 0-4-3-6-8-6l-5-1v-2l3-1 4-3c2-3 3-4 7-4s5 1 5 7l1 8c2 4 5 4 5 1 0-5 2-6 11-7 12-2 13-3 13-4l-4-11c-5-11-6-17-5-21s4-6 5-4l14 26c4 7 5 9 11 13l9 10 6 6 7 3c6 2 12 7 12 9l-3 6c-6 7-3 8 13 8 9 0 12 0 13-2l2-2 1-3 9-16 7-14-1-6a101 101 0 0 0-14-29c-3-6-6-11-12-14-4-3-6-4-7-8-2-5-3-5-6-5l-6-3c-2-2-4-3-7-3-4 0-5-1-7-5-2-5-2-5-5-4-5 2-8 1-15-4l-9-5-1 3-2 5c-1 2-2 2-7 1-5-2-6-2-11-10-1-1-1-1-5 1-3 1-7 3-9 6s-6 4-9 5c-3 2-5 4-7 8-5 9-6 12-3 20 3 10 2 13-3 15-3 1-3 1-3 5s0 4 4 5c5 0 6 1 6 3l-6 2c-4 1-4 1-6 5 0 3-2 5-2 5l-4-4c-1-2-3-5-5-5-3-1-13-12-13-15l-12-23-11-25c0-2 1-2 4 2l8 4 12 5c9 4 13 4 20 4 7-1 9-3 9-7 0-2-1-3-3-3-5-1-9-6-15-18l-4-12c0-3 1-3 5-3h18l12 1v-7c0-7 1-11 3-8l3 4c1 2 13 3 43 3h28l6-4c5-4 8-5 12-6 7-1 8-2 8-3 0-3 2-4 9-5 8-1 11-2 25-13l15-10c9-5 12-8 10-11 0-3-4-4-10-4-5 0-6 0-8 4-3 3-4 3-9 3-4 0-5 0-6-2l-2-5c0-3-2-4-4-2l-16 1c-12 0-14 0-16-2l-7-4-5-4-7-6c-3-1-5-3-5-4l-4-2c-5-3-12-10-16-15-7-11-6-14 2-9l9 6c4 3 5 3 8 3 4-1 5 0 7 5 0 2 1 3 6 3l22 1h18l3-4c6-5 9-6 19-5h8l7-5c9-7 10-9 7-15-3-5-5-5-7 1l-2 6c-1 1-35-1-36-2l-3-4c-1-3-1-3-7-3-5 0-6 0-12-4l-15-12-12-11-8-7c-1-3-4-6-6-7-6-3-7-7-2-7 3 0 8 3 14 8l4 3 5 3c5 5 6 5 15 4l8-1 8 6c8 6 8 6 11 5 3-2 32-2 34-1l8 5c4 3 6 4 9 4 6 0 10-3 13-9 3-4 5-6 10-9l12-7c10-3 12-4 14-8 2-3 3-3 6-3 4 1 4 1 6-3l2-3h5c5-1 6-2 6-9 0-8 1-9 11-9h30c23-1 23-1 26-3 3-3 8-6 10-6l6 4zm11 54c4 2 13 11 13 13 0 4-8 11-12 11-6 0-11-7-11-18 0-7 3-9 10-6zm-403 81c4 10 13 21 17 23 3 1 4 3 5 6s4 5 9 5l4 2c0 2 1 2 7 3 4 1 6 3 4 5h-9c-11 0-15 0-19 5-4 4-6 4-6 1l-3-7c-3-6-7-17-8-25l-4-13-3-8c0-4 3-2 6 3zm623 87 7 5 4 2 3 5 5 6 6 3c4 0 5 1 6 4s1 4 5 5c6 1 6 3 0 5-4 1-5 2-6 4-2 6-4 4-12-9l-12-15c-7-7-11-13-11-18 0-3 2-2 5 3zm442 30c6 4 9 5 15 6l9 4 6 4c8 2 10 2 12 5l6 5 12 9 13 8c4 0 5 1 5 3 0 3-2 4-14 5-9 1-11 2-15 4-5 3-6 3-20 4h-14l-2 4-4 5-12 1c-8 0-12 1-15 3l-12 3-10 2a116 116 0 0 0-5 4c-2 2-5 3-11 4l-14 4c-5 3-7 3-18 4-12 1-12 1-16 4-3 3-5 4-7 4-5 0-10 2-14 5-3 3-5 4-9 4-11 2-18 3-21 5a862 862 0 0 1-137-2l-8-2c-5-1-7-2-11-5-5-3-8-4-15-5l-8-5-5-3-6-4-7-5-7-6-13-9c-8-6-23-20-26-25s-7-16-7-20c0-3 1-5 5-9 6-6 9-6 14-2 2 2 5 3 7 3 3 1 6 2 8 5l8 5 6 4 6 2 10 5 9 6 5 2c1 2 9 5 14 6 7 1 9 2 10 8l2 5 4-2c3-2 6-2 13-3h9l6 5 6 5h54l55-1 4-4 3-4 15-1c13-1 14-1 20-4l12-4c5-1 7-2 9-4 3-3 5-4 9-4 6-1 11-3 13-5l7-5 7-5 5-2c3 0 7-2 10-4l9-6c6-3 8-5 12-10 4-4 6-6 9-7 5-1 5-1 10 3zm-923-2c4 2 16 14 19 19l2 3-2 2c-3 2-11 3-13 1l-8-10c-7-9-9-13-5-15h7zm-496 37 1 8v5h-12l-14-1c-3-2-2-4 1-6 2 0 5-3 8-5 4-4 4-4 9-4s6 0 7 3zm924 20 3 5 3 6 3 8 4 7c3 5 3 8-1 9-4 3-11 11-14 17-2 4-4 6-7 7-3 2-4 3-14 18l-13 17a135 135 0 0 0-11 13c-1 0-1-4 1-10l3-15c1-10 5-19 9-26l3-6 5-10 6-15c2-10 7-27 9-30l3-5 2-2 2 4 4 8zM954 868l16 32 19 36c9 13 31 33 44 40 4 2 5 3 5 9 0 3-1 4-6 8-6 6-9 12-9 18s2 6 6 3c3-3 4-3 14-3 16 0 18 2 11 11l-7 8c-2 3-3 3-9 4h-6l-9-9-13-14-9-12-8-12-7-10c-4-6-11-25-14-38-1-6-13-35-18-47-3-6-4-8-4-15 0-9 1-12 4-9zm116 114c-1 7-4 14-8 16-4 1-12 1-13-1 0-1 18-20 20-20l1 5zm-616 158c2 0 4 3 2 4l-5 7c-3 4-5 7-10 9-8 5-11 11-13 25-1 6-4 9-11 9h-5l-1 5c-1 6-2 7-7 4h-5l-1 4c0 3-4 2-7-2-2-3-2-4-1-7v-12l3-12c4-5 10-9 18-12 3 0 5-2 6-3 1-2 4-3 6-4 3-1 5-2 6-5s2-3 7-3c7 0 7 0 7-3 0-4 5-6 11-4zm7 62c7 6 11 7 17 5h25c4 2 8 7 8 11l-3 6-3 3h-18l-26 2c-6 0-7 0-8 3-3 5-4 5-8 3-4-1-4-1-7 1-4 2-7 6-5 9 2 4 9 5 19 3 4-1 6-2 7-4 1-3 2-3 11-3h11c2-1 3-1 7 3 4 3 4 3 16 5l13 1 2 2-8 15c-3 2-4 3-17 3h-13v3c0 4-3 5-12 5s-13 2-15 6l-2 4h-8c-15 0-20 1-22 4-2 2-3 3-6 3-4 0-7 2-7 5 0 4-1 5-4 5-2 0-4 1-6 4l-3 3-1-11c0-11 0-12 3-14l3-7c1-7 4-12 9-14 3-1 6-4 7-6 3-2 4-3 7-3s4 0 4-3c2-9-11-12-18-5-3 4-4 4-6 3-3 0-6 2-6 5l-1 4c-1 2-3 0-7-6l-3-4 3-6 7-14c4-10 12-20 16-23 3-2 5-2 8-2 6 1 7 0 8-4 2-4 2-4 10-3h8l6-2 7 5z"/><path d="M912 542c1 8 2 10 7 10l7 3c6 5 21 6 25 2 2-3 1-5-3-8s-4-3-8-2c-5 2-7 1-8-4-2-3-3-4-7-4l-7-1c-6-3-6-3-6 4zm62 47c-3 3-1 12 6 24l7 14c2 7 7 14 10 14l1-12c0-14-1-23-4-27l-6-4-8-6c-3-4-4-5-6-3zm158 58a509 509 0 0 1-25 19l-22 18-10 9c-5 5-6 7-6 10-1 3-1 4-5 5-3 0-5 1-5 3-2 4-1 13 1 15 3 3 10 4 17 4l7-1 5 5 10 6c3 1 7 3 8 5 3 2 3 2 15 2 11 0 13 0 18-3 7-3 9-7 11-15l3-10c1-3 2-8 2-20l1-16-4-4-3-6c3-8 2-10-2-19l-4-11c-1-3-4-2-12 4zm-13 27-9 12a336 336 0 0 0-24 33c-2 0-3-12-1-16 3-5 14-19 21-24 3-4 7-7 7-9l1-2 3 2 2 4zm-133-7 3 15c2 2 3 6 3 7 1 5 8 7 22 8 23 1 31-4 22-14-3-4-12-9-16-9l-6 1c-4 1-7 0-10-4-2-3-5-5-12-6-5 0-5 0-6 2zm190 62c-11 8-20 23-20 31 1 3 1 3 5 3s5-1 8-4l7-6 7-8c2-4 3-6 3-10 0-6-1-9-4-9l-6 3zM531 10l-1 14c0 4-1 4-5 6-6 3-6 6 0 9 5 2 5 2 7 8l3 7c1 0 3-5 3-14 1-6 1-8 3-9l4-4c1-2 2-3 7-4 7 0 9-2 9-6 0-3-2-5-6-5s-7 2-10 6l-3 3c-2 0-3-3-3-12l1-9h-9v10zm37-7c1 7 2 11 4 13l3 11c2 12 3 12 4-1 2-13 3-17 7-22l4-4h-23l1 3zm90 2-1 10c-2 4-3 5-6 6-5 1-9 5-8 8l8 1 8-1v6c1 7 2 10 3 9l3-9c3-19 3-18 10-22 7-3 8-5 4-7-3-2-5-1-8 2l-4 2-2-7c1-3 1-3-3-3h-4v5zm-41 23-1 4c0 2-5 10-7 12l-6 3c-5 3-6 5-4 7 2 3 5 2 10-1l4-3c1 0 3 3 4 7 2 8 4 6 6-6 1-9 3-12 8-12 4 0 8-2 9-4 0-3-3-5-7-5l-9-2c-5-4-6-4-7 0zm-42 24-1 5c0 2-1 4-4 7-4 5-4 6 3 9l5 3v43c-1 2-2 3-5 4l-5 3c-1 4 2 7 5 7 5 0 7 2 8 12 0 9 1 11 3 9l2-11c1-11 2-14 4-20 3-5 2-7 0-8-2 0-3-2-3-2l-1-22V71l3-5c2-2 3-5 3-7s-3-5-6-5l-4-2c-4-4-6-4-7 0zm-42 16-1 10-1 8-5 3c-4 2-4 3-5 6v4h7c9 0 10 1 10 8 0 5 0 7 2 7 2 1 2 0 2-10 1-9 3-13 9-17 9-6 10-8 10-11 0-2-1-2-7-2s-7 0-10 2c-3 4-5 3-5-2-1-5-3-8-4-8l-2 2zm-35 0-1 16c-1 19-2 21-7 23-6 3-8 8-3 8 3 0 8 3 9 5 1 4 0 49-1 51l-6 5c-5 4-5 5 0 6 4 2 5 3 7 8 2 4 2 4 4 3l1-8c0-6 1-8 7-10 4 0 6-5 6-11 0-4 0-5-2-5l-6 2h-4c-2-3 0-43 2-48l4-5c4-2 5-3 5-7 0-3 0-3-10-6l-1-12-2-14c0-2-2-3-2-1zm-83 22-9 7c-5 2-5 4-3 8 2 5 6 5 9-1 1-3 1-4 2-3l2 23c0 21-1 22-3 26s-3 5-7 7c-6 3-7 5-4 8 1 2 5 2 11 1 1-1 2-1 2 2l1 26v23h-4c-6 0-12 2-12 4 0 3 4 5 8 5l5 2c2 2 3 11 3 29v15l-3 2-7 6-7 4c-4 2-5 2-6 4 0 2 1 6 3 7 3 1 6-1 9-5 2-3 3-4 5-4 4 0 6 3 7 15 2 21 3 22 5 4l2-17 1-7 4-2c4-1 5-2 5-5 0-5-2-7-8-7h-4v-6a576 576 0 0 0 3-42l4-1c3 0 6-3 5-5l-6-5-6-3 1-21c0-35 1-36 8-34 5 1 9-1 9-6v-3h-15l-1-4-1-26V87l-3-3-5 6zm-34 8-1 7c-1 7-2 8-6 10l-11 7c-6 5-7 6-6 8 2 3 4 3 9 0 7-5 10-6 13-3l1 21-1 21-7 6c-11 5-15 12-11 16 2 3 5 2 8 0 3-4 4-2 5 11 1 11 2 17 4 15 1 0 2-6 3-24l1-16 7-1c7-2 8-4 1-11l-4-5v-19l1-22 5-4c5-3 6-4 3-6l-7-7c-5-6-6-6-7-4zm-41 132c-2 6 0 28 2 29h14c3-2 2-4-5-9l-7-6v-7l-1-7c-1-3-3-2-3 0zm-32 41c-3 4-6 5-7 2-1-2-3 0-6 6-2 4-4 5-9 6-4 1-4 3-2 7 1 3 2 3 6 2h5v22c0 25-1 26-8 28-5 2-7 5-9 11-2 4-1 8 1 8l6-7c0-3 2-3 7 2 5 6 7 5 7-3v-7l8-4c9-4 16-10 16-12s-2-4-5-4c-2 0-3 1-5 3l-2 4c-1 2-6-2-8-6-1-4-2-38 0-42 4-6 6-7 13-8l7-2v-3c0-4-1-6-7-7-5 0-5 0-8 4zm30 32v7c1 6 1 7-5 9-8 3-7 6 2 11l3 2v15c0 15 1 19 3 16l1-28-1-31c-2-3-2-3-3-1zm79 32c-1 7-3 9-8 10l-9 4-7 3-4 2c-2 2-3 3-3 5 1 6 8 5 17-1l8-4c4 0 5 2 5 26v22l-4 3-3 4 3 4 4 5c1 2 4 4 5 2l2-7 1-7h7c7-1 9-2 9-6 0-3-4-4-11-4l-5 1v-16c-1-22 0-32 3-36 2-3 2-4 1-6-2-5-7-10-8-10l-3 6zm-122 54c-1 1 0 3 1 5 2 6 2 8-5 11l-10 5-6 3c-5 1-5 10 0 10 2 0 10-3 15-7h5v13c3 2 4 0 5-8 2-16 1-15 7-15l8-1h4v-9h-5c-10 0-13-1-15-5-1-3-3-4-5-2zm208 307-1 4-2 10c-2 7-2 9-2 61v55a1 1 0 0 0 2 0l1-53 1-51 2-7c3-8 4-14 3-17s-2-4-4-2zm1359 59c0 2 5 9 11 16l9 10c3 5 13 15 15 15l2 2 5 8 15 18c22 30 24 33 26 31 3-2-3-13-8-15l-7-11c-6-13-8-16-14-21-6-4-12-11-23-25l-10-12-11-10c-6-7-10-9-10-6zM437 767a2405 2405 0 0 0 1 170c3 4 6 3 5-1l-3-110-2-59c-1-3-1-3-1 0zm838 57c-3 4-2 5 31 5 42 1 58 0 54-4-1-1-11-2-42-2l-43 1zm431 1-3 11-5 17c-6 16-3 22 5 10l6-10c5-7 5-30 0-30l-3 2zm-337 6c-2 1-1 5 1 6l10 1h8l4 4c3 4 4 5 10 5 7 1 13 3 15 6l7 3c4 1 6 2 9 5l7 5c3 0 6 2 8 3l8 3c6 1 7 2 17 12l15 13a592 592 0 0 1 82 122l7 22c3 14 5 19 8 19s2-4 2-17c-1-17-3-23-19-54-14-28-16-33-29-47a500 500 0 0 1-37-44c-10-11-27-25-32-26l-6-4c-3-4-4-4-8-4s-5 0-9-4-5-5-8-5l-8-3-7-4c-3 0-8-2-12-5l-6-3c-3 0-4-1-8-5l-4-5h-12l-13 1zm-867 5a1260 1260 0 0 0 3 88c2-1 2-72 1-84-1-9-3-10-4-4zm1162 95-4 6-4 10c-3 7-4 16-2 16s10-14 14-25 2-15-4-7zm-17 43-6 11-5 12c-3 5-4 13-2 13s5-4 10-15c6-10 8-19 8-22-1-3-2-3-5 1zm273 2-3 4-7 3c-4 0-6 2-10 5-5 5-5 5-9 4-4 0-8 1-8 4l-4 3c-6 1-9 2-14 6-3 3-5 4-10 4l-9 3c-2 3-11 7-22 13l-10 6-10 5c-6 2-12 7-14 12l-6 4c-5 0-22 10-34 19l-16 10-12 8-9 6-5 3-5 4c-3 1-7 3-8 5l-5 3-7 5-7 5c-6 0-18 7-24 13l-8 4-13 4-7 3h-16c-16-1-16-1-19-3-3-4-4-10-2-15l2-7v-4l-3 2c-4 3-7 9-10 18l-5 15-3 8 2 2c2 2 4 2 14 2h13l5-4 5-4 12-1c11-1 12-1 16-4s7-4 12-5c4 0 7-1 11-4l5-3 7-5c3-3 6-4 7-4 5 0 18-11 18-15 0-2 4-3 9-3 4 0 5-1 9-4l6-4 6-4 6-4 4-3 7-5 8-4 6-5c2 0 5-3 8-5l19-12 6-5c2-2 6-3 7-3l10-5c4-2 8-5 11-5l6-4 5-3c2 0 5-3 8-5 7-5 16-11 22-12 3-1 6-3 7-5 2-2 4-3 8-3 4-1 6-2 10-6s5-5 8-5l9-3 8-3 8-5c4-4 5-4 11-5 8-1 10-2 10-4-1-4-14-6-17-2zm-291 42c-3 3-14 27-14 30s3 7 4 7 10-18 13-27c3-10 2-15-3-10zm-414 9c-4 1-5 4-2 6 2 2 97 2 101 0s4-4 1-5c-4-1-96-2-100-1zm395 35-4 7c-3 3-3 6-4 13l-2 14c-1 5-1 8 1 8l1-3c1-2 2-5 4-6 3-4 10-26 10-31 1-4 0-4-2-5l-4 3zm-267 0-2 3c-3 3-4 3-9 3-6 0-9 2-15 7-2 2-3 3-16 3-10 1-15 1-20 3-6 2-10 2-58 3-96 2-106 2-108 4v2c3 2 25 3 99 3h67l5-3c5-3 6-3 19-4s14-1 19-4c2-2 7-3 9-4 4-1 6-2 9-5l7-6c2-1 4-2 4-4l-5-2-5 1zm243 7-1 17 1 15 4 3 1-17c0-16-1-21-3-22l-2 4zm-32 111-5 4-5 3c-1 0-4 2-6 5l-7 5-6 3-8 6-16 10-9 6c-6 3-5 6 2 6 5 0 16-5 22-10l11-7 14-10c19-19 18-19 17-20-1-2-2-2-4-1zm-127 87-10 7-9 7-5 4-9 5c-5 3-10 8-24 22l-17 18h18l15-15c14-14 30-29 35-32 3-2 8-1 11 3l8 5c6 2 14 7 19 12l8 5 11 8 10 8 6 4c1 2 2 2 17 2 14 0 15 0 14-2-2-2-6-4-10-4l-8-5c-2-3-6-5-7-5-5 0-13-5-17-10-4-6-8-9-15-13l-8-6a130 130 0 0 0-24-16c-4-3-5-4-9-2z" class="yak"/>

        <svg width="200px" height="200px" viewbox="0 0 200 200" x="5%" y="5%">
            <svg xmlns="http://www.w3.org/2000/svg" xmlns:xlink="http://www.w3.org/1999/xlink" xml:space="preserve" version="1.0" style="shape-rendering:geometricPrecision;text-rendering:geometricPrecision;image-rendering:optimizeQuality;" viewBox="0 0 264.41 305.6" x="0px" y="0px" fill-rule="evenodd" clip-rule="evenodd"><defs><style type="text/css">
   
    .fil0 {fill:black;fill-rule:nonzero}
   
  </style></defs><g><path class="icon" d="M82.19 0.91c5.23,-0.05 5.23,0.16 5.23,0.53 0,0.39 0.02,0.91 3.9,1.3 3.91,0.33 8.01,-0.07 12.1,-0.58 5.1,-0.81 10.21,-1.76 15.54,-1.89 5.33,-0.13 5.31,1.2 5.31,2.72 0,1.32 0.02,2.71 3.83,3.17 3.72,0.54 7.73,-0.69 11.64,-1.94 4.75,-1.56 9.49,-3.31 13.61,-2.22 3.55,1.65 2.63,5.03 1.58,8.7 -0.95,3.18 -1.86,6.42 -0.44,9.26 1.23,3.04 3.32,2.81 5.31,2.6 2.34,-0.26 4.41,-0.49 4.57,4.56 0,5.2 -1.5,10.32 -2.81,15.37 -0.99,4.11 -1.84,8.19 -1.55,12.17 0.38,3.9 1.3,3.93 2.14,3.97 0.89,0.03 1.63,0.03 1.5,5.36 -0.07,5.27 -0.39,10.35 -0.56,15.38 -0.03,4.08 0.05,8.15 0.48,11.98 0.02,1.13 0.02,2.24 0.03,3.32 -0.79,-5.22 -0.92,-10.28 -0.92,-15.32 0.12,-4.06 0.36,-8.15 0.23,-12.01 -0.05,-3.95 -0.69,-3.97 -1.41,-4 -1.05,0 -2.24,-0.07 -2.94,-5.35 -0.64,-5.35 0.38,-10.45 1.53,-15.52 1.07,-4.1 2.24,-8.19 2.06,-11.99 -0.28,-3.74 -1.92,-3.64 -3.73,-3.5 -2.47,0.26 -5.08,0.53 -6.77,-3.78 -2.22,-3.78 -1.12,-7.8 -0.15,-11.55 0.66,-2.78 1.4,-5.54 -1.4,-6.75 -2.96,-1.04 -6.76,0.3 -10.61,1.58 -4.77,1.41 -9.67,2.83 -14.71,1.89 -5.19,-0.82 -5.19,-2.63 -5.19,-4.24 -0.02,-1.2 -0.03,-2.3 -3.96,-2.35 -3.95,-0.07 -8.04,0.66 -12.12,1.25 -5.1,0.63 -10.19,1.1 -15.49,0.41 -5.26,-0.74 -5.28,-1.41 -5.23,-1.93 -0.03,-0.3 -0.05,-0.49 -3.91,-0.61 1.08,0 2.22,0.02 3.34,0zm-81.37 68.91c0.76,5.21 0.89,10.28 0.9,15.33 -0.15,4.06 -0.35,8.13 -0.25,12.03 0.07,3.92 0.69,3.93 1.41,3.98 1.04,0 2.25,0.03 2.93,5.35 0.66,5.33 -0.38,10.43 -1.51,15.5 -1.04,4.06 -2.22,8.18 -2.04,11.98 0.26,3.75 1.91,3.65 3.72,3.52 2.45,-0.25 5.08,-0.54 6.77,3.77 2.19,3.82 1.08,7.83 0.1,11.6 -0.67,2.8 -1.4,5.54 1.38,6.76 2.96,1.02 6.79,-0.33 10.62,-1.58 4.75,-1.43 9.64,-2.83 14.72,-1.93 5.21,0.81 5.19,2.63 5.18,4.26 0.02,1.2 0.02,2.29 3.95,2.35 3.93,0.07 8.06,-0.66 12.15,-1.28 5.1,-0.61 10.18,-1.07 15.49,-0.41 5.26,0.76 5.24,1.45 5.26,1.91 0,0.33 -0.02,0.51 3.85,0.64 -1.08,0 -2.19,-0.02 -3.25,-0.02 -5.26,0.05 -5.31,-0.15 -5.3,-0.53 0.02,-0.41 0,-0.89 -3.88,-1.28 -3.93,-0.35 -8.01,0.05 -12.13,0.58 -5.08,0.81 -10.13,1.74 -15.47,1.88 -5.31,0.13 -5.38,-1.19 -5.36,-2.68 0,-1.32 0,-2.73 -3.8,-3.21 -3.73,-0.51 -7.73,0.69 -11.67,1.97 -4.75,1.56 -9.42,3.26 -13.56,2.19 -3.54,-1.66 -2.63,-5.04 -1.59,-8.69 0.97,-3.19 1.87,-6.42 0.46,-9.28 -1.23,-3.04 -3.32,-2.83 -5.28,-2.62 -2.35,0.28 -4.41,0.46 -4.55,-4.59 0,-5.2 1.5,-10.28 2.8,-15.32 0.97,-4.11 1.84,-8.21 1.51,-12.16 -0.35,-3.93 -1.28,-3.95 -2.1,-3.97 -0.89,-0.05 -1.63,-0.1 -1.5,-5.39 0.07,-5.28 0.39,-10.32 0.56,-15.32 0.02,-4.11 -0.07,-8.16 -0.46,-12.03 -0.02,-1.1 -0.03,-2.2 -0.03,-3.32zm-0.18 -10.17c1.43,5.22 1.92,10.3 2.28,15.38 0.1,4.08 0.13,8.13 0.71,12.03 0.56,3.9 1.46,3.93 2.43,3.98 1.33,-0.03 2.84,-0.03 4.18,5.3 1.33,5.32 0.66,10.41 -0.17,15.5 -0.79,4.06 -1.71,8.18 -1.05,12 0.72,3.75 2.61,3.67 4.65,3.57 2.73,-0.25 5.62,-0.48 7.83,3.97 2.65,4.03 1.73,8.18 0.9,12.11 -0.59,2.95 -1.18,5.81 1.73,7.37 3.08,1.4 6.9,0.3 10.8,-0.74 4.8,-1.15 9.7,-2.24 14.83,-0.71 5.19,1.46 5.16,3.57 5.16,5.51 0,1.45 0,2.8 3.93,3.34 3.93,0.56 8.02,0.1 12.13,-0.26 5.1,-0.28 10.21,-0.39 15.5,0.95 5.28,1.4 5.23,2.37 5.21,3.14 -0.02,0.56 -0.02,1 3.86,1.61 -1.13,-0.02 -2.24,-0.03 -3.32,-0.03 -5.25,-0.61 -5.26,-1.1 -5.26,-1.78 0.03,-0.67 0.03,-1.4 -3.85,-2.27 -3.93,-0.82 -8.02,-0.71 -12.13,-0.44 -5.06,0.46 -10.14,1.07 -15.47,0.56 -5.31,-0.54 -5.34,-2.16 -5.34,-3.95 0.02,-1.58 0.03,-3.24 -3.78,-4.2 -3.75,-0.99 -7.78,-0.02 -11.72,1 -4.8,1.32 -9.52,2.72 -13.79,1.13 -3.75,-2.11 -2.98,-5.64 -2.09,-9.48 0.81,-3.27 1.58,-6.61 -0.18,-9.63 -1.59,-3.14 -3.88,-2.98 -6.1,-2.78 -2.61,0.25 -4.95,0.38 -5.7,-4.69 -0.66,-5.2 0.51,-10.28 1.5,-15.33 0.71,-4.08 1.3,-8.19 0.48,-12.13 -0.8,-3.95 -1.99,-3.93 -3.09,-3.95 -1.18,-0.03 -2.24,-0.07 -2.76,-5.38 -0.59,-5.26 -0.58,-10.32 -0.74,-15.34 -0.23,-4.08 -0.61,-8.18 -1.48,-12.03 -0.03,-1.09 -0.05,-2.25 -0.08,-3.36zm-0.23 -10.28c2.07,5.25 2.89,10.35 3.55,15.42 0.39,4.1 0.72,8.19 1.79,12.09 1.05,3.9 2.17,3.9 3.39,3.9 1.68,0 3.49,0 5.51,5.32 2,5.33 1.66,10.41 1.13,15.51 -0.53,4.08 -1.17,8.21 -0.03,12.04 1.2,3.77 3.32,3.69 5.57,3.6 3.02,-0.2 6.18,-0.38 8.93,4.21 3.09,4.24 2.38,8.51 1.69,12.6 -0.46,3.09 -0.97,6.12 2.09,8.03 3.19,1.78 7.07,0.89 10.98,0.08 4.87,-0.85 9.8,-1.66 14.96,0.51 5.21,2.14 5.21,4.56 5.16,6.81 -0.02,1.71 -0.02,3.27 3.9,4.33 3.91,1.05 8.06,0.87 12.17,0.79 5.11,0.05 10.24,0.26 15.54,2.27 5.26,2.07 5.25,3.34 5.21,4.43 -0.02,0.81 -0.05,1.46 3.8,2.57 -1.1,-0.03 -2.22,-0.05 -3.32,-0.08 -5.26,-1.25 -5.26,-2.04 -5.21,-3.01 0.03,-0.87 0.05,-1.86 -3.85,-3.21 -3.91,-1.33 -8.01,-1.48 -12.15,-1.5 -5.11,0.11 -10.18,0.38 -15.5,-0.81 -5.28,-1.2 -5.33,-3.13 -5.29,-5.23 0.02,-1.79 0.03,-3.72 -3.8,-5.15 -3.78,-1.45 -7.81,-0.74 -11.79,0.05 -4.85,0.99 -9.6,2.12 -14.02,0.03 -3.96,-2.55 -3.34,-6.27 -2.6,-10.25 0.66,-3.41 1.27,-6.84 -0.84,-10 -1.96,-3.27 -4.49,-3.13 -6.9,-2.96 -2.89,0.2 -5.53,0.35 -6.92,-4.75 -1.3,-5.22 -0.46,-10.33 0.21,-15.38 0.43,-4.11 0.76,-8.23 -0.56,-12.16 -1.32,-3.93 -2.76,-3.92 -4.08,-3.92 -1.51,-0.02 -2.84,-0.02 -4.04,-5.3 -1.25,-5.26 -1.58,-10.37 -2.09,-15.42 -0.51,-4.13 -1.15,-8.23 -2.5,-12.09 -0.03,-1.12 -0.05,-2.22 -0.08,-3.37zm-0.28 -10.28c2.75,5.23 3.86,10.33 4.88,15.47 0.66,4.1 1.22,8.19 2.78,12.09 1.54,3.9 2.94,3.9 4.42,3.93 1.96,-0.07 4.11,-0.05 6.81,5.28 2.66,5.31 2.63,10.4 2.45,15.55 -0.25,4.06 -0.64,8.18 0.97,12.03 1.66,3.8 4.04,3.75 6.54,3.69 3.3,-0.2 6.74,-0.33 10,4.43 3.55,4.46 3.04,8.85 2.53,13.13 -0.36,3.24 -0.79,6.43 2.43,8.69 3.32,2.14 7.23,1.48 11.2,0.91 4.9,-0.59 9.85,-1.1 15.04,1.73 5.23,2.76 5.23,5.53 5.23,8.1 -0.05,1.96 -0.05,3.8 3.86,5.35 3.91,1.55 8.04,1.63 12.18,1.81 5.11,0.38 10.21,0.9 15.5,3.6 5.28,2.73 5.28,4.33 5.26,5.73 -0.05,1.05 -0.08,1.96 3.8,3.55 -1.13,-0.03 -2.25,-0.05 -3.37,-0.08 -5.24,-1.94 -5.23,-3.04 -5.19,-4.3 0.02,-1.15 0.05,-2.35 -3.83,-4.23 -3.91,-1.83 -8.06,-2.24 -12.18,-2.52 -5.08,-0.21 -10.19,-0.26 -15.52,-2.12 -5.29,-1.87 -5.28,-4.13 -5.29,-6.53 0.03,-2.09 0.07,-4.26 -3.78,-6.14 -3.82,-1.94 -7.88,-1.5 -11.89,-0.94 -4.87,0.71 -9.7,1.58 -14.27,-1.05 -4.17,-2.99 -3.63,-6.93 -3.09,-11.06 0.49,-3.5 0.97,-7.04 -1.48,-10.35 -2.35,-3.39 -5.1,-3.31 -7.75,-3.17 -3.15,0.16 -6.08,0.26 -8.12,-4.85 -1.96,-5.23 -1.43,-10.35 -1.1,-15.42 0.16,-4.1 0.26,-8.21 -1.56,-12.14 -1.83,-3.92 -3.52,-3.93 -5.11,-3.93 -1.81,0 -3.47,0 -5.33,-5.3 -1.92,-5.28 -2.58,-10.37 -3.42,-15.45 -0.76,-4.11 -1.66,-8.19 -3.52,-12.06 -0.03,-1.12 -0.05,-2.29 -0.08,-3.41zm-0.13 -10.15c3.4,5.23 4.82,10.32 6.08,15.38 0.9,4.08 1.71,8.18 3.76,12.09 2.04,3.9 3.7,3.9 5.46,3.93 2.32,0 4.8,0.03 8.17,5.33 3.34,5.32 3.6,10.4 3.71,15.48 -0.02,4.08 -0.15,8.19 1.94,12.09 2.14,3.82 4.75,3.75 7.5,3.72 3.6,-0.11 7.32,-0.23 11.1,4.67 4.01,4.67 3.65,9.2 3.3,13.62 -0.26,3.41 -0.52,6.75 2.84,9.35 3.45,2.5 7.37,2.07 11.33,1.71 4.95,-0.31 9.92,-0.53 15.13,2.93 5.26,3.41 5.28,6.47 5.25,9.39 0.02,2.24 0.03,4.36 3.96,6.4 3.91,2.04 7.99,2.37 12.09,2.8 5.11,0.66 10.18,1.5 15.47,4.85 5.28,3.39 5.29,5.33 5.29,7.08 0.03,1.33 0.03,2.55 3.95,4.61 -1.15,-0.02 -2.27,-0.03 -3.37,-0.07 -5.26,-2.58 -5.26,-4.01 -5.28,-5.64 0.02,-1.4 -0.02,-2.91 -3.91,-5.26 -3.93,-2.3 -7.97,-2.96 -12.12,-3.49 -5.06,-0.5 -10.16,-0.87 -15.47,-3.42 -5.29,-2.53 -5.31,-5.12 -5.33,-7.88 0.03,-2.34 0,-4.77 -3.85,-7.14 -3.83,-2.42 -7.88,-2.15 -11.92,-1.86 -4.9,0.43 -9.75,1.02 -14.47,-2.12 -4.41,-3.46 -4.01,-7.59 -3.63,-11.88 0.36,-3.59 0.66,-7.27 -2.14,-10.71 -2.71,-3.52 -5.67,-3.42 -8.57,-3.36 -3.45,0.1 -6.68,0.21 -9.34,-4.95 -2.61,-5.25 -2.42,-10.4 -2.37,-15.43 -0.08,-4.08 -0.26,-8.19 -2.57,-12.14 -2.32,-3.92 -4.29,-3.9 -6.15,-3.93 -2.17,-0.05 -4.14,-0.03 -6.69,-5.31 -2.58,-5.28 -3.57,-10.43 -4.67,-15.43 -1.02,-4.1 -2.12,-8.21 -4.45,-12.08 -0.02,-1.1 -0.03,-2.2 -0.05,-3.32zm0.39 -9.64c4.01,5.22 5.56,10.09 7.04,15.05 1.07,4 2.07,8.05 4.6,11.95 2.52,3.9 4.51,3.95 6.59,4.03 2.68,0.05 5.61,0.2 9.6,5.46 3.98,5.26 4.44,10.25 4.83,15.27 0.18,4.05 0.3,8.13 2.85,12.03 2.6,3.83 5.47,3.82 8.48,3.8 3.86,-0.05 7.91,-0.1 12.17,4.92 4.42,4.84 4.23,9.51 4.04,14.05 -0.15,3.55 -0.31,7.04 3.19,9.99 3.57,2.88 7.5,2.63 11.49,2.48 4.92,-0.05 9.86,-0.05 15.08,4 5.23,4.05 5.29,7.5 5.31,10.78 0.05,2.52 0.13,4.94 4.03,7.47 3.91,2.53 7.93,3.06 11.99,3.67 4.98,0.94 9.91,1.94 15.17,5.92 5.25,4 5.41,6.42 5.51,8.57 0.1,1.66 0.2,3.21 4.09,5.74 -1.13,0.02 -2.27,0 -3.35,-0.02 -5.29,-3.24 -5.29,-5.03 -5.34,-7.02 -0.1,-1.74 -0.17,-3.55 -4.03,-6.38 -3.91,-2.78 -7.96,-3.64 -11.97,-4.34 -5.05,-0.77 -10.13,-1.45 -15.44,-4.66 -5.28,-3.22 -5.29,-6.12 -5.29,-9.23 -0.07,-2.63 -0.07,-5.35 -3.91,-8.19 -3.86,-2.83 -7.91,-2.83 -11.87,-2.75 -5,0.2 -9.9,0.51 -14.75,-3.16 -4.62,-3.9 -4.34,-8.21 -4.09,-12.64 0.21,-3.73 0.36,-7.45 -2.75,-11.04 -3.07,-3.64 -6.28,-3.62 -9.39,-3.55 -3.76,0.03 -7.32,0.08 -10.6,-5.12 -3.26,-5.27 -3.36,-10.37 -3.58,-15.34 -0.3,-4.06 -0.67,-8.1 -3.45,-12.01 -2.79,-3.9 -5.08,-3.97 -7.23,-4.03 -2.56,-0.12 -4.9,-0.13 -8.11,-5.41 -3.22,-5.3 -4.49,-10.36 -5.8,-15.3 -1.2,-4.03 -2.48,-8.01 -5.29,-11.86 0.03,-1.05 0.08,-2.14 0.2,-3.13zm1.64 -8.36c4.55,5.1 5.97,9.51 7.38,14.12 1.17,3.83 2.25,7.69 5.23,11.57 2.99,3.83 5.36,4.03 7.76,4.23 3.26,0.26 6.71,0.63 11.26,5.78 4.52,5.15 5.06,9.86 5.54,14.69 0.38,3.93 0.64,7.9 3.63,11.78 3.04,3.82 6.2,3.87 9.47,3.9 4.19,0.03 8.53,0.08 13.19,5.12 4.75,4.95 4.69,9.66 4.64,14.33 -0.07,3.67 -0.15,7.3 3.45,10.58 3.67,3.19 7.61,3.14 11.57,3.16 4.83,0.1 9.67,0.23 14.78,4.82 5.13,4.56 5.31,8.47 5.49,12.17 0.08,2.85 0.2,5.59 4.06,8.6 3.88,2.98 7.81,3.64 11.72,4.39 4.67,0.95 9.27,1.93 14.4,6.45 5.15,4.56 5.61,7.62 6.05,10.36 0.2,2.07 0.43,4.02 4.29,7.01 -0.95,0.13 -1.96,0.25 -3.01,0.28 -5.26,-3.87 -5.46,-6.15 -5.74,-8.65 -0.2,-2.14 -0.43,-4.39 -4.26,-7.63 -3.83,-3.24 -7.68,-4.13 -11.56,-4.97 -4.87,-0.89 -9.77,-1.76 -15.06,-5.61 -5.24,-3.87 -5.36,-7.16 -5.47,-10.69 -0.08,-2.93 -0.16,-5.97 -3.96,-9.23 -3.82,-3.26 -7.78,-3.41 -11.76,-3.47 -4.9,-0.02 -9.8,0.08 -14.76,-4.1 -4.82,-4.33 -4.69,-8.78 -4.57,-13.39 0.1,-3.8 0.15,-7.6 -3.27,-11.25 -3.37,-3.7 -6.82,-3.72 -10.16,-3.73 -4.08,0 -7.94,-0.02 -11.84,-5.23 -3.9,-5.25 -4.21,-10.23 -4.64,-15.14 -0.44,-3.93 -0.94,-7.82 -4.16,-11.67 -3.24,-3.83 -5.9,-4.03 -8.4,-4.2 -3.01,-0.2 -5.8,-0.36 -9.65,-5.63 -3.86,-5.28 -5.25,-10.12 -6.66,-14.88 -1.28,-3.85 -2.55,-7.57 -5.79,-11.37 0.26,-0.82 0.51,-1.65 0.79,-2.5zm3.86 -6.17c4.95,4.87 5.97,8.62 7.12,12.59 0.84,3.27 1.86,6.81 5.25,10.6 3.39,3.77 6.18,4.11 9.19,4.64 3.85,0.56 7.92,1.2 12.87,6.09 4.93,4.89 5.38,9.2 5.85,13.62 0.3,3.65 0.62,7.49 4.03,11.27 3.4,3.77 6.87,3.82 10.44,3.97 4.49,0.13 9.11,0.21 14.04,5.13 4.93,4.9 4.93,9.59 4.93,14.33 0,3.78 0,7.54 3.67,11.04 3.68,3.49 7.55,3.56 11.36,3.6 4.67,0.17 9.22,0.35 14.11,5.3 4.88,4.95 5.24,9.31 5.56,13.49 0.31,3.31 0.53,6.43 4.31,9.82 3.78,3.39 7.43,4.08 10.9,4.64 4.24,0.81 8.25,1.56 13.12,6.52 4.88,4.95 5.82,8.7 6.61,12.21 0.72,2.78 1.18,5.22 4.98,8.61 -0.85,0.28 -1.68,0.54 -2.5,0.81 -5.16,-4.46 -5.72,-7.37 -6.2,-10.43 -0.66,-2.83 -1.3,-5.71 -4.98,-9.26 -3.67,-3.59 -7.02,-4.3 -10.46,-4.9 -4.59,-0.94 -9.16,-1.81 -14.35,-6.24 -5.15,-4.44 -5.42,-8.23 -5.61,-12.14 -0.28,-3.37 -0.51,-6.81 -4.16,-10.4 -3.7,-3.57 -7.43,-3.74 -11.21,-3.83 -4.83,-0.15 -9.6,-0.21 -14.63,-4.81 -4.92,-4.69 -4.92,-9.3 -4.88,-14 0.02,-3.83 0.02,-7.67 -3.6,-11.3 -3.58,-3.67 -7.27,-3.72 -10.9,-3.8 -4.34,-0.07 -8.57,-0.15 -13,-5.28 -4.46,-5.18 -4.87,-9.97 -5.43,-14.64 -0.35,-3.62 -0.77,-7.19 -4.32,-10.88 -3.58,-3.69 -6.74,-4.08 -9.83,-4.56 -3.47,-0.36 -6.81,-0.76 -11.23,-5.91 -4.45,-5.18 -5.74,-9.67 -7.14,-14.08 -0.92,-3.22 -1.87,-6.43 -5.46,-10.07 0.44,-0.64 0.9,-1.28 1.56,-1.73zm6.72 -3.28c5.15,4.44 5.69,7.36 6.18,10.41 0.66,2.83 1.3,5.71 4.97,9.28 3.68,3.55 7.05,4.26 10.46,4.9 4.57,0.94 9.18,1.81 14.35,6.24 5.16,4.44 5.41,8.21 5.62,12.14 0.28,3.36 0.51,6.8 4.17,10.38 3.68,3.57 7.42,3.74 11.18,3.85 4.83,0.15 9.63,0.2 14.63,4.82 4.93,4.69 4.92,9.28 4.9,14 0,3.82 -0.02,7.65 3.58,11.29 3.6,3.67 7.3,3.72 10.93,3.8 4.34,0.05 8.55,0.13 13.04,5.26 4.42,5.2 4.87,9.94 5.38,14.66 0.36,3.6 0.77,7.19 4.32,10.88 3.57,3.69 6.74,4.1 9.83,4.58 3.49,0.35 6.84,0.74 11.24,5.91 4.46,5.18 5.74,9.64 7.15,14.05 0.9,3.24 1.86,6.43 5.44,10.1 -0.43,0.63 -0.89,1.25 -1.56,1.73 -4.95,-4.9 -5.99,-8.64 -7.14,-12.6 -0.82,-3.27 -1.84,-6.81 -5.23,-10.6 -3.4,-3.78 -6.18,-4.11 -9.21,-4.64 -3.85,-0.56 -7.91,-1.22 -12.87,-6.09 -4.93,-4.89 -5.38,-9.18 -5.84,-13.66 -0.3,-3.65 -0.63,-7.47 -4.03,-11.24 -3.42,-3.77 -6.86,-3.83 -10.46,-3.97 -4.51,-0.11 -9.11,-0.21 -14.04,-5.12 -4.93,-4.9 -4.93,-9.61 -4.97,-14.33 0.02,-3.78 0.03,-7.55 -3.63,-11.06 -3.7,-3.49 -7.55,-3.55 -11.36,-3.62 -4.67,-0.15 -9.22,-0.35 -14.07,-5.3 -4.9,-4.95 -5.26,-9.31 -5.57,-13.51 -0.33,-3.29 -0.56,-6.4 -4.32,-9.8 -3.8,-3.39 -7.46,-4.05 -10.9,-4.64 -4.24,-0.79 -8.24,-1.55 -13.1,-6.5 -4.88,-4.95 -5.84,-8.7 -6.63,-12.21 -0.72,-2.8 -1.2,-5.23 -4.96,-8.62 0.82,-0.26 1.64,-0.53 2.5,-0.79zm8.76 -1.27c5.24,3.88 5.44,6.14 5.72,8.64 0.2,2.14 0.44,4.43 4.27,7.67 3.82,3.22 7.68,4.1 11.56,4.95 4.83,0.91 9.77,1.76 15.04,5.63 5.26,3.85 5.36,7.16 5.49,10.68 0.08,2.93 0.18,5.97 3.98,9.25 3.8,3.28 7.78,3.37 11.72,3.47 4.9,0 9.81,-0.06 14.78,4.11 4.83,4.31 4.67,8.77 4.55,13.39 -0.08,3.78 -0.11,7.58 3.29,11.24 3.39,3.69 6.82,3.73 10.19,3.72 4.04,-0.02 7.92,0.02 11.85,5.23 3.88,5.26 4.21,10.2 4.62,15.14 0.43,3.97 0.92,7.83 4.13,11.7 3.25,3.82 5.92,4.02 8.43,4.18 2.99,0.18 5.8,0.38 9.65,5.64 3.88,5.26 5.23,10.08 6.66,14.87 1.28,3.85 2.55,7.57 5.8,11.37 -0.28,0.86 -0.54,1.7 -0.79,2.5 -4.59,-5.1 -6,-9.53 -7.4,-14.13 -1.17,-3.83 -2.25,-7.69 -5.24,-11.55 -2.99,-3.88 -5.33,-4.06 -7.74,-4.24 -3.27,-0.26 -6.73,-0.63 -11.29,-5.76 -4.51,-5.17 -5.05,-9.87 -5.54,-14.69 -0.33,-3.98 -0.61,-7.95 -3.6,-11.8 -3.04,-3.83 -6.21,-3.88 -9.47,-3.92 -4.23,-0.03 -8.55,-0.07 -13.22,-5.1 -4.75,-4.95 -4.7,-9.66 -4.67,-14.32 0.07,-3.69 0.18,-7.32 -3.42,-10.58 -3.65,-3.22 -7.65,-3.16 -11.59,-3.17 -4.82,-0.11 -9.68,-0.25 -14.75,-4.82 -5.13,-4.57 -5.31,-8.51 -5.51,-12.21 -0.11,-2.83 -0.21,-5.56 -4.08,-8.56 -3.88,-3 -7.83,-3.67 -11.7,-4.44 -4.69,-0.94 -9.29,-1.89 -14.42,-6.43 -5.15,-4.56 -5.62,-7.6 -6.03,-10.4 -0.23,-2.04 -0.44,-3.98 -4.27,-6.98 0.95,-0.11 1.91,-0.25 2.99,-0.28zm9.85 -0.2c5.25,3.26 5.21,5.02 5.31,7.03 0.08,1.76 0.18,3.59 4.06,6.4 3.9,2.78 7.92,3.62 11.94,4.34 5.01,0.76 10.14,1.45 15.44,4.67 5.31,3.19 5.28,6.1 5.33,9.21 0.03,2.63 0.08,5.36 3.93,8.21 3.85,2.86 7.88,2.81 11.85,2.75 4.95,-0.2 9.91,-0.53 14.73,3.18 4.64,3.88 4.34,8.18 4.09,12.65 -0.2,3.7 -0.35,7.47 2.76,11.04 3.07,3.63 6.3,3.57 9.42,3.52 3.75,-0.05 7.28,-0.1 10.62,5.1 3.26,5.26 3.37,10.33 3.57,15.37 0.28,4.05 0.66,8.13 3.44,12.04 2.81,3.9 5.08,3.93 7.27,4 2.55,0.1 4.9,0.11 8.09,5.43 3.24,5.28 4.5,10.35 5.84,15.29 1.18,4.01 2.47,8.04 5.28,11.93 -0.03,1.04 -0.08,2.07 -0.22,3.08 -4.01,-5.25 -5.57,-10.14 -7.02,-15.07 -1.09,-4.03 -2.07,-8.05 -4.62,-11.95 -2.53,-3.9 -4.51,-3.98 -6.58,-4.03 -2.71,-0.1 -5.64,-0.21 -9.64,-5.48 -3.98,-5.27 -4.44,-10.27 -4.82,-15.27 -0.2,-4.08 -0.26,-8.14 -2.84,-12.01 -2.61,-3.83 -5.51,-3.85 -8.5,-3.8 -3.9,0.02 -7.91,0.07 -12.18,-4.92 -4.42,-4.85 -4.23,-9.53 -4.04,-14.05 0.13,-3.57 0.31,-7.06 -3.19,-10 -3.57,-2.86 -7.53,-2.65 -11.49,-2.48 -4.93,0.03 -9.88,0.03 -15.06,-4.03 -5.23,-4.03 -5.33,-7.5 -5.33,-10.76 -0.1,-2.5 -0.13,-4.93 -4.04,-7.47 -3.91,-2.53 -7.97,-3.04 -11.97,-3.69 -5.01,-0.94 -9.93,-1.91 -15.17,-5.91 -5.25,-4.02 -5.46,-6.42 -5.54,-8.59 -0.08,-1.66 -0.18,-3.19 -4.06,-5.74 1.07,-0.02 2.2,0 3.35,0.02zm10.14 0.17c5.24,2.6 5.21,4.02 5.24,5.63 0.02,1.41 0.03,2.93 3.91,5.28 3.91,2.3 8.02,2.95 12.12,3.47 5.05,0.53 10.18,0.89 15.5,3.44 5.29,2.54 5.28,5.13 5.29,7.87 0,2.35 0.03,4.79 3.88,7.17 3.83,2.42 7.88,2.17 11.87,1.88 4.92,-0.44 9.81,-1.04 14.5,2.14 4.42,3.44 4.03,7.55 3.63,11.83 -0.34,3.62 -0.64,7.29 2.15,10.75 2.73,3.52 5.71,3.41 8.58,3.32 3.43,-0.12 6.67,-0.21 9.37,4.95 2.61,5.25 2.42,10.37 2.37,15.43 0.08,4.1 0.25,8.24 2.55,12.18 2.33,3.91 4.27,3.91 6.15,3.91 2.15,0.03 4.16,0.02 6.69,5.33 2.58,5.28 3.57,10.38 4.67,15.43 1.02,4.11 2.15,8.21 4.49,12.11 0.02,1.09 0.03,2.2 0.05,3.31 -3.42,-5.25 -4.85,-10.33 -6.12,-15.4 -0.9,-4.11 -1.69,-8.19 -3.76,-12.09 -2.02,-3.93 -3.71,-3.93 -5.44,-3.93 -2.35,0 -4.83,-0.03 -8.2,-5.33 -3.34,-5.32 -3.6,-10.41 -3.7,-15.5 0.02,-4.11 0.17,-8.23 -1.94,-12.08 -2.15,-3.83 -4.77,-3.8 -7.51,-3.72 -3.62,0.1 -7.35,0.2 -11.13,-4.69 -3.99,-4.67 -3.65,-9.23 -3.3,-13.61 0.25,-3.41 0.54,-6.76 -2.81,-9.36 -3.45,-2.52 -7.42,-2.07 -11.34,-1.71 -4.98,0.3 -9.98,0.53 -15.16,-2.95 -5.26,-3.42 -5.26,-6.5 -5.21,-9.41 -0.05,-2.22 -0.07,-4.33 -3.96,-6.38 -3.93,-2.04 -8.04,-2.35 -12.12,-2.78 -5.13,-0.69 -10.21,-1.53 -15.5,-4.89 -5.28,-3.39 -5.29,-5.32 -5.26,-7.08 -0.02,-1.33 -0.02,-2.55 -3.91,-4.59 1.1,0.02 2.22,0.05 3.37,0.07zm10.31 0.26c5.21,1.94 5.16,3.03 5.16,4.31 -0.03,1.1 -0.05,2.35 3.85,4.21 3.9,1.83 8.04,2.2 12.17,2.52 5.08,0.2 10.23,0.26 15.54,2.14 5.31,1.86 5.26,4.11 5.26,6.55 -0.02,2.06 0,4.21 3.83,6.14 3.8,1.93 7.86,1.45 11.85,0.94 4.85,-0.72 9.75,-1.59 14.27,1.05 4.21,3 3.65,6.89 3.11,11.04 -0.51,3.5 -0.95,7.06 1.51,10.35 2.34,3.41 5.11,3.27 7.76,3.14 3.12,-0.15 6.08,-0.26 8.14,4.87 1.94,5.25 1.43,10.32 1.08,15.4 -0.18,4.13 -0.25,8.24 1.56,12.18 1.83,3.93 3.52,3.93 5.1,3.91 1.82,0.02 3.5,0.02 5.34,5.33 1.92,5.28 2.6,10.35 3.42,15.4 0.79,4.15 1.66,8.26 3.53,12.13 0.03,1.17 0.07,2.27 0.1,3.39 -2.76,-5.25 -3.91,-10.35 -4.88,-15.48 -0.67,-4.1 -1.23,-8.19 -2.81,-12.08 -1.54,-3.91 -2.93,-3.93 -4.41,-3.93 -2,0.05 -4.13,0.03 -6.82,-5.3 -2.66,-5.32 -2.65,-10.41 -2.47,-15.52 0.28,-4.13 0.67,-8.23 -0.94,-12.09 -1.68,-3.78 -4.06,-3.73 -6.58,-3.63 -3.3,0.16 -6.72,0.3 -10,-4.46 -3.57,-4.46 -3.04,-8.85 -2.55,-13.1 0.36,-3.26 0.77,-6.45 -2.43,-8.71 -3.34,-2.12 -7.27,-1.46 -11.2,-0.89 -4.92,0.58 -9.9,1.09 -15.04,-1.76 -5.25,-2.78 -5.25,-5.51 -5.21,-8.1 -0.02,-1.94 0.02,-3.8 -3.91,-5.33 -3.91,-1.55 -8.06,-1.63 -12.15,-1.83 -5.13,-0.36 -10.24,-0.91 -15.54,-3.6 -5.29,-2.73 -5.28,-4.31 -5.21,-5.74 0,-1.05 0.05,-1.97 -3.83,-3.54 1.1,0.03 2.22,0.07 3.39,0.08zm10.23 0.25c5.23,1.27 5.21,2.06 5.16,3.01 0,0.87 -0.03,1.88 3.86,3.22 3.91,1.32 8.06,1.45 12.13,1.5 5.11,-0.11 10.22,-0.39 15.54,0.81 5.31,1.19 5.29,3.13 5.28,5.22 -0.02,1.83 0,3.72 3.81,5.17 3.76,1.46 7.81,0.74 11.79,-0.05 4.83,-0.99 9.63,-2.12 14.04,-0.02 3.96,2.55 3.3,6.28 2.6,10.23 -0.66,3.39 -1.25,6.83 0.84,9.99 1.99,3.28 4.51,3.13 6.94,2.96 2.88,-0.18 5.53,-0.36 6.92,4.76 1.32,5.21 0.48,10.32 -0.2,15.37 -0.44,4.13 -0.79,8.24 0.51,12.19 1.36,3.9 2.8,3.9 4.11,3.91 1.5,0.03 2.86,0.02 4.04,5.32 1.25,5.26 1.59,10.35 2.09,15.42 0.53,4.11 1.13,8.21 2.53,12.06 0.02,1.15 0.05,2.25 0.08,3.37 -2.1,-5.25 -2.93,-10.32 -3.57,-15.38 -0.41,-4.11 -0.72,-8.21 -1.81,-12.09 -1.04,-3.93 -2.17,-3.93 -3.39,-3.91 -1.68,0.02 -3.49,-0.02 -5.52,-5.33 -1.99,-5.33 -1.63,-10.43 -1.1,-15.5 0.52,-4.13 1.17,-8.24 0.03,-12.08 -1.22,-3.75 -3.34,-3.69 -5.59,-3.57 -3.06,0.2 -6.2,0.36 -8.94,-4.23 -3.11,-4.24 -2.4,-8.51 -1.71,-12.57 0.43,-3.09 0.95,-6.15 -2.12,-8.05 -3.19,-1.78 -7.09,-0.87 -10.95,-0.08 -4.92,0.87 -9.85,1.66 -14.96,-0.53 -5.23,-2.14 -5.23,-4.54 -5.16,-6.81 -0.03,-1.68 -0.03,-3.28 -3.95,-4.33 -3.93,-1.04 -8.05,-0.84 -12.12,-0.79 -5.16,-0.05 -10.26,-0.25 -15.55,-2.27 -5.28,-2.07 -5.26,-3.34 -5.2,-4.43 -0.02,-0.79 0.02,-1.48 -3.85,-2.57 1.1,0.03 2.22,0.07 3.37,0.08zm10.18 0.13c5.21,0.63 5.23,1.14 5.23,1.8 -0.02,0.64 -0.03,1.38 3.85,2.24 3.9,0.84 8.04,0.71 12.13,0.46 5.1,-0.46 10.18,-1.07 15.49,-0.53 5.33,0.51 5.33,2.16 5.31,3.95 0,1.58 0,3.22 3.8,4.16 3.76,1 7.79,0.03 11.74,-0.99 4.78,-1.28 9.55,-2.72 13.81,-1.12 3.75,2.11 2.98,5.63 2.07,9.44 -0.79,3.28 -1.55,6.63 0.2,9.63 1.63,3.14 3.91,2.96 6.13,2.76 2.6,-0.25 4.95,-0.36 5.74,4.71 0.66,5.2 -0.51,10.25 -1.54,15.32 -0.69,4.1 -1.28,8.21 -0.48,12.17 0.84,3.92 2.02,3.92 3.09,3.92 1.22,0.03 2.27,0.08 2.8,5.41 0.59,5.27 0.58,10.28 0.74,15.3 0.23,4.11 0.59,8.21 1.5,12.06 0.02,1.15 0.05,2.25 0.07,3.36 -1.43,-5.23 -1.91,-10.32 -2.25,-15.4 -0.15,-4.06 -0.18,-8.14 -0.77,-12.03 -0.54,-3.93 -1.43,-3.93 -2.4,-3.98 -1.36,0.05 -2.84,0 -4.21,-5.3 -1.33,-5.33 -0.64,-10.42 0.18,-15.5 0.82,-4.11 1.73,-8.21 1.07,-12.03 -0.74,-3.73 -2.63,-3.65 -4.67,-3.55 -2.75,0.25 -5.64,0.48 -7.86,-3.97 -2.65,-4.03 -1.73,-8.16 -0.92,-12.06 0.58,-2.96 1.19,-5.84 -1.73,-7.41 -3.08,-1.4 -6.92,-0.28 -10.79,0.74 -4.82,1.15 -9.77,2.25 -14.85,0.69 -5.21,-1.46 -5.18,-3.57 -5.16,-5.49 0,-1.45 -0.02,-2.78 -3.93,-3.36 -3.93,-0.54 -8.06,-0.07 -12.13,0.26 -5.11,0.28 -10.24,0.4 -15.54,-0.95 -5.26,-1.4 -5.23,-2.35 -5.18,-3.14 -0.02,-0.56 0,-1 -3.86,-1.59 1.1,0.02 2.2,0.02 3.34,0.02z"/></g></svg>
        </svg>
    </svg>