<svg xmlns="http://www.w3.org/2000/svg" preserveAspectRatio="xMidYMid meet" viewBox="0 0 700 800"
    style="background-color:blue"> 
        <style>
            @keyframes glow {
                0% {
                    filter: drop-shadow(16px 16px 20px yellow) brightness(100%);
                }

                to {
                    filter: drop-shadow(16px 16px 20px yellow) brightness(200%);
                }
            }

            path {
                fill: yellow;
                animation: glow .01s ease-in-out infinite alternate;
            }

            .yak {
                fill: yellow;
            }

            .yak:hover {
                fill: lavender;
            }

            .icon {
                fill: yellow;
            }
        </style>  
        <g transform="translate(-90, 0)">
    <path
        d="M466 10c-2 1-27 2-56 2-54 0-77 2-95 7-48 13-78 25-78 31 0 3 1 3 10-1 4-2 7-4 7-6 0-1 2-2 5-2s6-1 7-3l7-2 11-3 17-6 18-6 23-2c10 0 18-1 18-3s10-3 25-3c14 0 26 1 27 3 1 1 10 3 21 3 10 0 20-2 21-3 1-2 7-3 14-3s13 1 14 3c1 1 7 3 13 3s11 1 11 3c0 1 4 2 10 2s12 2 14 4 4 2 8-1c3-3 5-3 7 0 4 4 18 4 21 0 0-1-5-3-12-4a300 300 0 0 1-34-6l-16-4c-4-3-36-6-38-3zm106 19c-3 3 1 7 8 7l8 2c1 2 6 3 11 3 6 0 11 1 12 3a138 138 0 0 1 34 17 605 605 0 0 0 31 24c0 2 4 6 9 10 12 9 17 13 17 16 0 2 2 3 6 3s11 4 17 12c15 16 19 23 15 27-2 2-2 3 0 3s4 3 4 5c0 3 2 7 5 8 5 1 6 2 3 5-3 4-3 4 0 4 2 0 3 3 1 9-1 6 0 9 8 14 8 7 8 8 5 14-4 7-4 16 0 21l3 6c-1 6 0 7 4 4 7-6 5 3-1 9-6 5-8 21-4 25s3 15-2 24c-7 12-7 13 2 18 6 3 8 5 8 15 0 14-6 29-13 31-5 1-6 3-4 9 1 9-5 16-20 23-5 2-10 6-12 10-1 3-7 8-13 11l-19 10c-8 6-15 6-17 1 0-2-2-2-7 0-8 5-25 5-25 0 0-4-26-18-34-18-3 0-6-2-7-3-1-2-9-3-17-3s-15-1-15-3c0-1-8-3-17-3s-17-1-17-2c0-2 2-3 3-3 2 0 2-2 1-3 0-2-4-3-8-3s-7-1-7-3-3-2-6-2c-5 2-10-2-25-17l-22-20c-2 0 7 10 19 22 13 13 25 22 27 21s4 0 5 2c3 3-13 14-20 14-3 0-6 1-6 3 0 1-4 3-8 3l-10 2c-1 2-6 3-10 3s-9 1-10 3c-1 1-5 3-10 3-4 0-9 1-9 3l-20 2c-10 0-18 2-18 3 0 4-33 4-35 0-1-1-7-3-14-3s-13-1-13-2c0-2-3-3-8-3s-9-2-9-3c0-2-3-3-8-3-4 0-9-1-10-3l-8-2c-4 0-11-3-17-6l-14-6-4-2c0-2-4-3-8-3-5 0-10-2-12-6-2-3-5-5-7-5-12 0-40-27-40-38 0-4-2-7-3-7-2 0-3-5-3-11s-1-12-3-13c-1-1-3-5-3-9l-2-6c-2 0-3-6-3-13 0-13-5-18-12-14-2 2-2 3 2 5 2 1 4 5 4 9 0 9 6 29 9 29 2 0 3 16 0 23-2 8-21 7-29 0-3-3-8-6-10-6s-3-1-3-3c0-1-2-2-5-2l-4 1c0 4 14 15 19 15 2 0 4 2 5 5 1 2 6 4 13 4 5 0 12-2 14-4 4-6 8-6 8 0 0 8 15 29 21 29 2 0 5 2 6 4 2 3 7 6 12 7 13 2 15 11 3 11-4 0-9 2-10 3-1 2-5 3-8 3-4 0-7-1-7-3 0-1-4-3-8-3-5 0-10-2-12-5s-6-6-9-6c-8 0-8 5 2 10 6 3 10 6 10 8 0 1 3 2 8 1 5 0 8 1 8 4 1 3 0 5-2 5-1 0-3 2-3 4l-5 10c-5 6-6 6-6 2 0-2-4-7-8-11-5-4-9-9-9-11s-3-6-7-8a167 167 0 0 1-57-47c-2-1-3-4-4-7-1-5-1-5-2 1 0 4 4 11 9 17 9 11 35 32 48 39 4 2 10 7 12 11l11 12c5 4 6 7 5 25-1 14-3 23-6 30-3 5-6 12-6 16 0 3-3 8-6 11s-5 9-5 14-1 10-3 11c-1 1-3 4-3 7s-3 8-7 11c-3 4-6 8-5 10s0 5-2 6c-1 1-3 7-3 12l-2 18c-4 10-6 27-3 27 1 0 3-2 3-5l3-14c2-4 3-13 3-21l2-15c2-1 3-4 3-6 0-3 3-8 6-11 4-3 6-7 6-11-1-4 0-6 1-6 2 0 4-5 5-11 2-15 6-17 15-8 6 6 9 7 19 6s12 0 16 6c5 7 12 9 15 2 2-6 9-5 12 3s11 10 11 3c0-5 2-5 12 0 8 4 16 3 16-2 0-1 2-2 5-2 7 0 13 10 11 17-2 3-1 7 1 10 5 6 6 56 1 58-3 1-4 4-3 6s0 7-2 10c-3 4-4 12-3 22 1 14-1 22-10 40-2 3-2 8-1 11s0 5-2 5c-3 0-5 2-6 4s-8 7-16 11c-12 6-19 7-37 7-13 0-22-1-22-3-1-1-5-3-10-3-8 0-41-14-48-21-2-1-3-6-3-10 0-3-2-8-4-10s-2-5 0-9c4-9 4-19 1-24-2-2-2-6-2-10 2-4 1-9 0-12-2-3-3 7-2 32 0 37 0 37 8 45 10 11 35 23 46 23 4 0 9 1 11 3s21 4 49 5l80 6c60 4 69 3 67-12-2-7-2-7-5 2-4 8-4 8-23 8l-21-2c-1-1-21-2-45-2-23 0-43-1-43-3l8-5c11-5 26-21 26-28 0-3 1-7 3-7l2-9c0-3 2-7 3-8 2-1 3-11 3-23 0-11 1-21 3-22 1-1 3-5 3-10s1-8 2-8c2 0 3-11 3-28s-1-28-3-28l-2-6c0-6 3-7 8-1 4 4 37 5 48 1 20-9 21-9 21-25 2-18-2-22-12-17-9 5-17 1-16-7 1-4-5-13-15-24-20-23-63-64-66-64l23 25c14 14 25 27 25 29s7 10 14 17c12 11 14 14 14 22-1 8-2 9-9 10-5 0-7-1-7-3 2-6-25-33-30-31-2 1-4 0-4-2 0-1-2-3-4-3s-4 2-4 3c0 2-3 3-7 3s-7 1-7 3c0 3-29 3-34-1-2-2-7-3-11-3-5 1-9 0-10-2-1-1-5-3-9-3s-10-2-13-4c-3-4-5-4-8-2-4 4 5 12 13 12 4 0 7 1 9 3s9 3 15 3c7 0 12 1 13 3 2 5 33 4 39-1 10-8 40 2 40 14 0 8 16 21 23 19 3-1 5-3 5-5s4-2 10-2c7 2 11 1 12-2 3-7 6-4 6 6s-5 18-12 18c-2 0-5 1-6 3-2 3-43 3-43 0 0-2-3-3-6-3-6 0-8-10-2-12 3-1 3-3 0-7-2-3-3-9-3-12 0-6-8-16-10-13-1 1 0 4 2 7 3 5 3 7-1 9-3 3-3 3 1 6 6 3 6 11 1 11-3 0-5-2-5-4 0-8-8-9-14-2-4 5-6 6-7 4-2-5-17-5-19-1-3 4-10-2-10-9s-10-7-13 1c0 3-3 5-4 5-5 0-11-7-11-12 0-3-2-5-6-5-3 0-5 2-5 3 0 6-15 3-21-5l-7-9 7-15c5-9 7-16 6-20-2-7 8-35 13-35l2-4c0-2 1-4 3-4 1 0 2-2 2-5-1-4 1-5 5-4 4 0 7-1 7-3 0-3 2-4 5-3s8-1 12-3c8-6 15-6 19 0 2 2 6 4 9 4s5 1 5 3c0 1 1 2 3 1 1-1 5 0 8 3l9 4c2-1 7 1 12 3 4 1 10 2 12 1 2 0 4 1 5 3s4 3 6 2 6 1 9 3c3 3 8 5 12 3 6-1 9 1 22 16l17 17c5 0 2-9-6-15-12-10-11-15 3-13 6 1 14 0 18-2 6-3 9-3 11-1 2 1 1 3-2 4-2 1-5 4-5 6s-2 4-4 5c-4 2-4 2 0 6 6 4 6 4 0 4-4 0-7 2-7 4s-1 4-3 5-3 7-3 15c-1 13-1 14-8 15-5 0-8 2-8 5s2 4 7 3c6-1 9-4 14-13 4-7 6-16 6-20-1-5 2-8 13-14l16-9 5-3c4-1 4-2 0-3-4-2-8 0-14 4-9 7-13 6-8-2 4-9 17-16 24-14 4 0 7 0 8-3 1-2 4-3 7-2s9 0 13-3 9-4 13-3c3 0 6 0 7-3 2-4 27-4 32 1 2 2 9 3 16 2 11 0 13 0 32 19 20 18 21 19 20 32v12l-19 10c-11 5-23 10-27 10s-9 1-10 3c-2 4-24 3-30-2-3-2-8-3-11-2-4 1-9-2-16-9-10-10-12-11-15-7-2 3-5 4-7 4-2-1-3 0-3 1 0 2-5 6-12 8l-11 7c0 4-7 2-12-3-7-7-10-7-10 0 0 3 1 5 4 5 2 0 4 2 5 5 2 5 8 5 13 0l9-4c3 0 10-4 16-9l10-8 11 10c7 7 12 9 16 8 3-1 8 0 10 1 6 6 32 6 34 0 2-2 5-3 12-2 6 2 9 1 10-2 1-2 4-4 7-4s9-3 15-6c15-8 18-7 18 6 0 9-1 11-5 11-3 0-7 1-8 3s-2 2-4 0c-2-4-4-3-8 2-3 4-8 6-14 6-4 0-8 1-8 3 0 1-7 2-15 2l-17 3c-5 5-10 4-10-2 0-7-5-7-7 0-3 7-7 7-9 0l-4-6c-2 0-3-2-3-5s-1-6-3-6c-4 0-7 9-3 11l5 8c1 3 4 7 8 7 18 4 26 5 27 2 1-2 8-3 15-3l17-3 13-4c6 0 10-2 10-5 1-4 2-4 6-1 3 3 4 3 5 0 1-2 4-4 7-4s5-2 5-4 2-4 3-4c2 0 3-5 3-11s-1-11-3-11-3-9-3-19c0-16-1-20-5-23-3-3-6-6-6-8 0-3-18-20-27-25-4-2-12-4-20-4-12 0-20-3-20-9 0-1 2-2 5-2s6-1 6-3c0-4 8-3 10 2 1 2 6 4 17 3 10-1 16 1 19 3 2 3 6 3 12 3 5-1 11 0 15 2 3 3 7 4 9 3 2 0 8 2 14 6l12 6c5 0 24 19 24 23 0 3 1 5 2 5 2 0 3 2 3 5l2 8c3 3 10 32 10 40 0 2 1 6 3 8 1 2 3 7 3 12l2 10c3 2 3-2-2-28-5-29-11-48-19-62l-6-12 17-2c21-2 39-10 57-27 6-6 13-11 14-11 5 0 26-23 24-28-1-3 0-5 1-6 5-4 12-20 12-29 0-6-3-13-8-20-6-8-7-10-4-15l7-11c2-4 2-6-3-12-6-8-6-14 4-28 4-7 4-8-3-15-8-9-9-15-4-23 3-5 2-7-4-14-6-6-8-10-8-18 0-7-2-14-6-20-4-4-8-12-9-17-2-9-28-38-34-38-2 0-6-2-9-5a483 483 0 0 0-77-59l-14-6-12-2c-4 0-9-2-11-3-4-4-14-6-16-4z" />
    <path
        d="m207 59-40 32c-10 8-11 11-10 17 1 7 0 9-13 17-20 11-23 15-23 32 0 11-2 14-7 19-10 8-15 23-12 38 3 13 10 23 16 23s5 7-2 13c-4 4-5 8-5 29 0 14-1 26-3 27-4 2-3 22 1 26 3 3 2 4-2 8-5 4-5 4 0 4 4 0 7 1 7 2 0 2 2 2 4 2 2-2 5 0 6 3 3 8 13 15 20 15s11-7 6-12c-2-2-3-2-3 0s-2 4-4 4c-6 0-18-12-18-18s-3-6-8-1c-3 3-4 2-3-2 1-2 1-5-1-6l-2-5c0-2 0-6-2-8-3-7 1-9 9-5 5 2 8 2 10 0 4-3-2-9-9-12-4-2-5-5-5-19 0-9 1-17 3-18 1-1 2-4 1-6 0-2 1-4 3-5 4-2 5-20 1-23-5-3-3-20 3-25 5-5 8-15 3-15-1 0-5 2-7 5-3 3-4 6-3 6s1 1-1 3-3 8-3 14-2 11-3 11c-3 0-3-1-4-11l-2-10c-1-5 6-27 9-27 7 0 11-8 11-22-1-13 0-15 7-21 5-4 10-7 12-7s3-2 3-3c0-2 3-3 6-3s5-1 6-3 8-3 20-3c15 1 19 0 19-3 0-4-4-5-19-5-14 0-18-1-18-4 0-4 16-21 20-21 2 0 8-5 14-11s11-10 12-9c3 5 7 4 7-2 0-3 2-6 4-8 5-6-1-4-11 3zm179 106-4 8c0 3-2 5-4 6-3 2-4 6-3 17 0 13 1 16 11 25 11 11 19 14 19 7 0-2-4-6-8-8-13-6-15-10-15-24 0-12 2-15 9-22 5-4 8-9 8-10 0-4-9-3-13 1zm-102 23c-8 9-9 12-9 23 0 13 7 29 11 24 1-2 0-4-2-5-1-1-2-8-2-17 0-14 0-15 11-22 6-4 11-8 11-10 0-6-11-2-20 7z" />
    <path
        d="m291 213 2 14c0 4 1 7 3 7 1 0 2-6 2-14 0-11 0-14-4-14-3 0-4 2-3 7zm-50 6c-6 8-6 17-1 23 4 4 11 5 11 1 0-2-2-3-4-3-7 0-6-13 1-17 3-2 6-5 6-7 0-7-7-4-13 3z" />
    <path
        d="m206 223-2 7c-4 4-3 12 1 16 6 5 1 11-9 11-5 0-10 1-10 3-1 3-2 3-6 0-3-3-5-3-6 0s-2 3-3 0c-1-2-4-3-6-3-6 0-18-13-18-19 0-3 2-7 4-9 5-5-1-7-7-2-8 8-7 15 4 26 13 14 29 19 40 14 5-3 10-4 13-3s6-1 8-4c2-4 3-4 5 0 5 6 4 7-6 11-8 3-10 4-7 9 2 3 1 7-2 13-4 9-4 29 1 35s9 6 9 0c0-2-1-4-3-4-1 0-3-6-3-14s2-14 3-14c2 0 3-5 3-11 0-9 1-11 10-14 10-4 12-9 4-9-4 0-5-1-4-5 2-7 4-7 12 1 7 9 7 11 0 15-3 2-5 6-5 10s-2 7-3 7c-2 0-3 3-3 6s1 6 3 6c1 0 3 3 3 7 0 9 9 21 16 21 2 0 4 1 5 3s7 3 17 3c31-1 29 0 27-6-1-4 0-6 3-6s4-2 3-5 0-6 3-7 3-6 3-19c-1-15-2-18-10-27-6-6-11-13-12-16-2-6-24-6-29 0-2 3-5 4-12 2-5-1-9-2-9-4 0-4-10-3-12 1 0 2-2 2-5-1-6-5-7-15-2-18 4-3 3-12-2-12-2 0-4 2-4 5zm69 37c0 1 0 2-3 2-6 0-13 10-14 20 0 6-4 12-11 20l-10 11-3-7c-3-9 0-28 5-30 2-2 3-4 3-7 0-8 28-16 33-9zm11 20 2 18c1 2 1 4-1 5s-5 0-6-3c-1-2-6-4-11-4-8 0-11-4-4-6 2-1 2-3-1-8s-3-7 2-10c3-2 7-4 10-4 2 0 5-1 5-3 0-1 1-2 2-1 2 1 3 8 2 16zm-21 24c0 2 2 3 5 3 8 0 10 5 3 8-7 4-15 4-22 0-5-3-5-4-1-8 5-6 15-7 15-3zm25 14c-4 9-12 13-22 11-3-1-2-2 6-6 6-3 9-7 8-9 0-2 2-4 4-5 8-1 8 0 4 9zm206-95-4 7c0 4 15 16 20 16 3 0 5 1 5 2 0 2-5 3-11 3-7 0-12-1-12-3l-4-2c-6 0-18-12-18-18 0-5-4-7-7-3-2 5 2 15 6 15 2 0 4 1 4 3 0 1-8 3-18 3-16 0-19 0-22 5-5 9-34 8-40 0-2-3-5-5-7-4-8 5 2 15 15 15 4 0 7 2 7 3 0 2-7 3-16 3s-18-1-19-3c0-1-6-3-12-3-12 0-21-3-29-12-3-3-6-4-7-3s0 3 2 3c5 2 4 7-3 7-3 0-5-2-5-3 0-2-2-3-5-3s-8-2-11-5c-5-6-23-9-23-3 0 3 9 6 15 4 4-2 6 3 1 6-4 3 0 7 6 5 3-1 9 0 13 3s9 4 13 3c5-1 8 0 12 3 2 2 6 4 9 3s9-1 15 1c12 4 56 6 56 3 0-2-2-4-3-5-5-2-3-7 1-5 7 2 18-2 18-7 0-4 5-4 29-5 22-1 28 0 27 3-1 2-6 3-12 3-7 0-12 2-14 5s-6 5-8 5c-3 0-5 2-5 5s-1 6-3 7-3 8-3 24c0 23 1 24 8 31 8 7 10 7 38 7 43-1 40-1 36-6-4-4-3-5 2-9 7-6 8-16 1-20-4-2-4-2 0-4 8-3 6-9-7-20-7-6-12-12-11-13 2-3 12-3 12 0 0 1 4 4 9 6 17 7 30 24 30 41 0 6 6 15 10 15l1-4-2-4c-1 0-2-5-2-11-1-13 0-14 7-5 4 3 6 5 6 3 0-5-11-12-16-11-4 2-4 1-3-3 2-5 0-8-8-15-6-4-13-8-16-8s-5-2-5-3c0-2-2-3-5-3s-7-1-7-3c-3-4-11-3-16 3-3 3-4 6-3 7s0 1-2 1c-5 0-4-11 2-15 6-5 23-5 31 0 3 3 7 4 9 3 1-1 5 0 9 3 4 2 10 4 13 2l10 1c5 4 9 14 8 20-1 4 0 9 5 14s7 9 5 11c-1 2-3 3-5 3-4-3-10 10-10 25 0 12-1 13-7 14-7 1-7 8 1 8l6 2c3 4 19 4 22 1 1-1 0-4-2-6-4-4-6-4-10-1-7 4-12 1-7-4 2-2 4-8 4-14 0-7 2-13 5-18l7-6 8 6c15 11 22 13 37 13 13 0 17-1 24-8 5-5 9-9 8-10-2-2-17 5-17 7s-7 3-16 3c-10 0-17-2-17-3 0-2-3-3-6-3s-5-1-5-3c0-1-2-3-5-3-2 0-5-2-6-5l-7-9c-3-3-5-8-5-15l-2-10c-2 0-3-3-4-8-1-6-2-7-13-8-7-1-14-2-16-4l-8-2c-4 0-8-2-9-3 0-2-5-3-9-3s-10-2-14-5l-10-6-6-4c-4-4-4-6-2-10 6-10 2-12-6-3zm4 53-3 5c-1 1-3 7-3 12-1 9-2 10-8 9-9-1-13-5-15-15-2-6-1-8 2-8s5-1 5-3c0-1 5-2 11-2s11 1 11 2zm20 10c5 6 6 11 7 23l-2 17c-1 1-3-2-3-6 0-10-7-18-16-18-7 0-7-1-3-8l4-10c2-6 5-6 13 2zm-45 21c5 4 12 6 21 6 12 0 21 4 21 10 0 2-6 3-14 3s-14-1-14-2l-6-6c-7-3-7 1-1 7l4 7c0 5-20 1-25-5-6-6-7-26-3-34l4-7 3 8c1 4 6 10 10 13z"
        class="yak" />
    <path
        d="M347 239c-1 3 0 5 3 7l4 7c0 2 2 4 3 4 2 0 3-3 3-6s-1-5-3-5c-1 0-3-3-3-6 0-7-5-8-7-1zm219 9c-3 2 8 9 16 9 5 0 10 2 12 4 3 2 8 4 14 4 10 0 26-7 26-11s-10-4-12 0c-1 1-7 3-14 3s-13-2-14-3c-1-2-6-3-12-3-5 0-9-1-9-3 0-3-4-3-7 0zm105 10c0 5 11 13 17 12 4 0 7 1 7 4 1 3 0 5-3 5-5 0-6 5-1 7 4 3 10-7 11-19 0-10-4-13-7-7l-9 2c-4 0-7-1-7-2 0-2-2-3-4-3l-4 1zm-538 10-2 7c-4 2-3 15 1 17 2 0 4 3 4 5 0 5 10 14 14 12 4-3 3-13-2-13-9 0-16-17-9-21 4-3 3-13-2-13-2 0-4 3-4 6zm177 1c0 3 145 148 147 146 1-1-29-32-67-69-72-72-80-80-80-77zm87 72c38 39 71 70 71 69 2-2-135-139-139-139l68 70zm18 1c36 37 67 66 67 65 2-2-127-131-131-131-1 0 27 30 64 66zm7-61 9 11c12 12 14 8 2-4-8-9-11-10-11-7zm10 61c33 34 61 60 62 60 1-2-116-120-120-120-2 0 24 27 58 60zm15-1c52 52 70 69 58 54-9-11-112-113-114-113s23 26 56 59zm-32-49 19 19c4 4 7 7 7 5 0-3-30-34-34-34-1 0 2 5 8 10zm-105-6c0 3 132 134 133 132a2965 2965 0 0 0-133-132zm344 11c0 5 24 21 30 21l1-8c0-5-1-8-3-8l-3 2c0 2-2 3-5 3-4 0-6-2-6-5 0-5-2-6-7-6l-7 1zm84 6c-4 10-10 12-17 4-5-5-11-7-11-3 0 3 15 17 18 17 5 0 18-15 18-20 0-7-5-6-8 2zm-426 3c0 2 60 60 61 59a672 672 0 0 0-61-59zm-2 14c0 1 9 12 25 28 15 15 22 21 24 20 2-2-45-50-48-50l-1 2zm-6 11 24 25c13 13 24 23 24 21a417 417 0 0 0-48-46zm-95 6c0 3 53 55 55 53 1-1-50-55-53-55l-2 2zm17 0c0 2 67 68 69 68s-5-8-36-40c-28-28-33-33-33-28zm70 2c0 2 67 70 68 68a931 931 0 0 0-68-68zm255 5 8 8 7 4-5-7c-4-7-12-11-10-5zm-269 33c30 31 43 42 33 29-9-11-62-62-64-62s12 15 31 33zm2-32c0 2 75 77 78 77 2 0-4-8-37-40-32-33-41-40-41-37zm255 5c4 4 8 6 8 4 2-3-5-10-10-10-4 0-3 1 2 6zm-336-2c0 2 28 29 30 29 3 0-10-14-24-26-3-3-6-5-6-3zm67 0c0 2 71 72 72 70l-29-31c-32-33-43-43-43-39zm238 3 14 14c7 7 12 16 12 18-1 3 0 3 4 0 4-4 5-3 12 1 5 2 10 4 13 3 4-2 4-3 0-7-4-5-6-5-9-2-4 3-4 3-3-2l2-6c0-3 12-1 13 3 2 5 7 6 7 1 0-4-7-11-11-11-2 0-3-1-3-3l-4-2c-3 0-5 2-5 8s-1 8-5 8l-6-2c0-2-3-3-6-3-4 0-8-3-10-7-3-6-15-15-15-11zm-14 2 13 15c7 6 13 11 13 9l-12-14c-10-10-14-13-14-10zm167 2v3c1 0 0 2-3 5s-7 6-9 6-3 1-3 3l-4 2c-5 0-19-6-19-9l-4-2c-6 0-5 2 1 8 6 7 16 12 21 12 7 0 27-20 27-26 0-5-4-7-7-2zm-302 25c-2 10 7 17 21 18 10 0 14 0 14-3 0-2-2-4-5-4s-4-1-3-4c3-7-5-13-16-13-7 0-10 2-11 6zm23 6c-1 2-4 4-8 4s-7-2-8-4c0-2 2-3 8-3s8 1 8 3zm296-4c-2 2 12 14 19 16 3 1 7 0 10-3 7-6 7-9 0-9-3 0-5 1-5 2 0 2-3 3-6 3-4 0-6-2-6-5 0-6-7-8-12-4zm-282 8 16 17c15 14 23 20 15 10-9-12-31-31-31-27zm236 14c0 3 10 12 14 12 3 0 5 2 5 3 0 4 18 4 21 0l16-7 14-7c0-3-10-3-17 0l-11 6-14 3c-5 0-9-2-9-3 0-2-2-3-5-3s-6-1-6-3c0-1-2-3-4-3l-4 2zm-261 7c-5 3-5 3 11 4 9 1 12 0 12-3 0-5-16-5-23-1zm-117 4a509 509 0 0 0 64 63l-26-29c-29-29-38-37-38-34zm15 34c18 18 33 32 34 31 2-2-60-64-63-64-2 0 11 15 29 33zm-43-29c0 3 61 64 63 62l-25-27c-30-30-38-37-38-35zm-9 9c0 2 58 60 61 60 2 0-5-8-29-32-23-24-32-31-32-28zm378 1 10 12c5 5 10 8 10 7l-10-12c-5-5-10-9-10-7zm-89 2c0 3 59 61 60 59a636 636 0 0 0-60-59zm-186 17 32 33 16 14c0-4-58-63-61-63-2 0 4 7 13 16zm186 18c30 30 43 41 33 29-9-11-62-63-64-63s12 15 31 34zm15-1c18 18 33 32 34 31 2-2-59-64-63-64-2 0 11 15 29 33zm28-6c15 15 28 26 29 26 1-2-49-53-53-53-1 0 9 12 24 27zm11-6 23 21c1-2-38-42-42-42l19 21zm-326 10c14 14 26 25 27 24 2-2-45-49-49-49-2 0 8 11 22 25zm104-13 21 22c5 5 11 11 14 12s4 3 3 7 0 6 4 6c5 0 5-1 2-7-4-7-50-52-53-52-2 0 3 5 9 12zm157 22c18 18 34 33 35 32 2-2-62-66-66-66-2 0 12 15 31 34zm-45-30c0 3 62 63 63 62a733 733 0 0 0-63-62zm-232 22c17 17 24 23 24 20s-33-35-36-35c-2 0 4 7 12 15zm400-13c0 1 5 8 12 15s13 11 13 10c0-2-6-8-13-15l-12-10zm-420 8c0 2 19 22 21 20l-4-6c-8-9-17-17-17-14zm250 6c0 2-4 4-7 4-10 0-42 24-37 29 3 3 6 2 6-3l10-8 14-8 16-7c12-5 13-8 5-10-3-1-6 0-7 3zm16 8c0 2 25 26 26 26 3 0-3-7-14-18-9-9-12-11-12-8zm159 0c0 3 34 36 35 35l-17-19a88 88 0 0 0-18-16zm6 23 10 12 9 7-9-12-10-7zm-25 20c0 2 4 6 9 10 9 6 9 8 9 24 0 10 1 21 3 26 2 4 3 9 2 10-1 2 0 4 2 6 1 1 3 6 3 11 1 6 3 11 6 13s5 6 5 9c0 2 3 6 6 9s6 9 7 13c0 12 6 11 6 0 0-6-1-10-2-10-2 0-3-3-3-5 0-3-3-7-6-9-3-3-5-7-5-9 0-3-2-5-3-5-2 0-3-4-3-9s-1-8-3-8c-1 0-3-5-3-11 0-7-1-12-2-12-2 0-3-9-3-22 0-22 0-22-9-26l-8-5c0-2-2-3-4-3s-4 2-4 3zm-184 13-1 8c0 6 14 19 21 18 3 0 9 1 13 3 6 3 9 3 15 1l8-4v44c0 35 0 44 3 45s4 3 3 4c-2 3 1 11 4 11 2 0 3-4 3-8 0-5-2-9-3-9-2 0-3-15-2-47l1-48h-7c-3 0-6 1-6 3 0 1-4 3-8 3-5 0-9-2-10-3-1-2-6-3-10-3-11 0-17-6-17-15 0-8-4-10-7-3zm-225 22 14 13c2 0-3-6-10-13s-13-12-15-12l11 12zm492 9c-3 21-3 26 0 42 2 7 5 19 5 25 1 6 3 12 5 13 2 2 2 2 0 2-4 0-4 17 0 17 5 0 7-19 3-23-2-1-4-6-4-9l-5-25c-3-14-4-22-2-30 2-5 2-14 1-18-1-8-2-7-3 6zm-96 2c13 13 16 16 18 14 1-1-24-26-27-26l9 12zm-354-4 12 14 13 11c0-2-6-8-13-15s-12-12-12-10zm-45 5c0 4 17 21 19 19 1-1-3-6-9-11l-10-8zm34 0 9 12 10 8c0-2-4-7-10-12-5-6-9-9-9-8zm292 9 12 10c2-1-18-21-21-21l9 11zm128-9 9 12 10 8c0-2-4-7-10-12-5-6-9-9-9-8zm-259 9-13 4c-9 0-10 1-9 8 0 5-1 8-3 8-3 0-4 4-4 11-1 8 1 12 8 18 4 4 10 7 12 7 4-1 8 0 11 2 7 4 30 4 37 0l9-7c4-5 5-31 1-31-2 0-3-3-3-6s-2-5-6-5c-3 0-5-2-5-3 0-2-4-3-9-3-4 0-8-1-8-3 0-3-15-3-18 0zm18 8c1 2 4 3 7 3s9 2 13 6c10 8 11 24 2 32-6 5-32 6-35 2-1-2-5-3-10-3s-10-2-12-4c-5-5-6-24-2-24 2 0 3-2 3-4 0-3 3-5 7-5s8-1 10-4c4-4 13-4 17 1zm-171 10 20 19c2 0-6-9-16-19-9-10-19-18-20-18l16 18zm260-11c1 4 28 31 29 30s-6-9-14-17l-15-13zm84 0c0 3 40 44 42 42l-20-22-22-20zm-397 7c0 2 27 30 29 28l-14-16c-8-8-15-14-15-12zm33 0 10 11 10 8-10-12c-5-5-10-9-10-7zm336 0 10 11 10 8-10-12c-5-5-10-9-10-7zm0 16c0 2 6 8 13 15s13 11 13 10l-13-14-13-11zm-313 6c0 3 17 20 19 19l-9-11-10-8zm269 0c0 3 17 20 19 19l-9-11-10-8zm33 0 10 12c5 5 10 8 10 7l-10-12c-5-5-10-8-10-7zm-267 20c6 6 11 11 12 10s-18-21-21-21l9 11zm273 4c8 9 16 16 17 16 2 0-4-7-13-16l-17-15c-1 0 4 7 13 15zm-325-8c0 4 33 37 34 35 1-1-7-10-16-19l-18-16zm-28 6c0 2 4 7 10 12 5 6 10 9 10 8l-10-12-10-8zm67 0c0 2 5 7 10 12 5 6 10 9 10 8l-10-12c-5-6-10-9-10-8zm67 0c0 2 5 7 10 12l10 8c0-1-4-7-10-12-5-6-10-9-10-8zm269 0c0 2 5 7 10 12 5 6 10 9 10 8l-10-12c-5-6-10-9-10-8zm-403 17 13 15 12 10c0-1-5-8-12-15l-13-10zm134 0 13 15c7 7 13 11 13 10l-13-15-13-10zm-145 6 10 12 9 7-9-12c-6-5-10-9-10-7zm8 27 20 18c2 0-6-8-15-18l-20-18c-2 0 5 8 15 18zm415-11c-11 7-8 9 5 3 4-2 14-5 21-5 23-1 27-5 5-4-16 0-22 1-31 6zm65-4h15c6-2 5-3-8-3-12 0-14 1-7 3zm-260 6-10 7 1 2c2 2 16-4 16-7 0-1 4-2 10-1 5 1 10 0 11-2s0-2-5-1c-4 1-8 0-9-1-3-5-5-4-14 3zm70-4-22 2 23 1c14 0 23-1 23-3l-1-2s-11 2-23 2zm88 1c0 2 5 5 10 7 9 3 10 2 10-3 0-4-2-5-6-4-3 1-6 1-7-1-2-4-7-3-7 1zm-252 1c0 3 28 31 29 29 1-1-6-8-14-16-8-9-15-14-15-13zm213 3c0 2 3 4 8 4l19 1 11 2-9-4c-5-3-11-4-13-3-3 1-7 0-10-2-5-2-6-2-6 2zm-358 3 9 12 10 8c0-2-4-7-10-12-5-6-9-9-9-8zm50 0c0 3 33 36 34 34 1 0-6-9-16-19l-18-15zm17 0c0 1 4 7 10 12l9 8c0-2-4-7-9-12l-10-8zm117 0 10 12 10 8c0-2-4-7-10-12-5-6-10-9-10-8zm36 10c-5 4-6 20-2 27 1 2 2 0 2-8 1-8 2-13 5-15s4-5 3-6c-2 0-5 0-8 2zm-198 13c0 3 17 20 19 19 1-1-3-6-9-12-6-5-10-9-10-7zm34 0 9 11 10 8-10-12c-5-5-9-9-9-7zm100 0c0 3 18 20 19 19s-3-6-9-12c-5-5-10-9-10-7zm35 20 12 10c2-2-18-21-21-21l9 11z" />
</g>

        <svg width="100px" height="100px" viewbox="0 0 100 100" x="5%" y="5%">
            <svg xmlns="http://www.w3.org/2000/svg" xmlns:xlink="http://www.w3.org/1999/xlink" xml:space="preserve" version="1.0" style="shape-rendering:geometricPrecision;text-rendering:geometricPrecision;image-rendering:optimizeQuality;" viewBox="0 0 264.41 305.6" x="0px" y="0px" fill-rule="evenodd" clip-rule="evenodd"><defs><style type="text/css">
   
    .fil0 {fill:black;fill-rule:nonzero}
   
  </style></defs><g><path class="icon" d="M82.19 0.91c5.23,-0.05 5.23,0.16 5.23,0.53 0,0.39 0.02,0.91 3.9,1.3 3.91,0.33 8.01,-0.07 12.1,-0.58 5.1,-0.81 10.21,-1.76 15.54,-1.89 5.33,-0.13 5.31,1.2 5.31,2.72 0,1.32 0.02,2.71 3.83,3.17 3.72,0.54 7.73,-0.69 11.64,-1.94 4.75,-1.56 9.49,-3.31 13.61,-2.22 3.55,1.65 2.63,5.03 1.58,8.7 -0.95,3.18 -1.86,6.42 -0.44,9.26 1.23,3.04 3.32,2.81 5.31,2.6 2.34,-0.26 4.41,-0.49 4.57,4.56 0,5.2 -1.5,10.32 -2.81,15.37 -0.99,4.11 -1.84,8.19 -1.55,12.17 0.38,3.9 1.3,3.93 2.14,3.97 0.89,0.03 1.63,0.03 1.5,5.36 -0.07,5.27 -0.39,10.35 -0.56,15.38 -0.03,4.08 0.05,8.15 0.48,11.98 0.02,1.13 0.02,2.24 0.03,3.32 -0.79,-5.22 -0.92,-10.28 -0.92,-15.32 0.12,-4.06 0.36,-8.15 0.23,-12.01 -0.05,-3.95 -0.69,-3.97 -1.41,-4 -1.05,0 -2.24,-0.07 -2.94,-5.35 -0.64,-5.35 0.38,-10.45 1.53,-15.52 1.07,-4.1 2.24,-8.19 2.06,-11.99 -0.28,-3.74 -1.92,-3.64 -3.73,-3.5 -2.47,0.26 -5.08,0.53 -6.77,-3.78 -2.22,-3.78 -1.12,-7.8 -0.15,-11.55 0.66,-2.78 1.4,-5.54 -1.4,-6.75 -2.96,-1.04 -6.76,0.3 -10.61,1.58 -4.77,1.41 -9.67,2.83 -14.71,1.89 -5.19,-0.82 -5.19,-2.63 -5.19,-4.24 -0.02,-1.2 -0.03,-2.3 -3.96,-2.35 -3.95,-0.07 -8.04,0.66 -12.12,1.25 -5.1,0.63 -10.19,1.1 -15.49,0.41 -5.26,-0.74 -5.28,-1.41 -5.23,-1.93 -0.03,-0.3 -0.05,-0.49 -3.91,-0.61 1.08,0 2.22,0.02 3.34,0zm-81.37 68.91c0.76,5.21 0.89,10.28 0.9,15.33 -0.15,4.06 -0.35,8.13 -0.25,12.03 0.07,3.92 0.69,3.93 1.41,3.98 1.04,0 2.25,0.03 2.93,5.35 0.66,5.33 -0.38,10.43 -1.51,15.5 -1.04,4.06 -2.22,8.18 -2.04,11.98 0.26,3.75 1.91,3.65 3.72,3.52 2.45,-0.25 5.08,-0.54 6.77,3.77 2.19,3.82 1.08,7.83 0.1,11.6 -0.67,2.8 -1.4,5.54 1.38,6.76 2.96,1.02 6.79,-0.33 10.62,-1.58 4.75,-1.43 9.64,-2.83 14.72,-1.93 5.21,0.81 5.19,2.63 5.18,4.26 0.02,1.2 0.02,2.29 3.95,2.35 3.93,0.07 8.06,-0.66 12.15,-1.28 5.1,-0.61 10.18,-1.07 15.49,-0.41 5.26,0.76 5.24,1.45 5.26,1.91 0,0.33 -0.02,0.51 3.85,0.64 -1.08,0 -2.19,-0.02 -3.25,-0.02 -5.26,0.05 -5.31,-0.15 -5.3,-0.53 0.02,-0.41 0,-0.89 -3.88,-1.28 -3.93,-0.35 -8.01,0.05 -12.13,0.58 -5.08,0.81 -10.13,1.74 -15.47,1.88 -5.31,0.13 -5.38,-1.19 -5.36,-2.68 0,-1.32 0,-2.73 -3.8,-3.21 -3.73,-0.51 -7.73,0.69 -11.67,1.97 -4.75,1.56 -9.42,3.26 -13.56,2.19 -3.54,-1.66 -2.63,-5.04 -1.59,-8.69 0.97,-3.19 1.87,-6.42 0.46,-9.28 -1.23,-3.04 -3.32,-2.83 -5.28,-2.62 -2.35,0.28 -4.41,0.46 -4.55,-4.59 0,-5.2 1.5,-10.28 2.8,-15.32 0.97,-4.11 1.84,-8.21 1.51,-12.16 -0.35,-3.93 -1.28,-3.95 -2.1,-3.97 -0.89,-0.05 -1.63,-0.1 -1.5,-5.39 0.07,-5.28 0.39,-10.32 0.56,-15.32 0.02,-4.11 -0.07,-8.16 -0.46,-12.03 -0.02,-1.1 -0.03,-2.2 -0.03,-3.32zm-0.18 -10.17c1.43,5.22 1.92,10.3 2.28,15.38 0.1,4.08 0.13,8.13 0.71,12.03 0.56,3.9 1.46,3.93 2.43,3.98 1.33,-0.03 2.84,-0.03 4.18,5.3 1.33,5.32 0.66,10.41 -0.17,15.5 -0.79,4.06 -1.71,8.18 -1.05,12 0.72,3.75 2.61,3.67 4.65,3.57 2.73,-0.25 5.62,-0.48 7.83,3.97 2.65,4.03 1.73,8.18 0.9,12.11 -0.59,2.95 -1.18,5.81 1.73,7.37 3.08,1.4 6.9,0.3 10.8,-0.74 4.8,-1.15 9.7,-2.24 14.83,-0.71 5.19,1.46 5.16,3.57 5.16,5.51 0,1.45 0,2.8 3.93,3.34 3.93,0.56 8.02,0.1 12.13,-0.26 5.1,-0.28 10.21,-0.39 15.5,0.95 5.28,1.4 5.23,2.37 5.21,3.14 -0.02,0.56 -0.02,1 3.86,1.61 -1.13,-0.02 -2.24,-0.03 -3.32,-0.03 -5.25,-0.61 -5.26,-1.1 -5.26,-1.78 0.03,-0.67 0.03,-1.4 -3.85,-2.27 -3.93,-0.82 -8.02,-0.71 -12.13,-0.44 -5.06,0.46 -10.14,1.07 -15.47,0.56 -5.31,-0.54 -5.34,-2.16 -5.34,-3.95 0.02,-1.58 0.03,-3.24 -3.78,-4.2 -3.75,-0.99 -7.78,-0.02 -11.72,1 -4.8,1.32 -9.52,2.72 -13.79,1.13 -3.75,-2.11 -2.98,-5.64 -2.09,-9.48 0.81,-3.27 1.58,-6.61 -0.18,-9.63 -1.59,-3.14 -3.88,-2.98 -6.1,-2.78 -2.61,0.25 -4.95,0.38 -5.7,-4.69 -0.66,-5.2 0.51,-10.28 1.5,-15.33 0.71,-4.08 1.3,-8.19 0.48,-12.13 -0.8,-3.95 -1.99,-3.93 -3.09,-3.95 -1.18,-0.03 -2.24,-0.07 -2.76,-5.38 -0.59,-5.26 -0.58,-10.32 -0.74,-15.34 -0.23,-4.08 -0.61,-8.18 -1.48,-12.03 -0.03,-1.09 -0.05,-2.25 -0.08,-3.36zm-0.23 -10.28c2.07,5.25 2.89,10.35 3.55,15.42 0.39,4.1 0.72,8.19 1.79,12.09 1.05,3.9 2.17,3.9 3.39,3.9 1.68,0 3.49,0 5.51,5.32 2,5.33 1.66,10.41 1.13,15.51 -0.53,4.08 -1.17,8.21 -0.03,12.04 1.2,3.77 3.32,3.69 5.57,3.6 3.02,-0.2 6.18,-0.38 8.93,4.21 3.09,4.24 2.38,8.51 1.69,12.6 -0.46,3.09 -0.97,6.12 2.09,8.03 3.19,1.78 7.07,0.89 10.98,0.08 4.87,-0.85 9.8,-1.66 14.96,0.51 5.21,2.14 5.21,4.56 5.16,6.81 -0.02,1.71 -0.02,3.27 3.9,4.33 3.91,1.05 8.06,0.87 12.17,0.79 5.11,0.05 10.24,0.26 15.54,2.27 5.26,2.07 5.25,3.34 5.21,4.43 -0.02,0.81 -0.05,1.46 3.8,2.57 -1.1,-0.03 -2.22,-0.05 -3.32,-0.08 -5.26,-1.25 -5.26,-2.04 -5.21,-3.01 0.03,-0.87 0.05,-1.86 -3.85,-3.21 -3.91,-1.33 -8.01,-1.48 -12.15,-1.5 -5.11,0.11 -10.18,0.38 -15.5,-0.81 -5.28,-1.2 -5.33,-3.13 -5.29,-5.23 0.02,-1.79 0.03,-3.72 -3.8,-5.15 -3.78,-1.45 -7.81,-0.74 -11.79,0.05 -4.85,0.99 -9.6,2.12 -14.02,0.03 -3.96,-2.55 -3.34,-6.27 -2.6,-10.25 0.66,-3.41 1.27,-6.84 -0.84,-10 -1.96,-3.27 -4.49,-3.13 -6.9,-2.96 -2.89,0.2 -5.53,0.35 -6.92,-4.75 -1.3,-5.22 -0.46,-10.33 0.21,-15.38 0.43,-4.11 0.76,-8.23 -0.56,-12.16 -1.32,-3.93 -2.76,-3.92 -4.08,-3.92 -1.51,-0.02 -2.84,-0.02 -4.04,-5.3 -1.25,-5.26 -1.58,-10.37 -2.09,-15.42 -0.51,-4.13 -1.15,-8.23 -2.5,-12.09 -0.03,-1.12 -0.05,-2.22 -0.08,-3.37zm-0.28 -10.28c2.75,5.23 3.86,10.33 4.88,15.47 0.66,4.1 1.22,8.19 2.78,12.09 1.54,3.9 2.94,3.9 4.42,3.93 1.96,-0.07 4.11,-0.05 6.81,5.28 2.66,5.31 2.63,10.4 2.45,15.55 -0.25,4.06 -0.64,8.18 0.97,12.03 1.66,3.8 4.04,3.75 6.54,3.69 3.3,-0.2 6.74,-0.33 10,4.43 3.55,4.46 3.04,8.85 2.53,13.13 -0.36,3.24 -0.79,6.43 2.43,8.69 3.32,2.14 7.23,1.48 11.2,0.91 4.9,-0.59 9.85,-1.1 15.04,1.73 5.23,2.76 5.23,5.53 5.23,8.1 -0.05,1.96 -0.05,3.8 3.86,5.35 3.91,1.55 8.04,1.63 12.18,1.81 5.11,0.38 10.21,0.9 15.5,3.6 5.28,2.73 5.28,4.33 5.26,5.73 -0.05,1.05 -0.08,1.96 3.8,3.55 -1.13,-0.03 -2.25,-0.05 -3.37,-0.08 -5.24,-1.94 -5.23,-3.04 -5.19,-4.3 0.02,-1.15 0.05,-2.35 -3.83,-4.23 -3.91,-1.83 -8.06,-2.24 -12.18,-2.52 -5.08,-0.21 -10.19,-0.26 -15.52,-2.12 -5.29,-1.87 -5.28,-4.13 -5.29,-6.53 0.03,-2.09 0.07,-4.26 -3.78,-6.14 -3.82,-1.94 -7.88,-1.5 -11.89,-0.94 -4.87,0.71 -9.7,1.58 -14.27,-1.05 -4.17,-2.99 -3.63,-6.93 -3.09,-11.06 0.49,-3.5 0.97,-7.04 -1.48,-10.35 -2.35,-3.39 -5.1,-3.31 -7.75,-3.17 -3.15,0.16 -6.08,0.26 -8.12,-4.85 -1.96,-5.23 -1.43,-10.35 -1.1,-15.42 0.16,-4.1 0.26,-8.21 -1.56,-12.14 -1.83,-3.92 -3.52,-3.93 -5.11,-3.93 -1.81,0 -3.47,0 -5.33,-5.3 -1.92,-5.28 -2.58,-10.37 -3.42,-15.45 -0.76,-4.11 -1.66,-8.19 -3.52,-12.06 -0.03,-1.12 -0.05,-2.29 -0.08,-3.41zm-0.13 -10.15c3.4,5.23 4.82,10.32 6.08,15.38 0.9,4.08 1.71,8.18 3.76,12.09 2.04,3.9 3.7,3.9 5.46,3.93 2.32,0 4.8,0.03 8.17,5.33 3.34,5.32 3.6,10.4 3.71,15.48 -0.02,4.08 -0.15,8.19 1.94,12.09 2.14,3.82 4.75,3.75 7.5,3.72 3.6,-0.11 7.32,-0.23 11.1,4.67 4.01,4.67 3.65,9.2 3.3,13.62 -0.26,3.41 -0.52,6.75 2.84,9.35 3.45,2.5 7.37,2.07 11.33,1.71 4.95,-0.31 9.92,-0.53 15.13,2.93 5.26,3.41 5.28,6.47 5.25,9.39 0.02,2.24 0.03,4.36 3.96,6.4 3.91,2.04 7.99,2.37 12.09,2.8 5.11,0.66 10.18,1.5 15.47,4.85 5.28,3.39 5.29,5.33 5.29,7.08 0.03,1.33 0.03,2.55 3.95,4.61 -1.15,-0.02 -2.27,-0.03 -3.37,-0.07 -5.26,-2.58 -5.26,-4.01 -5.28,-5.64 0.02,-1.4 -0.02,-2.91 -3.91,-5.26 -3.93,-2.3 -7.97,-2.96 -12.12,-3.49 -5.06,-0.5 -10.16,-0.87 -15.47,-3.42 -5.29,-2.53 -5.31,-5.12 -5.33,-7.88 0.03,-2.34 0,-4.77 -3.85,-7.14 -3.83,-2.42 -7.88,-2.15 -11.92,-1.86 -4.9,0.43 -9.75,1.02 -14.47,-2.12 -4.41,-3.46 -4.01,-7.59 -3.63,-11.88 0.36,-3.59 0.66,-7.27 -2.14,-10.71 -2.71,-3.52 -5.67,-3.42 -8.57,-3.36 -3.45,0.1 -6.68,0.21 -9.34,-4.95 -2.61,-5.25 -2.42,-10.4 -2.37,-15.43 -0.08,-4.08 -0.26,-8.19 -2.57,-12.14 -2.32,-3.92 -4.29,-3.9 -6.15,-3.93 -2.17,-0.05 -4.14,-0.03 -6.69,-5.31 -2.58,-5.28 -3.57,-10.43 -4.67,-15.43 -1.02,-4.1 -2.12,-8.21 -4.45,-12.08 -0.02,-1.1 -0.03,-2.2 -0.05,-3.32zm0.39 -9.64c4.01,5.22 5.56,10.09 7.04,15.05 1.07,4 2.07,8.05 4.6,11.95 2.52,3.9 4.51,3.95 6.59,4.03 2.68,0.05 5.61,0.2 9.6,5.46 3.98,5.26 4.44,10.25 4.83,15.27 0.18,4.05 0.3,8.13 2.85,12.03 2.6,3.83 5.47,3.82 8.48,3.8 3.86,-0.05 7.91,-0.1 12.17,4.92 4.42,4.84 4.23,9.51 4.04,14.05 -0.15,3.55 -0.31,7.04 3.19,9.99 3.57,2.88 7.5,2.63 11.49,2.48 4.92,-0.05 9.86,-0.05 15.08,4 5.23,4.05 5.29,7.5 5.31,10.78 0.05,2.52 0.13,4.94 4.03,7.47 3.91,2.53 7.93,3.06 11.99,3.67 4.98,0.94 9.91,1.94 15.17,5.92 5.25,4 5.41,6.42 5.51,8.57 0.1,1.66 0.2,3.21 4.09,5.74 -1.13,0.02 -2.27,0 -3.35,-0.02 -5.29,-3.24 -5.29,-5.03 -5.34,-7.02 -0.1,-1.74 -0.17,-3.55 -4.03,-6.38 -3.91,-2.78 -7.96,-3.64 -11.97,-4.34 -5.05,-0.77 -10.13,-1.45 -15.44,-4.66 -5.28,-3.22 -5.29,-6.12 -5.29,-9.23 -0.07,-2.63 -0.07,-5.35 -3.91,-8.19 -3.86,-2.83 -7.91,-2.83 -11.87,-2.75 -5,0.2 -9.9,0.51 -14.75,-3.16 -4.62,-3.9 -4.34,-8.21 -4.09,-12.64 0.21,-3.73 0.36,-7.45 -2.75,-11.04 -3.07,-3.64 -6.28,-3.62 -9.39,-3.55 -3.76,0.03 -7.32,0.08 -10.6,-5.12 -3.26,-5.27 -3.36,-10.37 -3.58,-15.34 -0.3,-4.06 -0.67,-8.1 -3.45,-12.01 -2.79,-3.9 -5.08,-3.97 -7.23,-4.03 -2.56,-0.12 -4.9,-0.13 -8.11,-5.41 -3.22,-5.3 -4.49,-10.36 -5.8,-15.3 -1.2,-4.03 -2.48,-8.01 -5.29,-11.86 0.03,-1.05 0.08,-2.14 0.2,-3.13zm1.64 -8.36c4.55,5.1 5.97,9.51 7.38,14.12 1.17,3.83 2.25,7.69 5.23,11.57 2.99,3.83 5.36,4.03 7.76,4.23 3.26,0.26 6.71,0.63 11.26,5.78 4.52,5.15 5.06,9.86 5.54,14.69 0.38,3.93 0.64,7.9 3.63,11.78 3.04,3.82 6.2,3.87 9.47,3.9 4.19,0.03 8.53,0.08 13.19,5.12 4.75,4.95 4.69,9.66 4.64,14.33 -0.07,3.67 -0.15,7.3 3.45,10.58 3.67,3.19 7.61,3.14 11.57,3.16 4.83,0.1 9.67,0.23 14.78,4.82 5.13,4.56 5.31,8.47 5.49,12.17 0.08,2.85 0.2,5.59 4.06,8.6 3.88,2.98 7.81,3.64 11.72,4.39 4.67,0.95 9.27,1.93 14.4,6.45 5.15,4.56 5.61,7.62 6.05,10.36 0.2,2.07 0.43,4.02 4.29,7.01 -0.95,0.13 -1.96,0.25 -3.01,0.28 -5.26,-3.87 -5.46,-6.15 -5.74,-8.65 -0.2,-2.14 -0.43,-4.39 -4.26,-7.63 -3.83,-3.24 -7.68,-4.13 -11.56,-4.97 -4.87,-0.89 -9.77,-1.76 -15.06,-5.61 -5.24,-3.87 -5.36,-7.16 -5.47,-10.69 -0.08,-2.93 -0.16,-5.97 -3.96,-9.23 -3.82,-3.26 -7.78,-3.41 -11.76,-3.47 -4.9,-0.02 -9.8,0.08 -14.76,-4.1 -4.82,-4.33 -4.69,-8.78 -4.57,-13.39 0.1,-3.8 0.15,-7.6 -3.27,-11.25 -3.37,-3.7 -6.82,-3.72 -10.16,-3.73 -4.08,0 -7.94,-0.02 -11.84,-5.23 -3.9,-5.25 -4.21,-10.23 -4.64,-15.14 -0.44,-3.93 -0.94,-7.82 -4.16,-11.67 -3.24,-3.83 -5.9,-4.03 -8.4,-4.2 -3.01,-0.2 -5.8,-0.36 -9.65,-5.63 -3.86,-5.28 -5.25,-10.12 -6.66,-14.88 -1.28,-3.85 -2.55,-7.57 -5.79,-11.37 0.26,-0.82 0.51,-1.65 0.79,-2.5zm3.86 -6.17c4.95,4.87 5.97,8.62 7.12,12.59 0.84,3.27 1.86,6.81 5.25,10.6 3.39,3.77 6.18,4.11 9.19,4.64 3.85,0.56 7.92,1.2 12.87,6.09 4.93,4.89 5.38,9.2 5.85,13.62 0.3,3.65 0.62,7.49 4.03,11.27 3.4,3.77 6.87,3.82 10.44,3.97 4.49,0.13 9.11,0.21 14.04,5.13 4.93,4.9 4.93,9.59 4.93,14.33 0,3.78 0,7.54 3.67,11.04 3.68,3.49 7.55,3.56 11.36,3.6 4.67,0.17 9.22,0.35 14.11,5.3 4.88,4.95 5.24,9.31 5.56,13.49 0.31,3.31 0.53,6.43 4.31,9.82 3.78,3.39 7.43,4.08 10.9,4.64 4.24,0.81 8.25,1.56 13.12,6.52 4.88,4.95 5.82,8.7 6.61,12.21 0.72,2.78 1.18,5.22 4.98,8.61 -0.85,0.28 -1.68,0.54 -2.5,0.81 -5.16,-4.46 -5.72,-7.37 -6.2,-10.43 -0.66,-2.83 -1.3,-5.71 -4.98,-9.26 -3.67,-3.59 -7.02,-4.3 -10.46,-4.9 -4.59,-0.94 -9.16,-1.81 -14.35,-6.24 -5.15,-4.44 -5.42,-8.23 -5.61,-12.14 -0.28,-3.37 -0.51,-6.81 -4.16,-10.4 -3.7,-3.57 -7.43,-3.74 -11.21,-3.83 -4.83,-0.15 -9.6,-0.21 -14.63,-4.81 -4.92,-4.69 -4.92,-9.3 -4.88,-14 0.02,-3.83 0.02,-7.67 -3.6,-11.3 -3.58,-3.67 -7.27,-3.72 -10.9,-3.8 -4.34,-0.07 -8.57,-0.15 -13,-5.28 -4.46,-5.18 -4.87,-9.97 -5.43,-14.64 -0.35,-3.62 -0.77,-7.19 -4.32,-10.88 -3.58,-3.69 -6.74,-4.08 -9.83,-4.56 -3.47,-0.36 -6.81,-0.76 -11.23,-5.91 -4.45,-5.18 -5.74,-9.67 -7.14,-14.08 -0.92,-3.22 -1.87,-6.43 -5.46,-10.07 0.44,-0.64 0.9,-1.28 1.56,-1.73zm6.72 -3.28c5.15,4.44 5.69,7.36 6.18,10.41 0.66,2.83 1.3,5.71 4.97,9.28 3.68,3.55 7.05,4.26 10.46,4.9 4.57,0.94 9.18,1.81 14.35,6.24 5.16,4.44 5.41,8.21 5.62,12.14 0.28,3.36 0.51,6.8 4.17,10.38 3.68,3.57 7.42,3.74 11.18,3.85 4.83,0.15 9.63,0.2 14.63,4.82 4.93,4.69 4.92,9.28 4.9,14 0,3.82 -0.02,7.65 3.58,11.29 3.6,3.67 7.3,3.72 10.93,3.8 4.34,0.05 8.55,0.13 13.04,5.26 4.42,5.2 4.87,9.94 5.38,14.66 0.36,3.6 0.77,7.19 4.32,10.88 3.57,3.69 6.74,4.1 9.83,4.58 3.49,0.35 6.84,0.74 11.24,5.91 4.46,5.18 5.74,9.64 7.15,14.05 0.9,3.24 1.86,6.43 5.44,10.1 -0.43,0.63 -0.89,1.25 -1.56,1.73 -4.95,-4.9 -5.99,-8.64 -7.14,-12.6 -0.82,-3.27 -1.84,-6.81 -5.23,-10.6 -3.4,-3.78 -6.18,-4.11 -9.21,-4.64 -3.85,-0.56 -7.91,-1.22 -12.87,-6.09 -4.93,-4.89 -5.38,-9.18 -5.84,-13.66 -0.3,-3.65 -0.63,-7.47 -4.03,-11.24 -3.42,-3.77 -6.86,-3.83 -10.46,-3.97 -4.51,-0.11 -9.11,-0.21 -14.04,-5.12 -4.93,-4.9 -4.93,-9.61 -4.97,-14.33 0.02,-3.78 0.03,-7.55 -3.63,-11.06 -3.7,-3.49 -7.55,-3.55 -11.36,-3.62 -4.67,-0.15 -9.22,-0.35 -14.07,-5.3 -4.9,-4.95 -5.26,-9.31 -5.57,-13.51 -0.33,-3.29 -0.56,-6.4 -4.32,-9.8 -3.8,-3.39 -7.46,-4.05 -10.9,-4.64 -4.24,-0.79 -8.24,-1.55 -13.1,-6.5 -4.88,-4.95 -5.84,-8.7 -6.63,-12.21 -0.72,-2.8 -1.2,-5.23 -4.96,-8.62 0.82,-0.26 1.64,-0.53 2.5,-0.79zm8.76 -1.27c5.24,3.88 5.44,6.14 5.72,8.64 0.2,2.14 0.44,4.43 4.27,7.67 3.82,3.22 7.68,4.1 11.56,4.95 4.83,0.91 9.77,1.76 15.04,5.63 5.26,3.85 5.36,7.16 5.49,10.68 0.08,2.93 0.18,5.97 3.98,9.25 3.8,3.28 7.78,3.37 11.72,3.47 4.9,0 9.81,-0.06 14.78,4.11 4.83,4.31 4.67,8.77 4.55,13.39 -0.08,3.78 -0.11,7.58 3.29,11.24 3.39,3.69 6.82,3.73 10.19,3.72 4.04,-0.02 7.92,0.02 11.85,5.23 3.88,5.26 4.21,10.2 4.62,15.14 0.43,3.97 0.92,7.83 4.13,11.7 3.25,3.82 5.92,4.02 8.43,4.18 2.99,0.18 5.8,0.38 9.65,5.64 3.88,5.26 5.23,10.08 6.66,14.87 1.28,3.85 2.55,7.57 5.8,11.37 -0.28,0.86 -0.54,1.7 -0.79,2.5 -4.59,-5.1 -6,-9.53 -7.4,-14.13 -1.17,-3.83 -2.25,-7.69 -5.24,-11.55 -2.99,-3.88 -5.33,-4.06 -7.74,-4.24 -3.27,-0.26 -6.73,-0.63 -11.29,-5.76 -4.51,-5.17 -5.05,-9.87 -5.54,-14.69 -0.33,-3.98 -0.61,-7.95 -3.6,-11.8 -3.04,-3.83 -6.21,-3.88 -9.47,-3.92 -4.23,-0.03 -8.55,-0.07 -13.22,-5.1 -4.75,-4.95 -4.7,-9.66 -4.67,-14.32 0.07,-3.69 0.18,-7.32 -3.42,-10.58 -3.65,-3.22 -7.65,-3.16 -11.59,-3.17 -4.82,-0.11 -9.68,-0.25 -14.75,-4.82 -5.13,-4.57 -5.31,-8.51 -5.51,-12.21 -0.11,-2.83 -0.21,-5.56 -4.08,-8.56 -3.88,-3 -7.83,-3.67 -11.7,-4.44 -4.69,-0.94 -9.29,-1.89 -14.42,-6.43 -5.15,-4.56 -5.62,-7.6 -6.03,-10.4 -0.23,-2.04 -0.44,-3.98 -4.27,-6.98 0.95,-0.11 1.91,-0.25 2.99,-0.28zm9.85 -0.2c5.25,3.26 5.21,5.02 5.31,7.03 0.08,1.76 0.18,3.59 4.06,6.4 3.9,2.78 7.92,3.62 11.94,4.34 5.01,0.76 10.14,1.45 15.44,4.67 5.31,3.19 5.28,6.1 5.33,9.21 0.03,2.63 0.08,5.36 3.93,8.21 3.85,2.86 7.88,2.81 11.85,2.75 4.95,-0.2 9.91,-0.53 14.73,3.18 4.64,3.88 4.34,8.18 4.09,12.65 -0.2,3.7 -0.35,7.47 2.76,11.04 3.07,3.63 6.3,3.57 9.42,3.52 3.75,-0.05 7.28,-0.1 10.62,5.1 3.26,5.26 3.37,10.33 3.57,15.37 0.28,4.05 0.66,8.13 3.44,12.04 2.81,3.9 5.08,3.93 7.27,4 2.55,0.1 4.9,0.11 8.09,5.43 3.24,5.28 4.5,10.35 5.84,15.29 1.18,4.01 2.47,8.04 5.28,11.93 -0.03,1.04 -0.08,2.07 -0.22,3.08 -4.01,-5.25 -5.57,-10.14 -7.02,-15.07 -1.09,-4.03 -2.07,-8.05 -4.62,-11.95 -2.53,-3.9 -4.51,-3.98 -6.58,-4.03 -2.71,-0.1 -5.64,-0.21 -9.64,-5.48 -3.98,-5.27 -4.44,-10.27 -4.82,-15.27 -0.2,-4.08 -0.26,-8.14 -2.84,-12.01 -2.61,-3.83 -5.51,-3.85 -8.5,-3.8 -3.9,0.02 -7.91,0.07 -12.18,-4.92 -4.42,-4.85 -4.23,-9.53 -4.04,-14.05 0.13,-3.57 0.31,-7.06 -3.19,-10 -3.57,-2.86 -7.53,-2.65 -11.49,-2.48 -4.93,0.03 -9.88,0.03 -15.06,-4.03 -5.23,-4.03 -5.33,-7.5 -5.33,-10.76 -0.1,-2.5 -0.13,-4.93 -4.04,-7.47 -3.91,-2.53 -7.97,-3.04 -11.97,-3.69 -5.01,-0.94 -9.93,-1.91 -15.17,-5.91 -5.25,-4.02 -5.46,-6.42 -5.54,-8.59 -0.08,-1.66 -0.18,-3.19 -4.06,-5.74 1.07,-0.02 2.2,0 3.35,0.02zm10.14 0.17c5.24,2.6 5.21,4.02 5.24,5.63 0.02,1.41 0.03,2.93 3.91,5.28 3.91,2.3 8.02,2.95 12.12,3.47 5.05,0.53 10.18,0.89 15.5,3.44 5.29,2.54 5.28,5.13 5.29,7.87 0,2.35 0.03,4.79 3.88,7.17 3.83,2.42 7.88,2.17 11.87,1.88 4.92,-0.44 9.81,-1.04 14.5,2.14 4.42,3.44 4.03,7.55 3.63,11.83 -0.34,3.62 -0.64,7.29 2.15,10.75 2.73,3.52 5.71,3.41 8.58,3.32 3.43,-0.12 6.67,-0.21 9.37,4.95 2.61,5.25 2.42,10.37 2.37,15.43 0.08,4.1 0.25,8.24 2.55,12.18 2.33,3.91 4.27,3.91 6.15,3.91 2.15,0.03 4.16,0.02 6.69,5.33 2.58,5.28 3.57,10.38 4.67,15.43 1.02,4.11 2.15,8.21 4.49,12.11 0.02,1.09 0.03,2.2 0.05,3.31 -3.42,-5.25 -4.85,-10.33 -6.12,-15.4 -0.9,-4.11 -1.69,-8.19 -3.76,-12.09 -2.02,-3.93 -3.71,-3.93 -5.44,-3.93 -2.35,0 -4.83,-0.03 -8.2,-5.33 -3.34,-5.32 -3.6,-10.41 -3.7,-15.5 0.02,-4.11 0.17,-8.23 -1.94,-12.08 -2.15,-3.83 -4.77,-3.8 -7.51,-3.72 -3.62,0.1 -7.35,0.2 -11.13,-4.69 -3.99,-4.67 -3.65,-9.23 -3.3,-13.61 0.25,-3.41 0.54,-6.76 -2.81,-9.36 -3.45,-2.52 -7.42,-2.07 -11.34,-1.71 -4.98,0.3 -9.98,0.53 -15.16,-2.95 -5.26,-3.42 -5.26,-6.5 -5.21,-9.41 -0.05,-2.22 -0.07,-4.33 -3.96,-6.38 -3.93,-2.04 -8.04,-2.35 -12.12,-2.78 -5.13,-0.69 -10.21,-1.53 -15.5,-4.89 -5.28,-3.39 -5.29,-5.32 -5.26,-7.08 -0.02,-1.33 -0.02,-2.55 -3.91,-4.59 1.1,0.02 2.22,0.05 3.37,0.07zm10.31 0.26c5.21,1.94 5.16,3.03 5.16,4.31 -0.03,1.1 -0.05,2.35 3.85,4.21 3.9,1.83 8.04,2.2 12.17,2.52 5.08,0.2 10.23,0.26 15.54,2.14 5.31,1.86 5.26,4.11 5.26,6.55 -0.02,2.06 0,4.21 3.83,6.14 3.8,1.93 7.86,1.45 11.85,0.94 4.85,-0.72 9.75,-1.59 14.27,1.05 4.21,3 3.65,6.89 3.11,11.04 -0.51,3.5 -0.95,7.06 1.51,10.35 2.34,3.41 5.11,3.27 7.76,3.14 3.12,-0.15 6.08,-0.26 8.14,4.87 1.94,5.25 1.43,10.32 1.08,15.4 -0.18,4.13 -0.25,8.24 1.56,12.18 1.83,3.93 3.52,3.93 5.1,3.91 1.82,0.02 3.5,0.02 5.34,5.33 1.92,5.28 2.6,10.35 3.42,15.4 0.79,4.15 1.66,8.26 3.53,12.13 0.03,1.17 0.07,2.27 0.1,3.39 -2.76,-5.25 -3.91,-10.35 -4.88,-15.48 -0.67,-4.1 -1.23,-8.19 -2.81,-12.08 -1.54,-3.91 -2.93,-3.93 -4.41,-3.93 -2,0.05 -4.13,0.03 -6.82,-5.3 -2.66,-5.32 -2.65,-10.41 -2.47,-15.52 0.28,-4.13 0.67,-8.23 -0.94,-12.09 -1.68,-3.78 -4.06,-3.73 -6.58,-3.63 -3.3,0.16 -6.72,0.3 -10,-4.46 -3.57,-4.46 -3.04,-8.85 -2.55,-13.1 0.36,-3.26 0.77,-6.45 -2.43,-8.71 -3.34,-2.12 -7.27,-1.46 -11.2,-0.89 -4.92,0.58 -9.9,1.09 -15.04,-1.76 -5.25,-2.78 -5.25,-5.51 -5.21,-8.1 -0.02,-1.94 0.02,-3.8 -3.91,-5.33 -3.91,-1.55 -8.06,-1.63 -12.15,-1.83 -5.13,-0.36 -10.24,-0.91 -15.54,-3.6 -5.29,-2.73 -5.28,-4.31 -5.21,-5.74 0,-1.05 0.05,-1.97 -3.83,-3.54 1.1,0.03 2.22,0.07 3.39,0.08zm10.23 0.25c5.23,1.27 5.21,2.06 5.16,3.01 0,0.87 -0.03,1.88 3.86,3.22 3.91,1.32 8.06,1.45 12.13,1.5 5.11,-0.11 10.22,-0.39 15.54,0.81 5.31,1.19 5.29,3.13 5.28,5.22 -0.02,1.83 0,3.72 3.81,5.17 3.76,1.46 7.81,0.74 11.79,-0.05 4.83,-0.99 9.63,-2.12 14.04,-0.02 3.96,2.55 3.3,6.28 2.6,10.23 -0.66,3.39 -1.25,6.83 0.84,9.99 1.99,3.28 4.51,3.13 6.94,2.96 2.88,-0.18 5.53,-0.36 6.92,4.76 1.32,5.21 0.48,10.32 -0.2,15.37 -0.44,4.13 -0.79,8.24 0.51,12.19 1.36,3.9 2.8,3.9 4.11,3.91 1.5,0.03 2.86,0.02 4.04,5.32 1.25,5.26 1.59,10.35 2.09,15.42 0.53,4.11 1.13,8.21 2.53,12.06 0.02,1.15 0.05,2.25 0.08,3.37 -2.1,-5.25 -2.93,-10.32 -3.57,-15.38 -0.41,-4.11 -0.72,-8.21 -1.81,-12.09 -1.04,-3.93 -2.17,-3.93 -3.39,-3.91 -1.68,0.02 -3.49,-0.02 -5.52,-5.33 -1.99,-5.33 -1.63,-10.43 -1.1,-15.5 0.52,-4.13 1.17,-8.24 0.03,-12.08 -1.22,-3.75 -3.34,-3.69 -5.59,-3.57 -3.06,0.2 -6.2,0.36 -8.94,-4.23 -3.11,-4.24 -2.4,-8.51 -1.71,-12.57 0.43,-3.09 0.95,-6.15 -2.12,-8.05 -3.19,-1.78 -7.09,-0.87 -10.95,-0.08 -4.92,0.87 -9.85,1.66 -14.96,-0.53 -5.23,-2.14 -5.23,-4.54 -5.16,-6.81 -0.03,-1.68 -0.03,-3.28 -3.95,-4.33 -3.93,-1.04 -8.05,-0.84 -12.12,-0.79 -5.16,-0.05 -10.26,-0.25 -15.55,-2.27 -5.28,-2.07 -5.26,-3.34 -5.2,-4.43 -0.02,-0.79 0.02,-1.48 -3.85,-2.57 1.1,0.03 2.22,0.07 3.37,0.08zm10.18 0.13c5.21,0.63 5.23,1.14 5.23,1.8 -0.02,0.64 -0.03,1.38 3.85,2.24 3.9,0.84 8.04,0.71 12.13,0.46 5.1,-0.46 10.18,-1.07 15.49,-0.53 5.33,0.51 5.33,2.16 5.31,3.95 0,1.58 0,3.22 3.8,4.16 3.76,1 7.79,0.03 11.74,-0.99 4.78,-1.28 9.55,-2.72 13.81,-1.12 3.75,2.11 2.98,5.63 2.07,9.44 -0.79,3.28 -1.55,6.63 0.2,9.63 1.63,3.14 3.91,2.96 6.13,2.76 2.6,-0.25 4.95,-0.36 5.74,4.71 0.66,5.2 -0.51,10.25 -1.54,15.32 -0.69,4.1 -1.28,8.21 -0.48,12.17 0.84,3.92 2.02,3.92 3.09,3.92 1.22,0.03 2.27,0.08 2.8,5.41 0.59,5.27 0.58,10.28 0.74,15.3 0.23,4.11 0.59,8.21 1.5,12.06 0.02,1.15 0.05,2.25 0.07,3.36 -1.43,-5.23 -1.91,-10.32 -2.25,-15.4 -0.15,-4.06 -0.18,-8.14 -0.77,-12.03 -0.54,-3.93 -1.43,-3.93 -2.4,-3.98 -1.36,0.05 -2.84,0 -4.21,-5.3 -1.33,-5.33 -0.64,-10.42 0.18,-15.5 0.82,-4.11 1.73,-8.21 1.07,-12.03 -0.74,-3.73 -2.63,-3.65 -4.67,-3.55 -2.75,0.25 -5.64,0.48 -7.86,-3.97 -2.65,-4.03 -1.73,-8.16 -0.92,-12.06 0.58,-2.96 1.19,-5.84 -1.73,-7.41 -3.08,-1.4 -6.92,-0.28 -10.79,0.74 -4.82,1.15 -9.77,2.25 -14.85,0.69 -5.21,-1.46 -5.18,-3.57 -5.16,-5.49 0,-1.45 -0.02,-2.78 -3.93,-3.36 -3.93,-0.54 -8.06,-0.07 -12.13,0.26 -5.11,0.28 -10.24,0.4 -15.54,-0.95 -5.26,-1.4 -5.23,-2.35 -5.18,-3.14 -0.02,-0.56 0,-1 -3.86,-1.59 1.1,0.02 2.2,0.02 3.34,0.02z"/></g></svg>
        </svg>
    </svg>